<!-- icon666.com - MILLIONS vector ICONS FREE --><svg version="1.1" id="Capa_1" xmlns="http://www.w3.org/2000/svg" xmlns:xlink="http://www.w3.org/1999/xlink" x="0px" y="0px" viewBox="0 0 409.6 409.6" style="enable-background:new 0 0 409.6 409.6;" xml:space="preserve"><g><g><path d="M310.275,0H99.325C84.203,0,71.897,12.305,71.897,27.43v354.74c0,15.125,12.305,27.43,27.428,27.43h210.95 c15.122,0,27.427-12.305,27.427-27.43V27.43C337.702,12.305,325.397,0,310.275,0z M327.462,382.17c0,9.48-7.71,17.19-17.188,17.19 H99.325c-9.478,0-17.188-7.71-17.188-17.19V335.9h245.325V382.17z M327.462,325.66H82.138V56.755h245.325V325.66z M327.462,46.515 H82.138V27.43c0-9.48,7.71-17.19,17.188-17.19h210.95c9.478,0,17.188,7.71,17.188,17.19V46.515z" fill="#000000" style="fill: rgb(205, 224, 255);"></path></g></g><g><g><path d="M204.8,347.435c-11.622,0-21.078,9.455-21.078,21.08c0,11.62,9.455,21.075,21.078,21.075s21.078-9.455,21.078-21.075 C225.878,356.89,216.422,347.435,204.8,347.435z M204.8,379.35c-5.975,0-10.838-4.86-10.838-10.835 c0-5.975,4.863-10.84,10.838-10.84s10.838,4.865,10.838,10.84C215.638,374.49,210.775,379.35,204.8,379.35z" fill="#000000" style="fill: rgb(205, 224, 255);"></path></g></g></svg>