<?xml version="1.0" standalone="no"?>
<!DOCTYPE svg PUBLIC "-//W3C//DTD SVG 20010904//EN"
 "http://www.w3.org/TR/2001/REC-SVG-20010904/DTD/svg10.dtd">
<svg version="1.0" xmlns="http://www.w3.org/2000/svg"
 width="700.000000pt" height="700.000000pt" viewBox="0 0 700.000000 700.000000"
 preserveAspectRatio="xMidYMid meet">
<metadata>
Created by potrace 1.14, written by Peter Selinger 2001-2017
</metadata>
<g transform="translate(0.000000,700.000000) scale(0.100000,-0.100000)"
fill="#000000" stroke="none">
<path d="M4890 6985 c-481 -76 -950 -326 -1202 -642 -171 -215 -250 -440 -251
-708 0 -185 39 -402 80 -447 22 -25 69 -20 212 22 562 167 976 614 1468 1587
l57 113 -20 27 c-43 59 -165 75 -344 48z m200 -122 c0 -10 -126 -246 -213
-398 -284 -497 -569 -827 -861 -997 -118 -69 -394 -173 -412 -155 -16 16 -35
146 -40 277 -7 166 10 274 65 416 151 389 625 723 1201 845 82 17 260 26 260
12z"/>
<path d="M1874 5070 c-643 -68 -1103 -481 -1329 -1193 -45 -139 -90 -364 -106
-522 -15 -149 -6 -480 16 -625 101 -655 426 -1329 901 -1871 233 -265 605
-583 814 -693 182 -96 565 -151 1135 -162 781 -16 1537 76 1826 222 133 67
333 229 524 426 291 298 519 655 683 1068 268 674 307 1448 107 2148 -171 597
-499 984 -962 1136 -148 49 -256 67 -443 73 -288 9 -470 -17 -900 -131 -260
-68 -466 -89 -742 -75 -208 11 -314 28 -611 98 -139 33 -292 67 -342 75 -198
34 -408 43 -571 26z m3274 -121 c583 -63 968 -419 1165 -1074 367 -1226 -30
-2570 -999 -3376 -175 -146 -291 -203 -514 -253 -371 -83 -784 -120 -1340
-120 -541 0 -938 41 -1161 118 -75 26 -218 119 -371 241 -625 496 -1090 1195
-1278 1916 -161 621 -117 1206 131 1728 185 389 453 641 805 756 155 51 295
68 524 62 230 -5 251 -8 675 -102 405 -89 475 -99 740 -99 283 0 391 15 737
103 400 101 635 128 886 100z"/>
<path d="M1477 4207 c-245 -280 -418 -606 -484 -917 -28 -131 -25 -469 5 -605
93 -429 348 -837 755 -1213 113 -104 260 -222 278 -222 21 0 5 26 -64 108
-143 169 -265 346 -379 549 -243 434 -362 820 -375 1219 -13 382 78 721 276
1027 34 52 61 99 61 105 0 24 -19 11 -73 -51z m-107 -199 c-63 -109 -144 -357
-175 -533 -101 -595 141 -1343 648 -2004 101 -131 71 -113 -121 74 -169 163
-279 293 -392 463 -112 167 -187 320 -244 492 -66 203 -81 301 -80 520 0 165
3 198 28 304 53 229 150 439 303 654 48 67 64 81 33 30z"/>
</g>
</svg>
