<?xml version="1.0" standalone="no"?>
<!DOCTYPE svg PUBLIC "-//W3C//DTD SVG 1.1//EN" "http://www.w3.org/Graphics/SVG/1.1/DTD/svg11.dtd" >
<svg xmlns="http://www.w3.org/2000/svg" xmlns:xlink="http://www.w3.org/1999/xlink" version="1.1">
<metadata>
Created by FontForge 20170731 at Fri Oct 26 23:50:01 2018
 By Aleksey,,,
Copyright (c) 2018 by Alexander Pravdin. All rights reserved.
</metadata>
<defs>
<font id="SONGERGrotesque-Bold" horiz-adv-x="799" >
  <font-face 
    font-family="SONGER Grotesque"
    font-weight="700"
    font-stretch="normal"
    units-per-em="1000"
    panose-1="2 0 8 6 2 0 0 2 0 4"
    ascent="800"
    descent="-200"
    x-height="712"
    cap-height="712"
    bbox="-62 -305 1046 997"
    underline-thickness="132"
    underline-position="-531"
    unicode-range="U+0020-F6C3"
  />
<missing-glyph horiz-adv-x="474" 
d="M47 0v712h380v-712h-380zM133 87h208v538h-208v-538z" />
    <glyph glyph-name=".notdef" horiz-adv-x="474" 
d="M47 0v712h380v-712h-380zM133 87h208v538h-208v-538z" />
    <glyph glyph-name=".null" horiz-adv-x="0" 
 />
    <glyph glyph-name="nonmarkingreturn" horiz-adv-x="333" 
 />
    <glyph glyph-name="space" unicode=" " horiz-adv-x="264" 
 />
    <glyph glyph-name="exclam" unicode="!" horiz-adv-x="235" 
d="M51 208v504h132v-504h-132zM26 83q0 37 27 63.5t65 26.5t64.5 -26.5t26.5 -63.5q0 -39 -26.5 -65.5t-64.5 -26.5t-65 26.5t-27 65.5z" />
    <glyph glyph-name="quotedbl" unicode="&#x22;" horiz-adv-x="300" 
d="M18 479v255h118v-255h-118zM163 479v255h119v-255h-119z" />
    <glyph glyph-name="numbersign" unicode="#" horiz-adv-x="457" 
d="M47 0l13 133h-54v128h64l16 187h-47v126h58l11 138h120l-12 -138h61l13 138h120l-13 -138h54v-126h-64l-16 -187h47v-128h-60l-11 -133h-119l12 133h-62l-11 -133h-120zM191 261h61l16 187h-63z" />
    <glyph glyph-name="dollar" unicode="$" horiz-adv-x="419" 
d="M144 -105v112q-64 21 -131 85l91 97q66 -65 111 -65q24 0 38 20.5t14 46.5q0 25 -13.5 45.5t-35.5 36t-48.5 31t-53 35t-48.5 43t-35.5 60t-13.5 80.5q0 67 34 118t91 69v109h123v-113q57 -19 123 -75l-89 -100q-65 58 -101 58q-24 0 -36.5 -18.5t-12.5 -46.5t18.5 -51.5
t46 -38.5t59.5 -37t59.5 -45.5t46 -64.5t18.5 -94q0 -66 -36 -120t-96 -72v-105h-123z" />
    <glyph glyph-name="percent" unicode="%" horiz-adv-x="582" 
d="M487 192q0 43 -9.5 68.5t-26.5 25.5t-26.5 -25.5t-9.5 -68.5t9.5 -68.5t26.5 -25.5t26.5 25.5t9.5 68.5zM326 192q0 82 36.5 141.5t88.5 59.5q55 0 90 -57t35 -144t-35 -144t-90 -57q-56 0 -90.5 56.5t-34.5 144.5zM130 613q-36 0 -36 -94q0 -95 36 -95q16 0 25.5 26
t9.5 69t-9.5 68.5t-25.5 25.5zM130 318q-55 0 -90 56.5t-35 144.5t35 144.5t90 56.5t89.5 -56.5t34.5 -144.5q0 -81 -36 -141t-88 -60zM117 0l243 712h104q-109 -319 -245 -712h-102z" />
    <glyph glyph-name="ampersand" unicode="&#x26;" horiz-adv-x="477" 
d="M165 213q0 -36 16.5 -63.5t44.5 -27.5t45 27.5t17 63.5q0 35 -16 60.5t-46 25.5t-45.5 -25.5t-15.5 -60.5zM310 426h161v-133h-83q28 -42 28 -94q0 -80 -50.5 -144t-139.5 -64t-140 66t-51 154q0 103 59 154q-59 49 -59 146q0 83 48.5 146t130.5 63q78 0 167 -71
q-78 -97 -83 -104q-56 42 -82 42q-22 0 -35.5 -21t-13.5 -51q0 -36 31 -62.5t112 -26.5z" />
    <glyph glyph-name="quotesingle" unicode="'" horiz-adv-x="169" 
d="M18 479v255h133v-255h-133z" />
    <glyph glyph-name="parenleft" unicode="(" horiz-adv-x="243" 
d="M253 -115l-120 -49q-94 238 -94 519q0 279 94 520l121 -50q-84 -208 -84 -470q0 -255 83 -470z" />
    <glyph glyph-name="parenright" unicode=")" horiz-adv-x="243" 
d="M111 -164l-121 49q83 210 83 470q0 261 -83 470l121 50q93 -241 93 -520q0 -280 -93 -519z" />
    <glyph glyph-name="asterisk" unicode="*" horiz-adv-x="312" 
d="M29 666l84 -30l-3 88h91q0 -14 -0.5 -44t-0.5 -44q14 5 41.5 14.5t41.5 14.5l28 -85q-70 -22 -85 -26l53 -69q-5 -4 -31.5 -23t-41.5 -29l-50 72l-51 -72l-73 53l55 68l-86 27z" />
    <glyph glyph-name="plus" unicode="+" horiz-adv-x="355" 
d="M113 193v97h-96v126h96v97h128v-97h97v-126h-97v-97h-128z" />
    <glyph glyph-name="comma" unicode="," horiz-adv-x="216" 
d="M52 -145l-58 98q52 31 76 56q-25 7 -41 26.5t-16 45.5q0 38 27.5 66t67.5 28q45 0 70 -33.5t25 -84.5q0 -64 -40 -112t-111 -90z" />
    <glyph glyph-name="hyphen" unicode="-" horiz-adv-x="252" 
d="M15 286v132h222v-132h-222z" />
    <glyph glyph-name="period" unicode="." horiz-adv-x="213" 
d="M14 84q0 38 27 64.5t66 26.5q38 0 65 -27t27 -64q0 -39 -27 -66t-65 -27q-40 0 -66.5 26.5t-26.5 66.5z" />
    <glyph glyph-name="slash" unicode="/" horiz-adv-x="306" 
d="M-1 -20l178 752h129l-175 -752h-132z" />
    <glyph glyph-name="zero" unicode="0" 
d="M19 357q0 156 111.5 267.5t268.5 111.5t269 -111.5t112 -267.5q0 -158 -111.5 -269.5t-269.5 -111.5q-157 0 -268.5 111.5t-111.5 269.5zM645 357q0 101 -72 172.5t-174 71.5q-101 0 -173 -72t-72 -172q0 -102 72 -174.5t173 -72.5q102 0 174 72.5t72 174.5z" />
    <glyph glyph-name="one" unicode="1" horiz-adv-x="293" 
d="M67 521l-62 117q8 5 61.5 36.5t61.5 37.5h119v-712h-133v550q-9 -6 -25.5 -16t-21.5 -13z" />
    <glyph glyph-name="two" unicode="2" horiz-adv-x="411" 
d="M37 0v135q90 65 152.5 156t62.5 174q0 123 -43 123q-19 0 -32.5 -41t-16.5 -109l-132 10q9 133 59.5 202.5t121.5 69.5q70 0 121.5 -71t51.5 -189q0 -169 -171 -328h167v-132h-341z" />
    <glyph glyph-name="three" unicode="3" horiz-adv-x="416" 
d="M25 206l130 22q18 -105 53 -105q22 0 35 26t13 57q0 36 -12.5 60.5t-39.5 24.5h-44v131h44q24 0 37 23t13 59q0 33 -13.5 58.5t-34.5 25.5q-13 0 -29 -27t-24 -74l-131 23q21 108 73.5 159t108.5 51q79 0 129.5 -63t50.5 -153q0 -89 -53 -146q57 -55 57 -152
q0 -93 -52.5 -154t-129.5 -61q-25 0 -48.5 8.5t-50.5 30t-49 67t-33 109.5z" />
    <glyph glyph-name="four" unicode="4" horiz-adv-x="447" 
d="M28 120v130l172 462h161v-461h59v-131h-59v-120h-129v120h-204zM148 250h86v250z" />
    <glyph glyph-name="five" unicode="5" horiz-adv-x="406" 
d="M229 504q64 0 106.5 -71.5t42.5 -175.5q0 -107 -47.5 -186.5t-132.5 -79.5q-44 0 -76.5 21t-51.5 58t-29.5 76t-14.5 86l130 10q9 -119 44 -119q22 0 34.5 39.5t12.5 93.5t-10 88.5t-27 34.5q-29 0 -51 -73l-114 37l18 369h300v-133h-187q-1 -17 -3 -49.5t-2 -48.5
q30 23 58 23z" />
    <glyph glyph-name="six" unicode="6" horiz-adv-x="420" 
d="M124 600l57 137l122 -47l-65 -163q68 -4 113.5 -79.5t45.5 -181.5q0 -111 -49.5 -193t-137.5 -82t-137 81t-49 194q0 54 18.5 117.5t81.5 216.5zM210 123q26 0 40.5 43t14.5 100q0 58 -14.5 100t-40.5 42q-25 0 -39.5 -42t-14.5 -100t14.5 -100.5t39.5 -42.5z" />
    <glyph glyph-name="seven" unicode="7" horiz-adv-x="399" 
d="M74 11q106 378 158 568h-205v133h347v-117q-127 -469 -169 -619z" />
    <glyph glyph-name="eight" unicode="8" horiz-adv-x="421" 
d="M164 502q0 -38 13 -59.5t34 -21.5q20 0 33 21.5t13 59.5t-13 61.5t-33 23.5t-33.5 -24.5t-13.5 -60.5zM156 213q0 -36 16.5 -63.5t38.5 -27.5t38 27.5t16 63.5q0 41 -15.5 66.5t-38.5 25.5t-39 -25t-16 -67zM85 361q-17 15 -32.5 51t-15.5 87q0 96 50 158.5t124 62.5
q73 0 123 -62.5t50 -158.5q0 -51 -15.5 -87t-32.5 -52q20 -19 39 -56.5t19 -83.5q0 -101 -52.5 -165t-130.5 -64q-79 0 -131.5 64t-52.5 165q0 46 19 84t39 57z" />
    <glyph glyph-name="nine" unicode="9" horiz-adv-x="420" 
d="M210 588q-26 0 -40.5 -43t-14.5 -100q0 -58 14.5 -100t40.5 -42q25 0 39.5 42t14.5 100t-14.5 100.5t-39.5 42.5zM296 110l-57 -136q-82 30 -122 46l65 163q-68 4 -113.5 79.5t-45.5 181.5q0 111 49.5 193t137.5 82t137 -81t49 -194q0 -55 -18.5 -119.5t-81.5 -214.5z
" />
    <glyph glyph-name="colon" unicode=":" horiz-adv-x="212" 
d="M14 83q0 38 27 64.5t66 26.5q37 0 64 -27t27 -64q0 -39 -26.5 -65.5t-64.5 -26.5q-40 0 -66.5 26.5t-26.5 65.5zM14 450q0 38 27 65t66 27q37 0 64 -27t27 -65q0 -39 -26.5 -65.5t-64.5 -26.5q-40 0 -66.5 26.5t-26.5 65.5z" />
    <glyph glyph-name="semicolon" unicode=";" horiz-adv-x="212" 
d="M14 450q0 38 27 65t66 27q37 0 64 -27t27 -65q0 -39 -26.5 -65.5t-64.5 -26.5q-39 0 -66 26.5t-27 65.5zM51 -143l-57 97q53 31 75 56q-25 6 -40.5 25.5t-15.5 45.5q0 38 27 65.5t67 27.5q44 0 69 -33t25 -84q0 -114 -150 -200z" />
    <glyph glyph-name="less" unicode="&#x3c;" horiz-adv-x="324" 
d="M2 303v101l303 227v-159l-164 -117l164 -113v-158z" />
    <glyph glyph-name="equal" unicode="=" horiz-adv-x="334" 
d="M313 208h-292v126h292v-126zM313 372h-292v125h292v-125z" />
    <glyph glyph-name="greater" unicode="&#x3e;" horiz-adv-x="324" 
d="M19 84v158l163 113l-163 117v159l303 -227v-101z" />
    <glyph glyph-name="question" unicode="?" horiz-adv-x="405" 
d="M190 173q37 0 64 -26.5t27 -63.5q0 -39 -26.5 -65.5t-64.5 -26.5q-39 0 -65 26.5t-26 65.5q0 37 26 63.5t65 26.5zM205 720q78 0 130 -76.5t52 -190.5t-54 -182.5t-166 -68.5h-55v130h56q86 0 86 120q0 58 -15 99t-34 41q-6 0 -10 -1t-12 -10.5t-14.5 -26.5t-15.5 -52
t-16 -84l-132 21q7 46 15 81t23.5 75t36 65.5t52.5 42.5t73 17z" />
    <glyph glyph-name="at" unicode="@" horiz-adv-x="1065" 
d="M687 -16q15 -39 47 -117q-105 -40 -202 -40q-140 0 -258 68.5t-187 187t-69 258.5t69 258t187 187t258 69t258.5 -69t187 -187.5t68.5 -257.5q0 -163 -69 -248.5t-161 -85.5q-60 0 -103.5 35.5t-55.5 99.5q-62 -69 -161 -69q-101 0 -177.5 79t-76.5 189t76.5 188.5
t177.5 78.5q91 0 158 -69v45h124v-399q0 -25 11.5 -41t30.5 -16q44 0 73 62.5t29 150.5q0 161 -114.5 275t-275.5 114q-158 0 -273.5 -114.5t-115.5 -274.5t115.5 -274.5t273.5 -114.5q79 0 155 32zM368 341q0 -59 42 -100.5t100 -41.5q60 0 102 41.5t42 100.5t-42 100.5
t-102 41.5q-58 0 -100 -41.5t-42 -100.5z" />
    <glyph glyph-name="A" unicode="A" horiz-adv-x="477" 
d="M0 0l173 712h130l174 -712h-135l-15 65h-178l-15 -65h-134zM179 195h119l-60 285z" />
    <glyph glyph-name="B" unicode="B" horiz-adv-x="457" 
d="M50 0v712h205q74 0 118 -63t44 -146q0 -90 -47 -140q56 -52 56 -153q0 -83 -44 -146.5t-118 -63.5h-214zM182 130h75q18 0 28.5 25t10.5 59q0 33 -11 58t-28 25h-75v-167zM182 417h64q18 0 28.5 24.5t10.5 58.5q0 33 -10.5 56.5t-28.5 23.5h-64v-163z" />
    <glyph glyph-name="C" unicode="C" horiz-adv-x="749" 
d="M617 244l120 -63q-48 -93 -138 -149t-200 -56q-157 0 -268.5 111.5t-111.5 269.5q0 156 111.5 267.5t268.5 111.5q109 0 200 -56.5t138 -149.5l-120 -61q-31 60 -89 96t-129 36q-101 0 -173 -72t-72 -172q0 -102 72 -174.5t173 -72.5q70 0 128.5 36.5t89.5 97.5z" />
    <glyph glyph-name="D" unicode="D" horiz-adv-x="468" 
d="M50 0v712h180q68 0 119 -52.5t74.5 -132t23.5 -171.5q0 -93 -23.5 -172t-74 -131.5t-119.5 -52.5h-180zM183 132h50q38 0 59.5 66t21.5 158q0 90 -21.5 156.5t-59.5 66.5h-50v-447z" />
    <glyph glyph-name="E" unicode="E" horiz-adv-x="416" 
d="M50 0v712h336v-133h-202v-156h139v-132h-139v-159h202v-132h-336z" />
    <glyph glyph-name="F" unicode="F" horiz-adv-x="406" 
d="M50 0v712h336v-133h-202v-158h137v-132h-137v-289h-134z" />
    <glyph glyph-name="G" unicode="G" 
d="M549 290v133h225q6 -32 6 -66q0 -158 -111.5 -269.5t-269.5 -111.5q-157 0 -268.5 111.5t-111.5 269.5q0 156 111.5 267.5t268.5 111.5q143 0 252 -95l-88 -102q-72 62 -164 62q-101 0 -173 -72t-72 -172q0 -102 72 -174.5t173 -72.5q85 0 150.5 50.5t87.5 129.5h-88z
" />
    <glyph glyph-name="H" unicode="H" horiz-adv-x="498" 
d="M50 0v712h133v-289h131v289h133v-712h-133v291h-131v-291h-133z" />
    <glyph glyph-name="I" unicode="I" horiz-adv-x="236" 
d="M50 0v712h135v-712h-135z" />
    <glyph glyph-name="J" unicode="J" horiz-adv-x="385" 
d="M-9 80l99 85q36 -40 58 -40q55 0 55 153v434h133v-439q0 -146 -54 -214t-140 -68q-76 0 -151 89z" />
    <glyph glyph-name="K" unicode="K" horiz-adv-x="487" 
d="M50 0v712h134v-397l141 397h147l-154 -402l149 -310h-148l-86 183l-49 -104v-79h-134z" />
    <glyph glyph-name="L" unicode="L" horiz-adv-x="410" 
d="M50 0v712h134v-580h207v-132h-341z" />
    <glyph glyph-name="M" unicode="M" horiz-adv-x="634" 
d="M50 0v712h151l115 -475l115 475h152v-712h-129v401q-79 -362 -87 -401h-102l-87 401v-401h-128z" />
    <glyph glyph-name="N" unicode="N" horiz-adv-x="523" 
d="M472 712v-712h-135l-156 418v-418h-131v712h135q53 -139 157 -417v417h130z" />
    <glyph glyph-name="O" unicode="O" 
d="M19 357q0 156 111.5 267.5t268.5 111.5t269 -111.5t112 -267.5q0 -158 -111.5 -269.5t-269.5 -111.5q-157 0 -268.5 111.5t-111.5 269.5zM645 357q0 101 -72 172.5t-174 71.5q-101 0 -173 -72t-72 -172q0 -102 72 -174.5t173 -72.5q102 0 174 72.5t72 174.5z" />
    <glyph glyph-name="P" unicode="P" horiz-adv-x="455" 
d="M50 0v712h189q91 0 143 -83t52 -196q0 -115 -51.5 -197t-144.5 -82h-55v-154h-133zM183 286h54q32 0 48.5 43t16.5 104q0 60 -18 103t-50 43h-51v-293z" />
    <glyph glyph-name="Q" unicode="Q" 
d="M610 -95l-66 100q-71 -29 -145 -29q-157 0 -268.5 111.5t-111.5 269.5q0 156 111.5 267.5t268.5 111.5t269 -111.5t112 -267.5q0 -81 -32.5 -153.5t-89.5 -126.5l66 -99zM399 110q102 0 174 72.5t72 174.5q0 101 -72 172.5t-174 71.5q-101 0 -173 -72t-72 -172
q0 -102 72 -174.5t173 -72.5z" />
    <glyph glyph-name="R" unicode="R" horiz-adv-x="468" 
d="M50 0v712h190q91 0 143 -83t52 -196q0 -150 -79 -224l90 -209h-144l-65 155h-54v-155h-133zM183 286h55q32 0 48.5 43t16.5 104q0 60 -17.5 103t-50.5 43h-52v-293z" />
    <glyph glyph-name="S" unicode="S" horiz-adv-x="419" 
d="M13 92q15 17 45.5 48.5t45.5 48.5q66 -65 111 -65q24 0 38 20.5t14 46.5q0 25 -13.5 45.5t-35.5 36t-48.5 31t-53 35t-48.5 43t-35.5 60t-13.5 80.5q0 84 51 141t130 57q85 0 190 -90l-89 -100q-65 58 -101 58q-24 0 -36.5 -18.5t-12.5 -46.5t18.5 -51.5t46 -38.5
t59.5 -37t59.5 -45.5t46 -64.5t18.5 -94q0 -81 -52 -141t-132 -60q-95 0 -202 101z" />
    <glyph glyph-name="T" unicode="T" horiz-adv-x="438" 
d="M152 0v579h-131v133h395v-133h-131v-579h-133z" />
    <glyph glyph-name="U" unicode="U" horiz-adv-x="492" 
d="M48 255v457h133v-457q0 -65 19 -98t45 -33t46 32.5t20 98.5v457h132v-457q0 -130 -58.5 -197t-139.5 -67q-82 0 -139.5 67.5t-57.5 196.5z" />
    <glyph glyph-name="V" unicode="V" horiz-adv-x="463" 
d="M157 0l-157 712h137q37 -189 95 -472l95 472h136l-156 -712h-150z" />
    <glyph glyph-name="W" unicode="W" horiz-adv-x="654" 
d="M654 712l-148 -712h-118q-18 111 -61 394l-62 -394h-118l-147 712h137q13 -71 38 -213t38 -213q39 265 60 426h108q21 -161 60 -426l75 426h138z" />
    <glyph glyph-name="X" unicode="X" horiz-adv-x="470" 
d="M151 362l-140 350h144q13 -36 39.5 -107t39.5 -107q13 36 39.5 107t39.5 107h145l-140 -350l145 -362h-144q-15 37 -43 112.5t-42 113.5l-84 -226h-144z" />
    <glyph glyph-name="Y" unicode="Y" horiz-adv-x="437" 
d="M152 0v165l-147 547h138l75 -322l76 322h138l-148 -547v-165h-132z" />
    <glyph glyph-name="Z" unicode="Z" horiz-adv-x="434" 
d="M34 0v115l212 464h-212v133h365v-118l-211 -462h211v-132h-365z" />
    <glyph glyph-name="bracketleft" unicode="[" horiz-adv-x="254" 
d="M45 -109v928h200v-132h-69v-663h69v-133h-200z" />
    <glyph glyph-name="backslash" unicode="\" horiz-adv-x="306" 
d="M175 -20l-176 752h130l177 -752h-131z" />
    <glyph glyph-name="bracketright" unicode="]" horiz-adv-x="254" 
d="M9 -109v133h69v663h-69v132h200v-928h-200z" />
    <glyph glyph-name="asciicircum" unicode="^" horiz-adv-x="347" 
d="M5 340l113 372h110l114 -372h-125l-43 193l-43 -193h-126z" />
    <glyph glyph-name="underscore" unicode="_" horiz-adv-x="405" 
d="M0 -194v132h405v-132h-405z" />
    <glyph glyph-name="grave" unicode="`" horiz-adv-x="248" 
d="M148 729l-137 174l100 74l126 -185z" />
    <glyph glyph-name="a" unicode="a" horiz-adv-x="477" 
d="M0 0l173 712h130l174 -712h-135l-15 65h-178l-15 -65h-134zM179 195h119l-60 285z" />
    <glyph glyph-name="b" unicode="b" horiz-adv-x="457" 
d="M50 0v712h205q74 0 118 -63t44 -146q0 -90 -47 -140q56 -52 56 -153q0 -83 -44 -146.5t-118 -63.5h-214zM182 130h75q18 0 28.5 25t10.5 59q0 33 -11 58t-28 25h-75v-167zM182 417h64q18 0 28.5 24.5t10.5 58.5q0 33 -10.5 56.5t-28.5 23.5h-64v-163z" />
    <glyph glyph-name="c" unicode="c" horiz-adv-x="749" 
d="M617 244l120 -63q-48 -93 -138 -149t-200 -56q-157 0 -268.5 111.5t-111.5 269.5q0 156 111.5 267.5t268.5 111.5q109 0 200 -56.5t138 -149.5l-120 -61q-31 60 -89 96t-129 36q-101 0 -173 -72t-72 -172q0 -102 72 -174.5t173 -72.5q70 0 128.5 36.5t89.5 97.5z" />
    <glyph glyph-name="d" unicode="d" horiz-adv-x="468" 
d="M50 0v712h180q68 0 119 -52.5t74.5 -132t23.5 -171.5q0 -93 -23.5 -172t-74 -131.5t-119.5 -52.5h-180zM183 132h50q38 0 59.5 66t21.5 158q0 90 -21.5 156.5t-59.5 66.5h-50v-447z" />
    <glyph glyph-name="e" unicode="e" horiz-adv-x="416" 
d="M50 0v712h336v-133h-202v-156h139v-132h-139v-159h202v-132h-336z" />
    <glyph glyph-name="f" unicode="f" horiz-adv-x="406" 
d="M50 0v712h336v-133h-202v-158h137v-132h-137v-289h-134z" />
    <glyph glyph-name="g" unicode="g" 
d="M549 290v133h225q6 -32 6 -66q0 -158 -111.5 -269.5t-269.5 -111.5q-157 0 -268.5 111.5t-111.5 269.5q0 156 111.5 267.5t268.5 111.5q143 0 252 -95l-88 -102q-72 62 -164 62q-101 0 -173 -72t-72 -172q0 -102 72 -174.5t173 -72.5q85 0 150.5 50.5t87.5 129.5h-88z
" />
    <glyph glyph-name="h" unicode="h" horiz-adv-x="498" 
d="M50 0v712h133v-289h131v289h133v-712h-133v291h-131v-291h-133z" />
    <glyph glyph-name="i" unicode="i" horiz-adv-x="236" 
d="M50 0v712h135v-712h-135z" />
    <glyph glyph-name="j" unicode="j" horiz-adv-x="385" 
d="M-9 80l99 85q36 -40 58 -40q55 0 55 153v434h133v-439q0 -146 -54 -214t-140 -68q-76 0 -151 89z" />
    <glyph glyph-name="k" unicode="k" horiz-adv-x="486" 
d="M49 0v712h134v-397l141 397h147l-154 -402l149 -310h-148l-86 183l-49 -104v-79h-134z" />
    <glyph glyph-name="l" unicode="l" horiz-adv-x="410" 
d="M50 0v712h134v-580h207v-132h-341z" />
    <glyph glyph-name="m" unicode="m" horiz-adv-x="634" 
d="M50 0v712h151l115 -475l115 475h152v-712h-129v401q-79 -362 -87 -401h-102l-87 401v-401h-128z" />
    <glyph glyph-name="n" unicode="n" horiz-adv-x="523" 
d="M472 712v-712h-135l-156 418v-418h-131v712h135q53 -139 157 -417v417h130z" />
    <glyph glyph-name="o" unicode="o" 
d="M19 357q0 156 111.5 267.5t268.5 111.5t269 -111.5t112 -267.5q0 -158 -111.5 -269.5t-269.5 -111.5q-157 0 -268.5 111.5t-111.5 269.5zM645 357q0 101 -72 172.5t-174 71.5q-101 0 -173 -72t-72 -172q0 -102 72 -174.5t173 -72.5q102 0 174 72.5t72 174.5z" />
    <glyph glyph-name="p" unicode="p" horiz-adv-x="455" 
d="M50 0v712h189q91 0 143 -83t52 -196q0 -115 -51.5 -197t-144.5 -82h-55v-154h-133zM183 286h54q32 0 48.5 43t16.5 104q0 60 -18 103t-50 43h-51v-293z" />
    <glyph glyph-name="q" unicode="q" 
d="M610 -95l-66 100q-71 -29 -145 -29q-157 0 -268.5 111.5t-111.5 269.5q0 156 111.5 267.5t268.5 111.5t269 -111.5t112 -267.5q0 -81 -32.5 -153.5t-89.5 -126.5l66 -99zM399 110q102 0 174 72.5t72 174.5q0 101 -72 172.5t-174 71.5q-101 0 -173 -72t-72 -172
q0 -102 72 -174.5t173 -72.5z" />
    <glyph glyph-name="r" unicode="r" horiz-adv-x="468" 
d="M50 0v712h190q91 0 143 -83t52 -196q0 -150 -79 -224l90 -209h-144l-65 155h-54v-155h-133zM183 286h55q32 0 48.5 43t16.5 104q0 60 -17.5 103t-50.5 43h-52v-293z" />
    <glyph glyph-name="s" unicode="s" horiz-adv-x="419" 
d="M13 92q15 17 45.5 48.5t45.5 48.5q66 -65 111 -65q24 0 38 20.5t14 46.5q0 25 -13.5 45.5t-35.5 36t-48.5 31t-53 35t-48.5 43t-35.5 60t-13.5 80.5q0 84 51 141t130 57q85 0 190 -90l-89 -100q-65 58 -101 58q-24 0 -36.5 -18.5t-12.5 -46.5t18.5 -51.5t46 -38.5
t59.5 -37t59.5 -45.5t46 -64.5t18.5 -94q0 -81 -52 -141t-132 -60q-95 0 -202 101z" />
    <glyph glyph-name="t" unicode="t" horiz-adv-x="438" 
d="M152 0v579h-131v133h395v-133h-131v-579h-133z" />
    <glyph glyph-name="u" unicode="u" horiz-adv-x="492" 
d="M48 255v457h133v-457q0 -65 19 -98t45 -33t46 32.5t20 98.5v457h132v-457q0 -130 -58.5 -197t-139.5 -67q-82 0 -139.5 67.5t-57.5 196.5z" />
    <glyph glyph-name="v" unicode="v" horiz-adv-x="463" 
d="M157 0l-157 712h137q37 -189 95 -472l95 472h136l-156 -712h-150z" />
    <glyph glyph-name="w" unicode="w" horiz-adv-x="654" 
d="M654 712l-148 -712h-118q-18 111 -61 394l-62 -394h-118l-147 712h137q13 -71 38 -213t38 -213q39 265 60 426h108q21 -161 60 -426l75 426h138z" />
    <glyph glyph-name="x" unicode="x" horiz-adv-x="470" 
d="M151 362l-140 350h144q13 -36 39.5 -107t39.5 -107q13 36 39.5 107t39.5 107h145l-140 -350l145 -362h-144q-15 37 -43 112.5t-42 113.5l-84 -226h-144z" />
    <glyph glyph-name="y" unicode="y" horiz-adv-x="437" 
d="M152 0v165l-147 547h138l75 -322l76 322h138l-148 -547v-165h-132z" />
    <glyph glyph-name="z" unicode="z" horiz-adv-x="434" 
d="M34 0v115l212 464h-212v133h365v-118l-211 -462h211v-132h-365z" />
    <glyph glyph-name="braceleft" unicode="{" horiz-adv-x="269" 
d="M67 96v61q0 75 -11 104t-48 29v131q39 0 49 31t10 116v31q0 62 5.5 97.5t24.5 66.5t58.5 44t104.5 13v-133q-40 0 -51 -14t-11 -54v-86q0 -76 -12.5 -112t-44.5 -66q32 -30 44.5 -65.5t12.5 -112.5v-86q0 -38 11 -52.5t51 -14.5v-132q-52 0 -87.5 9.5t-56 24.5t-32 42.5
t-14.5 55.5t-3 72z" />
    <glyph glyph-name="bar" unicode="|" horiz-adv-x="236" 
d="M51 -135v924h133v-924h-133z" />
    <glyph glyph-name="braceright" unicode="}" horiz-adv-x="269" 
d="M202 157v-61q0 -44 -3 -72t-14.5 -55.5t-32 -42.5t-56 -24.5t-87.5 -9.5v132q40 0 51 14t11 53v86q0 77 12.5 112.5t44.5 65.5q-32 30 -44.5 66t-12.5 112v86q0 38 -11 53t-51 15v133q65 0 104.5 -13t58.5 -44t24.5 -66.5t5.5 -97.5v-31q0 -85 10 -116t49 -31v-131
q-37 0 -48 -29t-11 -104z" />
    <glyph glyph-name="asciitilde" unicode="~" horiz-adv-x="397" 
d="M116 259l-112 55q71 138 142 138q24 0 41.5 -10.5t25 -23t15.5 -23t14 -10.5q13 0 40 56l110 -55q-67 -136 -141 -136q-23 0 -41 10.5t-26 22.5t-16 22.5t-14 10.5q-13 0 -38 -57z" />
    <glyph glyph-name="exclamdown" unicode="&#xa1;" horiz-adv-x="235" 
d="M184 504v-504h-132v504h132zM209 629q0 -37 -27 -63.5t-65 -26.5t-64.5 26.5t-26.5 63.5q0 39 26.5 65.5t64.5 26.5t65 -26.5t27 -65.5z" />
    <glyph glyph-name="cent" unicode="&#xa2;" horiz-adv-x="361" 
d="M244 -97h-120v108q-49 29 -75.5 97t-26.5 150q0 81 26.5 149t75.5 97v109h120v-106q38 -16 61.5 -52t39.5 -95l-121 -32q-17 68 -38 68q-19 0 -30 -45.5t-11 -93.5t10.5 -93t30.5 -45q21 0 38 68l121 -33q-33 -118 -101 -146v-105z" />
    <glyph glyph-name="sterling" unicode="&#xa3;" horiz-adv-x="411" 
d="M150 132h230v-132h-370v125q19 29 24.5 55.5t8.5 84.5l9 140q3 50 7.5 87t17 83t30.5 75t50 49.5t75 20.5q94 0 179 -143l-111 -69q-51 80 -69 80q-38 0 -48 -188h126v-132h-137q-7 -89 -22 -136z" />
    <glyph glyph-name="currency" unicode="&#xa4;" horiz-adv-x="444" 
d="M8 64l63 112q-19 63 -19 128q0 64 19 129l-63 112l117 66l29 -53q32 27 69 27q35 0 66 -26l29 52l117 -66l-63 -111q19 -60 19 -130q0 -65 -19 -130l63 -110l-116 -65l-30 50q-31 -26 -66 -26q-36 0 -69 27l-29 -51zM223 144q22 0 34.5 47.5t12.5 112.5q0 66 -12.5 113.5
t-34.5 47.5q-24 0 -37 -47.5t-13 -114.5q0 -65 13.5 -112t36.5 -47z" />
    <glyph glyph-name="yen" unicode="&#xa5;" horiz-adv-x="436" 
d="M59 83v110h89l-8 27h-81v113h51l-106 379h138l76 -296l76 296h138l-106 -379h52v-113h-82l-8 -27h90v-110h-94v-83h-132v83h-93z" />
    <glyph glyph-name="brokenbar" unicode="&#xa6;" horiz-adv-x="236" 
d="M51 379v410h133v-410h-133zM51 -135v410h133v-410h-133z" />
    <glyph glyph-name="section" unicode="&#xa7;" horiz-adv-x="426" 
d="M28 -57l88 99q64 -56 102 -56q24 0 36.5 18t12.5 46q0 29 -18.5 52t-45.5 38.5t-59.5 37t-59.5 45t-45.5 64.5t-18.5 94q0 81 53 139q-47 57 -47 137q0 84 51.5 141t129.5 57q85 0 190 -90l-88 -99q-66 57 -102 57q-24 0 -36.5 -19t-12.5 -47t18.5 -51.5t46 -38.5
t59.5 -36.5t59.5 -45t46 -64.5t18.5 -94q0 -84 -54 -140q48 -57 48 -135q-1 -85 -52.5 -142t-129.5 -57q-84 0 -190 90zM252 266q24 16 24 57q0 19 -6.5 35t-22.5 30.5t-27 22.5t-35 23q-7 5 -11 7q-25 -16 -25 -56q0 -21 7.5 -38t25 -32.5t30 -24t40.5 -24.5z" />
    <glyph glyph-name="dieresis" unicode="&#xa8;" horiz-adv-x="373" 
d="M94 754q-36 0 -60 25t-24 61t24 60.5t60 24.5q34 0 58.5 -25t24.5 -60q0 -36 -24 -61t-59 -25zM278 754q-35 0 -58.5 25t-23.5 61t23.5 60.5t58.5 24.5t60 -25t25 -60q0 -36 -25 -61t-60 -25z" />
    <glyph glyph-name="copyright" unicode="&#xa9;" horiz-adv-x="798" 
d="M406 221q76 0 121 78l86 -45q-30 -59 -86 -94t-121 -35q-96 0 -163.5 67.5t-67.5 163.5t67.5 162.5t163.5 66.5q65 0 121 -35t86 -93l-87 -44q-19 33 -51 54t-69 21q-55 0 -93.5 -38.5t-38.5 -93.5t39 -95t93 -40zM398 60q123 0 210 86.5t87 208.5q0 123 -87 208.5
t-210 85.5q-122 0 -208 -85.5t-86 -208.5q0 -122 86.5 -208.5t207.5 -86.5zM398 736q158 0 269.5 -111.5t111.5 -269.5q0 -157 -111.5 -268t-269.5 -111q-156 0 -267.5 111t-111.5 268t111.5 269t267.5 112z" />
    <glyph glyph-name="guillemotleft" unicode="&#xab;" horiz-adv-x="371" 
d="M254 124l-98 232l97 239l108 -44q-14 -33 -43 -97.5t-43 -97.5l87 -189zM101 118l-96 238l96 243l108 -42l-86 -201l86 -195q-72 -28 -108 -43z" />
    <glyph glyph-name="registered" unicode="&#xae;" horiz-adv-x="389" 
d="M195 398q60 0 97.5 37t37.5 97t-37 97.5t-98 37.5q-59 0 -97 -37.5t-38 -97.5t37.5 -97t97.5 -37zM6 532q0 79 55 133.5t134 54.5t133.5 -54.5t54.5 -133.5q0 -78 -54.5 -132.5t-133.5 -54.5t-134 55t-55 132zM166 531h39q25 0 25 19q0 22 -27 22h-37v-41zM110 436v193
h95q35 0 59.5 -23t24.5 -57q0 -41 -37 -60q31 -47 35 -53h-69q-3 5 -26 41h-26v-41h-56z" />
    <glyph glyph-name="macron" unicode="&#xaf;" horiz-adv-x="275" 
d="M11 765v119h253v-119h-253z" />
    <glyph glyph-name="degree" unicode="&#xb0;" horiz-adv-x="287" 
d="M143 449q-58 0 -97 39t-39 97q0 57 39 96t97 39t97 -39t39 -96q0 -58 -39 -97t-97 -39zM143 535q20 0 34.5 14.5t14.5 35.5q0 20 -14.5 34t-34.5 14t-34 -14t-14 -34q0 -21 14 -35.5t34 -14.5z" />
    <glyph glyph-name="plusminus" unicode="&#xb1;" horiz-adv-x="361" 
d="M21 338v126h95v98h128v-98h95v-126h-95v-96h-128v96h-95zM339 85h-318v127h318v-127z" />
    <glyph glyph-name="acute" unicode="&#xb4;" horiz-adv-x="248" 
d="M11 792l125 185l101 -74l-137 -174z" />
    <glyph glyph-name="mu" unicode="&#xb5;" horiz-adv-x="396" 
d="M36 -240v764h122v-326q0 -36 12 -55.5t27 -19.5q16 0 28 19.5t12 55.5v326h123v-524h-123v25q-17 -19 -44 -19q-18 0 -35 12v-258h-122z" />
    <glyph glyph-name="paragraph" unicode="&#xb6;" horiz-adv-x="483" 
d="M183 0v164q-67 10 -114.5 83.5t-47.5 185.5q0 121 55 200t128 79h229v-712h-109v598h-32v-598h-109z" />
    <glyph glyph-name="periodcentered" unicode="&#xb7;" horiz-adv-x="200" 
d="M9 356q0 38 26 64.5t65 26.5q38 0 64.5 -26.5t26.5 -64.5q0 -37 -26.5 -63.5t-64.5 -26.5q-39 0 -65 26t-26 64z" />
    <glyph glyph-name="cedilla" unicode="&#xb8;" horiz-adv-x="250" 
d="M12 -224q28 56 43 84q38 -24 63 -24q17 0 27 9t10 22q0 11 -7 18.5t-19 7.5q-19 0 -41 -12l-30 68q41 25 77 25q48 0 76 -31.5t28 -80.5q0 -51 -33 -86.5t-91 -35.5q-51 0 -103 36z" />
    <glyph glyph-name="guillemotright" unicode="&#xbb;" horiz-adv-x="369" 
d="M214 356l-97 -232l-108 43l87 189l-87 195l108 44zM366 356l-97 -238q-7 3 -107 43l85 195l-85 201l108 42z" />
    <glyph glyph-name="questiondown" unicode="&#xbf;" horiz-adv-x="404" 
d="M215 538q-37 0 -64 26.5t-27 63.5q0 39 26.5 65.5t64.5 26.5q39 0 65 -26.5t26 -65.5q0 -37 -26 -63.5t-65 -26.5zM200 -9q-78 0 -130 76.5t-52 190.5t54 182.5t166 68.5h55v-130h-56q-86 0 -86 -120q0 -58 15 -99t34 -41q6 0 10 1t12 10.5t14.5 26.5t15.5 52t16 84
l132 -21q-7 -46 -15 -81t-23.5 -75t-36 -65.5t-52.5 -42.5t-73 -17z" />
    <glyph glyph-name="Agrave" unicode="&#xc0;" horiz-adv-x="477" 
d="M0 0l173 712h130l174 -712h-135l-15 65h-178l-15 -65h-134zM179 195h119l-60 285zM235 733l-137 174l100 74l126 -185z" />
    <glyph glyph-name="Aacute" unicode="&#xc1;" horiz-adv-x="477" 
d="M0 0l173 712h130l174 -712h-135l-15 65h-178l-15 -65h-134zM179 195h119l-60 285zM151 792l125 185l101 -74l-137 -174z" />
    <glyph glyph-name="Acircumflex" unicode="&#xc2;" horiz-adv-x="477" 
d="M0 0l173 712h130l174 -712h-135l-15 65h-178l-15 -65h-134zM179 195h119l-60 285zM86 807l150 169l153 -169l-89 -76l-63 82l-62 -81z" />
    <glyph glyph-name="Atilde" unicode="&#xc3;" horiz-adv-x="477" 
d="M0 0l173 712h130l174 -712h-135l-15 65h-178l-15 -65h-134zM179 195h119l-60 285zM164 750l-105 48q58 133 133 133q20 0 35 -9t22 -20.5t14 -20.5t13 -9q11 0 35 54l105 -48q-57 -132 -130 -132q-21 0 -36.5 9t-23 20.5t-15 20.5t-13.5 9q-10 0 -34 -55z" />
    <glyph glyph-name="Adieresis" unicode="&#xc4;" horiz-adv-x="477" 
d="M0 0l173 712h130l174 -712h-135l-15 65h-178l-15 -65h-134zM179 195h119l-60 285zM145 754q-36 0 -60 25t-24 61t24 60.5t60 24.5q34 0 58.5 -25t24.5 -60q0 -36 -24 -61t-59 -25zM329 754q-35 0 -58.5 25t-23.5 61t23.5 60.5t58.5 24.5t60 -25t25 -60q0 -36 -25 -61
t-60 -25z" />
    <glyph glyph-name="Aring" unicode="&#xc5;" horiz-adv-x="477" 
d="M0 0l173 712h130l174 -712h-135l-15 65h-178l-15 -65h-134zM179 195h119l-60 285zM202 862q0 -14 10.5 -24.5t24.5 -10.5t24.5 10.5t10.5 24.5t-10.5 24.5t-24.5 10.5t-24.5 -10.5t-10.5 -24.5zM109 862q0 53 37.5 90.5t90.5 37.5t90.5 -37.5t37.5 -90.5t-37.5 -90
t-90.5 -37t-90.5 37t-37.5 90z" />
    <glyph glyph-name="AE" unicode="&#xc6;" horiz-adv-x="639" 
d="M0 0l213 712h396v-133h-198v-156h136v-132h-136v-159h198v-132h-323v79h-125l-22 -79h-139zM195 209h91v334z" />
    <glyph glyph-name="Ccedilla" unicode="&#xc7;" horiz-adv-x="749" 
d="M617 244l120 -63q-48 -93 -138 -149t-200 -56q-157 0 -268.5 111.5t-111.5 269.5q0 156 111.5 267.5t268.5 111.5q109 0 200 -56.5t138 -149.5l-120 -61q-31 60 -89 96t-129 36q-101 0 -173 -72t-72 -172q0 -102 72 -174.5t173 -72.5q70 0 128.5 36.5t89.5 97.5z
M277 -242q28 56 43 84q38 -24 63 -24q17 0 27 9t10 22q0 11 -7 18.5t-19 7.5q-18 0 -41 -12l-30 68q41 25 77 25q48 0 76 -31.5t28 -80.5q0 -51 -33 -86.5t-91 -35.5q-50 0 -103 36z" />
    <glyph glyph-name="Egrave" unicode="&#xc8;" horiz-adv-x="416" 
d="M50 0v712h336v-133h-202v-156h139v-132h-139v-159h202v-132h-336zM216 733l-137 174l100 74l126 -185z" />
    <glyph glyph-name="Eacute" unicode="&#xc9;" horiz-adv-x="416" 
d="M50 0v712h336v-133h-202v-156h139v-132h-139v-159h202v-132h-336zM132 792l125 185l101 -74l-137 -174z" />
    <glyph glyph-name="Ecircumflex" unicode="&#xca;" horiz-adv-x="416" 
d="M50 0v712h336v-133h-202v-156h139v-132h-139v-159h202v-132h-336zM66 807l150 169l153 -169l-89 -76l-63 82l-62 -81z" />
    <glyph glyph-name="Edieresis" unicode="&#xcb;" horiz-adv-x="416" 
d="M50 0v712h336v-133h-202v-156h139v-132h-139v-159h202v-132h-336zM125 754q-36 0 -60 25t-24 61t24 60.5t60 24.5q34 0 58.5 -25t24.5 -60q0 -36 -24 -61t-59 -25zM309 754q-35 0 -58.5 25t-23.5 61t23.5 60.5t58.5 24.5t60 -25t25 -60q0 -36 -25 -61t-60 -25z" />
    <glyph glyph-name="Igrave" unicode="&#xcc;" horiz-adv-x="236" 
d="M50 0v712h135v-712h-135zM115 737l-137 174l100 74l126 -185z" />
    <glyph glyph-name="Iacute" unicode="&#xcd;" horiz-adv-x="236" 
d="M50 0v712h135v-712h-135zM31 792l125 185l101 -74l-137 -174z" />
    <glyph glyph-name="Icircumflex" unicode="&#xce;" horiz-adv-x="236" 
d="M50 0v712h135v-712h-135zM-34 811l150 169l153 -169l-89 -76l-63 82l-62 -81z" />
    <glyph glyph-name="Idieresis" unicode="&#xcf;" horiz-adv-x="236" 
d="M50 0v712h135v-712h-135zM25 758q-36 0 -60 25t-24 61t24 60.5t60 24.5q34 0 58.5 -25t24.5 -60q0 -36 -24 -61t-59 -25zM209 758q-35 0 -58.5 25t-23.5 61t23.5 60.5t58.5 24.5t60 -25t25 -60q0 -36 -25 -61t-60 -25z" />
    <glyph glyph-name="Eth" unicode="&#xd0;" horiz-adv-x="466" 
d="M5 292v131h43v289h179q69 0 120 -52.5t74.5 -132t23.5 -171.5q0 -93 -23.5 -172t-74 -131.5t-120.5 -52.5h-179v292h-43zM180 132h50q38 0 60 66.5t22 157.5q0 90 -22 156.5t-60 66.5h-50v-156h71v-131h-71v-160z" />
    <glyph glyph-name="Ntilde" unicode="&#xd1;" horiz-adv-x="523" 
d="M472 712v-712h-135l-156 418v-418h-131v712h135q53 -139 157 -417v417h130zM188 750l-105 48q58 133 133 133q20 0 35 -9t22 -20.5t14 -20.5t13 -9q11 0 35 54l105 -48q-57 -132 -130 -132q-21 0 -36.5 9t-23 20.5t-15 20.5t-13.5 9q-10 0 -34 -55z" />
    <glyph glyph-name="Ograve" unicode="&#xd2;" 
d="M19 357q0 156 111.5 267.5t268.5 111.5t269 -111.5t112 -267.5q0 -158 -111.5 -269.5t-269.5 -111.5q-157 0 -268.5 111.5t-111.5 269.5zM645 357q0 101 -72 172.5t-174 71.5q-101 0 -173 -72t-72 -172q0 -102 72 -174.5t173 -72.5q102 0 174 72.5t72 174.5zM397 749
l-137 174l100 74l126 -185z" />
    <glyph glyph-name="Oacute" unicode="&#xd3;" 
d="M19 357q0 156 111.5 267.5t268.5 111.5t269 -111.5t112 -267.5q0 -158 -111.5 -269.5t-269.5 -111.5q-157 0 -268.5 111.5t-111.5 269.5zM645 357q0 101 -72 172.5t-174 71.5q-101 0 -173 -72t-72 -172q0 -102 72 -174.5t173 -72.5q102 0 174 72.5t72 174.5zM313 808
l125 185l101 -74l-137 -174z" />
    <glyph glyph-name="Ocircumflex" unicode="&#xd4;" 
d="M19 357q0 156 111.5 267.5t268.5 111.5t269 -111.5t112 -267.5q0 -158 -111.5 -269.5t-269.5 -111.5q-157 0 -268.5 111.5t-111.5 269.5zM645 357q0 101 -72 172.5t-174 71.5q-101 0 -173 -72t-72 -172q0 -102 72 -174.5t173 -72.5q102 0 174 72.5t72 174.5zM248 823
l150 169l153 -169l-89 -76l-63 82l-62 -81z" />
    <glyph glyph-name="Otilde" unicode="&#xd5;" 
d="M19 357q0 156 111.5 267.5t268.5 111.5t269 -111.5t112 -267.5q0 -158 -111.5 -269.5t-269.5 -111.5q-157 0 -268.5 111.5t-111.5 269.5zM645 357q0 101 -72 172.5t-174 71.5q-101 0 -173 -72t-72 -172q0 -102 72 -174.5t173 -72.5q102 0 174 72.5t72 174.5zM325 766
l-105 48q58 133 133 133q20 0 35 -9t22 -20.5t14 -20.5t13 -9q11 0 35 54l105 -48q-57 -132 -130 -132q-21 0 -36.5 9t-23 20.5t-15 20.5t-13.5 9q-10 0 -34 -55z" />
    <glyph glyph-name="Odieresis" unicode="&#xd6;" 
d="M19 357q0 156 111.5 267.5t268.5 111.5t269 -111.5t112 -267.5q0 -158 -111.5 -269.5t-269.5 -111.5q-157 0 -268.5 111.5t-111.5 269.5zM645 357q0 101 -72 172.5t-174 71.5q-101 0 -173 -72t-72 -172q0 -102 72 -174.5t173 -72.5q102 0 174 72.5t72 174.5zM307 770
q-36 0 -60 25t-24 61t24 60.5t60 24.5q34 0 58.5 -25t24.5 -60q0 -36 -24 -61t-59 -25zM491 770q-35 0 -58.5 25t-23.5 61t23.5 60.5t58.5 24.5t60 -25t25 -60q0 -36 -25 -61t-60 -25z" />
    <glyph glyph-name="multiply" unicode="&#xd7;" horiz-adv-x="353" 
d="M109 190q-10 10 -28.5 29t-34 34.5t-29.5 28.5l71 67l-71 67q13 14 28.5 29t34.5 34l29 29l67 -72l68 73l92 -93l-72 -68l71 -66l-91 -92l-68 71z" />
    <glyph glyph-name="Oslash" unicode="&#xd8;" 
d="M400 111q101 0 172.5 72t71.5 173q0 63 -27.5 115.5t-74.5 85.5l-174 -443q15 -3 32 -3zM400 602q-102 0 -174 -72.5t-72 -173.5q0 -60 28.5 -113.5t73.5 -85.5q76 188 175 442q-15 3 -31 3zM619 754l-27 -71q86 -51 137 -137.5t51 -188.5q0 -157 -110.5 -267.5
t-265.5 -110.5q-43 0 -85 10l-12 -29h-127l27 70q-86 51 -137 137.5t-51 188.5q0 157 110.5 268t265.5 111q41 0 85 -11q8 20 11 30h128z" />
    <glyph glyph-name="Ugrave" unicode="&#xd9;" horiz-adv-x="492" 
d="M48 255v457h133v-457q0 -65 19 -98t45 -33t46 32.5t20 98.5v457h132v-457q0 -130 -58.5 -197t-139.5 -67q-82 0 -139.5 67.5t-57.5 196.5zM242 737l-137 174l100 74l126 -185z" />
    <glyph glyph-name="Uacute" unicode="&#xda;" horiz-adv-x="492" 
d="M48 255v457h133v-457q0 -65 19 -98t45 -33t46 32.5t20 98.5v457h132v-457q0 -130 -58.5 -197t-139.5 -67q-82 0 -139.5 67.5t-57.5 196.5zM158 792l125 185l101 -74l-137 -174z" />
    <glyph glyph-name="Ucircumflex" unicode="&#xdb;" horiz-adv-x="492" 
d="M48 255v457h133v-457q0 -65 19 -98t45 -33t46 32.5t20 98.5v457h132v-457q0 -130 -58.5 -197t-139.5 -67q-82 0 -139.5 67.5t-57.5 196.5zM94 811l150 169l153 -169l-89 -76l-63 82l-62 -81z" />
    <glyph glyph-name="Udieresis" unicode="&#xdc;" horiz-adv-x="492" 
d="M48 255v457h133v-457q0 -65 19 -98t45 -33t46 32.5t20 98.5v457h132v-457q0 -130 -58.5 -197t-139.5 -67q-82 0 -139.5 67.5t-57.5 196.5zM153 758q-36 0 -60 25t-24 61t24 60.5t60 24.5q34 0 58.5 -25t24.5 -60q0 -36 -24 -61t-59 -25zM337 758q-35 0 -58.5 25t-23.5 61
t23.5 60.5t58.5 24.5t60 -25t25 -60q0 -36 -25 -61t-60 -25z" />
    <glyph glyph-name="Yacute" unicode="&#xdd;" horiz-adv-x="437" 
d="M152 0v165l-147 547h138l75 -322l76 322h138l-148 -547v-165h-132zM132 792l125 185l101 -74l-137 -174z" />
    <glyph glyph-name="Thorn" unicode="&#xde;" horiz-adv-x="454" 
d="M50 0v712h133v-78h56q62 0 107.5 -41t66.5 -103.5t21 -134.5q0 -115 -51.5 -197t-144.5 -82h-55v-76h-133zM183 208h54q32 0 48.5 43.5t16.5 103.5t-18 103t-50 43h-51v-293z" />
    <glyph glyph-name="germandbls" unicode="&#xdf;" horiz-adv-x="519" 
d="M44 0v305q0 415 225 415q78 0 136.5 -63.5t83.5 -149.5l-114 -106q122 -78 122 -218q0 -83 -43.5 -137t-118.5 -54q-67 0 -148 76q10 11 27 30.5t31.5 35.5t26.5 31q39 -39 60 -39q36 0 36 55q0 113 -137 149v96l116 114q-26 49 -69 49q-25 0 -44 -13t-30 -40
t-17.5 -50.5t-9 -63.5t-3 -58t-0.5 -54v-310h-130z" />
    <glyph glyph-name="agrave" unicode="&#xe0;" horiz-adv-x="477" 
d="M0 0l173 712h130l174 -712h-135l-15 65h-178l-15 -65h-134zM179 195h119l-60 285zM235 733l-137 174l100 74l126 -185z" />
    <glyph glyph-name="aacute" unicode="&#xe1;" horiz-adv-x="477" 
d="M0 0l173 712h130l174 -712h-135l-15 65h-178l-15 -65h-134zM179 195h119l-60 285zM151 792l125 185l101 -74l-137 -174z" />
    <glyph glyph-name="acircumflex" unicode="&#xe2;" horiz-adv-x="477" 
d="M0 0l173 712h130l174 -712h-135l-15 65h-178l-15 -65h-134zM179 195h119l-60 285zM87 807l150 169l153 -169l-89 -76l-63 82l-62 -81z" />
    <glyph glyph-name="atilde" unicode="&#xe3;" horiz-adv-x="477" 
d="M0 0l173 712h130l174 -712h-135l-15 65h-178l-15 -65h-134zM179 195h119l-60 285zM164 750l-105 48q58 133 133 133q20 0 35 -9t22 -20.5t14 -20.5t13 -9q11 0 35 54l105 -48q-57 -132 -130 -132q-21 0 -36.5 9t-23 20.5t-15 20.5t-13.5 9q-10 0 -34 -55z" />
    <glyph glyph-name="adieresis" unicode="&#xe4;" horiz-adv-x="477" 
d="M0 0l173 712h130l174 -712h-135l-15 65h-178l-15 -65h-134zM179 195h119l-60 285zM145 754q-36 0 -60 25t-24 61t24 60.5t60 24.5q34 0 58.5 -25t24.5 -60q0 -36 -24 -61t-59 -25zM329 754q-35 0 -58.5 25t-23.5 61t23.5 60.5t58.5 24.5t60 -25t25 -60q0 -36 -25 -61
t-60 -25z" />
    <glyph glyph-name="aring" unicode="&#xe5;" horiz-adv-x="477" 
d="M0 0l173 712h130l174 -712h-135l-15 65h-178l-15 -65h-134zM179 195h119l-60 285zM202 862q0 -14 10.5 -24.5t24.5 -10.5t24.5 10.5t10.5 24.5t-10.5 24.5t-24.5 10.5t-24.5 -10.5t-10.5 -24.5zM109 862q0 53 37.5 90.5t90.5 37.5t90.5 -37.5t37.5 -90.5t-37.5 -90
t-90.5 -37t-90.5 37t-37.5 90z" />
    <glyph glyph-name="ae" unicode="&#xe6;" horiz-adv-x="639" 
d="M0 0l213 712h396v-133h-198v-156h136v-132h-136v-159h198v-132h-323v79h-125l-22 -79h-139zM195 209h91v334z" />
    <glyph glyph-name="ccedilla" unicode="&#xe7;" horiz-adv-x="749" 
d="M617 244l120 -63q-48 -93 -138 -149t-200 -56q-157 0 -268.5 111.5t-111.5 269.5q0 156 111.5 267.5t268.5 111.5q109 0 200 -56.5t138 -149.5l-120 -61q-31 60 -89 96t-129 36q-101 0 -173 -72t-72 -172q0 -102 72 -174.5t173 -72.5q70 0 128.5 36.5t89.5 97.5z
M277 -242q28 56 43 84q38 -24 63 -24q17 0 27 9t10 22q0 11 -7 18.5t-19 7.5q-18 0 -41 -12l-30 68q41 25 77 25q48 0 76 -31.5t28 -80.5q0 -51 -33 -86.5t-91 -35.5q-50 0 -103 36z" />
    <glyph glyph-name="egrave" unicode="&#xe8;" horiz-adv-x="416" 
d="M50 0v712h336v-133h-202v-156h139v-132h-139v-159h202v-132h-336zM216 733l-137 174l100 74l126 -185z" />
    <glyph glyph-name="eacute" unicode="&#xe9;" horiz-adv-x="416" 
d="M50 0v712h336v-133h-202v-156h139v-132h-139v-159h202v-132h-336zM132 792l125 185l101 -74l-137 -174z" />
    <glyph glyph-name="ecircumflex" unicode="&#xea;" horiz-adv-x="416" 
d="M50 0v712h336v-133h-202v-156h139v-132h-139v-159h202v-132h-336zM66 807l150 169l153 -169l-89 -76l-63 82l-62 -81z" />
    <glyph glyph-name="edieresis" unicode="&#xeb;" horiz-adv-x="416" 
d="M50 0v712h336v-133h-202v-156h139v-132h-139v-159h202v-132h-336zM125 754q-36 0 -60 25t-24 61t24 60.5t60 24.5q34 0 58.5 -25t24.5 -60q0 -36 -24 -61t-59 -25zM309 754q-35 0 -58.5 25t-23.5 61t23.5 60.5t58.5 24.5t60 -25t25 -60q0 -36 -25 -61t-60 -25z" />
    <glyph glyph-name="igrave" unicode="&#xec;" horiz-adv-x="236" 
d="M50 0v712h135v-712h-135zM115 737l-137 174l100 74l126 -185z" />
    <glyph glyph-name="iacute" unicode="&#xed;" horiz-adv-x="236" 
d="M50 0v712h135v-712h-135zM31 792l125 185l101 -74l-137 -174z" />
    <glyph glyph-name="icircumflex" unicode="&#xee;" horiz-adv-x="236" 
d="M50 0v712h135v-712h-135zM-34 811l150 169l153 -169l-89 -76l-63 82l-62 -81z" />
    <glyph glyph-name="idieresis" unicode="&#xef;" horiz-adv-x="236" 
d="M50 0v712h135v-712h-135zM25 758q-36 0 -60 25t-24 61t24 60.5t60 24.5q34 0 58.5 -25t24.5 -60q0 -36 -24 -61t-59 -25zM209 758q-35 0 -58.5 25t-23.5 61t23.5 60.5t58.5 24.5t60 -25t25 -60q0 -36 -25 -61t-60 -25z" />
    <glyph glyph-name="eth" unicode="&#xf0;" horiz-adv-x="466" 
d="M5 292v131h43v289h179q69 0 120 -52.5t74.5 -132t23.5 -171.5q0 -93 -23.5 -172t-74 -131.5t-120.5 -52.5h-179v292h-43zM180 132h50q38 0 60 66.5t22 157.5q0 90 -22 156.5t-60 66.5h-50v-156h71v-131h-71v-160z" />
    <glyph glyph-name="ntilde" unicode="&#xf1;" horiz-adv-x="523" 
d="M472 712v-712h-135l-156 418v-418h-131v712h135q53 -139 157 -417v417h130zM188 750l-105 48q58 133 133 133q20 0 35 -9t22 -20.5t14 -20.5t13 -9q11 0 35 54l105 -48q-57 -132 -130 -132q-21 0 -36.5 9t-23 20.5t-15 20.5t-13.5 9q-10 0 -34 -55z" />
    <glyph glyph-name="ograve" unicode="&#xf2;" 
d="M19 357q0 156 111.5 267.5t268.5 111.5t269 -111.5t112 -267.5q0 -158 -111.5 -269.5t-269.5 -111.5q-157 0 -268.5 111.5t-111.5 269.5zM645 357q0 101 -72 172.5t-174 71.5q-101 0 -173 -72t-72 -172q0 -102 72 -174.5t173 -72.5q102 0 174 72.5t72 174.5zM397 749
l-137 174l100 74l126 -185z" />
    <glyph glyph-name="oacute" unicode="&#xf3;" 
d="M19 357q0 156 111.5 267.5t268.5 111.5t269 -111.5t112 -267.5q0 -158 -111.5 -269.5t-269.5 -111.5q-157 0 -268.5 111.5t-111.5 269.5zM645 357q0 101 -72 172.5t-174 71.5q-101 0 -173 -72t-72 -172q0 -102 72 -174.5t173 -72.5q102 0 174 72.5t72 174.5zM313 808
l125 185l101 -74l-137 -174z" />
    <glyph glyph-name="ocircumflex" unicode="&#xf4;" 
d="M19 357q0 156 111.5 267.5t268.5 111.5t269 -111.5t112 -267.5q0 -158 -111.5 -269.5t-269.5 -111.5q-157 0 -268.5 111.5t-111.5 269.5zM645 357q0 101 -72 172.5t-174 71.5q-101 0 -173 -72t-72 -172q0 -102 72 -174.5t173 -72.5q102 0 174 72.5t72 174.5zM248 823
l150 169l153 -169l-89 -76l-63 82l-62 -81z" />
    <glyph glyph-name="otilde" unicode="&#xf5;" 
d="M19 357q0 156 111.5 267.5t268.5 111.5t269 -111.5t112 -267.5q0 -158 -111.5 -269.5t-269.5 -111.5q-157 0 -268.5 111.5t-111.5 269.5zM645 357q0 101 -72 172.5t-174 71.5q-101 0 -173 -72t-72 -172q0 -102 72 -174.5t173 -72.5q102 0 174 72.5t72 174.5zM325 766
l-105 48q58 133 133 133q20 0 35 -9t22 -20.5t14 -20.5t13 -9q11 0 35 54l105 -48q-57 -132 -130 -132q-21 0 -36.5 9t-23 20.5t-15 20.5t-13.5 9q-10 0 -34 -55z" />
    <glyph glyph-name="odieresis" unicode="&#xf6;" 
d="M19 357q0 156 111.5 267.5t268.5 111.5t269 -111.5t112 -267.5q0 -158 -111.5 -269.5t-269.5 -111.5q-157 0 -268.5 111.5t-111.5 269.5zM645 357q0 101 -72 172.5t-174 71.5q-101 0 -173 -72t-72 -172q0 -102 72 -174.5t173 -72.5q102 0 174 72.5t72 174.5zM307 770
q-36 0 -60 25t-24 61t24 60.5t60 24.5q34 0 58.5 -25t24.5 -60q0 -36 -24 -61t-59 -25zM491 770q-35 0 -58.5 25t-23.5 61t23.5 60.5t58.5 24.5t60 -25t25 -60q0 -36 -25 -61t-60 -25z" />
    <glyph glyph-name="divide" unicode="&#xf7;" horiz-adv-x="342" 
d="M325 288h-308v129h308v-129zM84 531q0 36 25 61.5t62 25.5q36 0 61.5 -25.5t25.5 -61.5t-25.5 -60t-61.5 -24q-37 0 -62 24t-25 60zM84 173q0 36 25 61t62 25q36 0 61.5 -25t25.5 -61t-25.5 -61t-61.5 -25q-37 0 -62 25t-25 61z" />
    <glyph glyph-name="oslash" unicode="&#xf8;" 
d="M400 111q101 0 172.5 72t71.5 173q0 63 -27.5 115.5t-74.5 85.5l-174 -443q15 -3 32 -3zM400 602q-102 0 -174 -72.5t-72 -173.5q0 -60 28.5 -113.5t73.5 -85.5q76 188 175 442q-15 3 -31 3zM619 754l-27 -71q86 -51 137 -137.5t51 -188.5q0 -157 -110.5 -267.5
t-265.5 -110.5q-43 0 -85 10l-12 -29h-127l27 70q-86 51 -137 137.5t-51 188.5q0 157 110.5 268t265.5 111q41 0 85 -11q8 20 11 30h128z" />
    <glyph glyph-name="ugrave" unicode="&#xf9;" horiz-adv-x="492" 
d="M48 255v457h133v-457q0 -65 19 -98t45 -33t46 32.5t20 98.5v457h132v-457q0 -130 -58.5 -197t-139.5 -67q-82 0 -139.5 67.5t-57.5 196.5zM242 737l-137 174l100 74l126 -185z" />
    <glyph glyph-name="uacute" unicode="&#xfa;" horiz-adv-x="492" 
d="M48 255v457h133v-457q0 -65 19 -98t45 -33t46 32.5t20 98.5v457h132v-457q0 -130 -58.5 -197t-139.5 -67q-82 0 -139.5 67.5t-57.5 196.5zM158 792l125 185l101 -74l-137 -174z" />
    <glyph glyph-name="ucircumflex" unicode="&#xfb;" horiz-adv-x="492" 
d="M48 255v457h133v-457q0 -65 19 -98t45 -33t46 32.5t20 98.5v457h132v-457q0 -130 -58.5 -197t-139.5 -67q-82 0 -139.5 67.5t-57.5 196.5zM94 811l150 169l153 -169l-89 -76l-63 82l-62 -81z" />
    <glyph glyph-name="udieresis" unicode="&#xfc;" horiz-adv-x="492" 
d="M48 255v457h133v-457q0 -65 19 -98t45 -33t46 32.5t20 98.5v457h132v-457q0 -130 -58.5 -197t-139.5 -67q-82 0 -139.5 67.5t-57.5 196.5zM153 758q-36 0 -60 25t-24 61t24 60.5t60 24.5q34 0 58.5 -25t24.5 -60q0 -36 -24 -61t-59 -25zM337 758q-35 0 -58.5 25t-23.5 61
t23.5 60.5t58.5 24.5t60 -25t25 -60q0 -36 -25 -61t-60 -25z" />
    <glyph glyph-name="yacute" unicode="&#xfd;" horiz-adv-x="437" 
d="M152 0v165l-147 547h138l75 -322l76 322h138l-148 -547v-165h-132zM132 792l125 185l101 -74l-137 -174z" />
    <glyph glyph-name="thorn" unicode="&#xfe;" horiz-adv-x="454" 
d="M50 0v712h133v-78h56q62 0 107.5 -41t66.5 -103.5t21 -134.5q0 -115 -51.5 -197t-144.5 -82h-55v-76h-133zM183 208h54q32 0 48.5 43.5t16.5 103.5t-18 103t-50 43h-51v-293z" />
    <glyph glyph-name="ydieresis" unicode="&#xff;" horiz-adv-x="437" 
d="M152 0v165l-147 547h138l75 -322l76 322h138l-148 -547v-165h-132zM126 754q-36 0 -60 25t-24 61t24 60.5t60 24.5q34 0 58.5 -25t24.5 -60q0 -36 -24 -61t-59 -25zM310 754q-35 0 -58.5 25t-23.5 61t23.5 60.5t58.5 24.5t60 -25t25 -60q0 -36 -25 -61t-60 -25z" />
    <glyph glyph-name="Amacron" unicode="&#x100;" horiz-adv-x="477" 
d="M0 0l173 712h130l174 -712h-135l-15 65h-178l-15 -65h-134zM179 195h119l-60 285zM111 765v119h253v-119h-253z" />
    <glyph glyph-name="amacron" unicode="&#x101;" horiz-adv-x="477" 
d="M0 0l173 712h130l174 -712h-135l-15 65h-178l-15 -65h-134zM179 195h119l-60 285zM111 765v119h253v-119h-253z" />
    <glyph glyph-name="Abreve" unicode="&#x102;" horiz-adv-x="477" 
d="M0 0l173 712h130l174 -712h-135l-15 65h-178l-15 -65h-134zM179 195h119l-60 285zM84 913l109 40q2 -5 7.5 -22t9 -26.5t8.5 -21.5t10 -18t9 -6q5 0 9.5 6t10 18t9 22t9.5 26t8 23l109 -42q-65 -169 -154 -169q-91 0 -154 170z" />
    <glyph glyph-name="abreve" unicode="&#x103;" horiz-adv-x="477" 
d="M0 0l173 712h130l174 -712h-135l-15 65h-178l-15 -65h-134zM179 195h119l-60 285zM84 913l109 40q2 -5 7.5 -22t9 -26.5t8.5 -21.5t10 -18t9 -6q5 0 9.5 6t10 18t9 22t9.5 26t8 23l109 -42q-65 -169 -154 -169q-91 0 -154 170z" />
    <glyph glyph-name="Aogonek" unicode="&#x104;" horiz-adv-x="477" 
d="M485 -51l54 -85q-65 -52 -125 -52q-48 0 -78.5 31t-30.5 76q0 49 37 84l-14 62h-179l-15 -65h-134l173 712h130l174 -712h-1q-77 -37 -77 -68q0 -16 16 -16q15 0 70 33zM179 195h119l-60 285z" />
    <glyph glyph-name="aogonek" unicode="&#x105;" horiz-adv-x="477" 
d="M485 -51l54 -85q-65 -52 -125 -52q-48 0 -78.5 31t-30.5 76q0 49 37 84l-14 62h-179l-15 -65h-134l173 712h130l174 -712h-1q-77 -37 -77 -68q0 -16 16 -16q15 0 70 33zM179 195h119l-60 285z" />
    <glyph glyph-name="Cacute" unicode="&#x106;" horiz-adv-x="749" 
d="M617 244l120 -63q-48 -93 -138 -149t-200 -56q-157 0 -268.5 111.5t-111.5 269.5q0 156 111.5 267.5t268.5 111.5q109 0 200 -56.5t138 -149.5l-120 -61q-31 60 -89 96t-129 36q-101 0 -173 -72t-72 -172q0 -102 72 -174.5t173 -72.5q70 0 128.5 36.5t89.5 97.5zM313 808
l125 185l101 -74l-137 -174z" />
    <glyph glyph-name="cacute" unicode="&#x107;" horiz-adv-x="749" 
d="M617 244l120 -63q-48 -93 -138 -149t-200 -56q-157 0 -268.5 111.5t-111.5 269.5q0 156 111.5 267.5t268.5 111.5q109 0 200 -56.5t138 -149.5l-120 -61q-31 60 -89 96t-129 36q-101 0 -173 -72t-72 -172q0 -102 72 -174.5t173 -72.5q70 0 128.5 36.5t89.5 97.5zM313 808
l125 185l101 -74l-137 -174z" />
    <glyph glyph-name="Ccircumflex" unicode="&#x108;" horiz-adv-x="749" 
d="M617 244l120 -63q-48 -93 -138 -149t-200 -56q-157 0 -268.5 111.5t-111.5 269.5q0 156 111.5 267.5t268.5 111.5q109 0 200 -56.5t138 -149.5l-120 -61q-31 60 -89 96t-129 36q-101 0 -173 -72t-72 -172q0 -102 72 -174.5t173 -72.5q70 0 128.5 36.5t89.5 97.5zM248 823
l150 169l153 -169l-89 -76l-63 82l-62 -81z" />
    <glyph glyph-name="ccircumflex" unicode="&#x109;" horiz-adv-x="749" 
d="M617 244l120 -63q-48 -93 -138 -149t-200 -56q-157 0 -268.5 111.5t-111.5 269.5q0 156 111.5 267.5t268.5 111.5q109 0 200 -56.5t138 -149.5l-120 -61q-31 60 -89 96t-129 36q-101 0 -173 -72t-72 -172q0 -102 72 -174.5t173 -72.5q70 0 128.5 36.5t89.5 97.5zM248 823
l150 169l153 -169l-89 -76l-63 82l-62 -81z" />
    <glyph glyph-name="Cdotaccent" unicode="&#x10a;" horiz-adv-x="749" 
d="M617 244l120 -63q-48 -93 -138 -149t-200 -56q-157 0 -268.5 111.5t-111.5 269.5q0 156 111.5 267.5t268.5 111.5q109 0 200 -56.5t138 -149.5l-120 -61q-31 60 -89 96t-129 36q-101 0 -173 -72t-72 -172q0 -102 72 -174.5t173 -72.5q70 0 128.5 36.5t89.5 97.5zM314 856
q0 36 24.5 60.5t60.5 24.5q35 0 60.5 -25t25.5 -60q0 -36 -25 -61t-61 -25q-37 0 -61 24.5t-24 61.5z" />
    <glyph glyph-name="cdotaccent" unicode="&#x10b;" horiz-adv-x="749" 
d="M617 244l120 -63q-48 -93 -138 -149t-200 -56q-157 0 -268.5 111.5t-111.5 269.5q0 156 111.5 267.5t268.5 111.5q109 0 200 -56.5t138 -149.5l-120 -61q-31 60 -89 96t-129 36q-101 0 -173 -72t-72 -172q0 -102 72 -174.5t173 -72.5q70 0 128.5 36.5t89.5 97.5zM314 856
q0 36 24.5 60.5t60.5 24.5q35 0 60.5 -25t25.5 -60q0 -36 -25 -61t-61 -25q-37 0 -61 24.5t-24 61.5z" />
    <glyph glyph-name="Ccaron" unicode="&#x10c;" horiz-adv-x="749" 
d="M617 244l120 -63q-48 -93 -138 -149t-200 -56q-157 0 -268.5 111.5t-111.5 269.5q0 156 111.5 267.5t268.5 111.5q109 0 200 -56.5t138 -149.5l-120 -61q-31 60 -89 96t-129 36q-101 0 -173 -72t-72 -172q0 -102 72 -174.5t173 -72.5q70 0 128.5 36.5t89.5 97.5zM399 745
l-150 169l89 75l62 -81l63 82l89 -76z" />
    <glyph glyph-name="ccaron" unicode="&#x10d;" horiz-adv-x="749" 
d="M617 244l120 -63q-48 -93 -138 -149t-200 -56q-157 0 -268.5 111.5t-111.5 269.5q0 156 111.5 267.5t268.5 111.5q109 0 200 -56.5t138 -149.5l-120 -61q-31 60 -89 96t-129 36q-101 0 -173 -72t-72 -172q0 -102 72 -174.5t173 -72.5q70 0 128.5 36.5t89.5 97.5zM399 745
l-150 169l89 75l62 -81l63 82l89 -76z" />
    <glyph glyph-name="Dcaron" unicode="&#x10e;" horiz-adv-x="468" 
d="M50 0v712h180q68 0 119 -52.5t74.5 -132t23.5 -171.5q0 -93 -23.5 -172t-74 -131.5t-119.5 -52.5h-180zM183 132h50q38 0 59.5 66t21.5 158q0 90 -21.5 156.5t-59.5 66.5h-50v-447zM218 731l-150 169l89 75l62 -81l63 82l89 -76z" />
    <glyph glyph-name="dcaron" unicode="&#x10f;" horiz-adv-x="468" 
d="M50 0v712h180q68 0 119 -52.5t74.5 -132t23.5 -171.5q0 -93 -23.5 -172t-74 -131.5t-119.5 -52.5h-180zM183 132h50q38 0 59.5 66t21.5 158q0 90 -21.5 156.5t-59.5 66.5h-50v-447zM218 731l-150 169l89 75l62 -81l63 82l89 -76z" />
    <glyph glyph-name="Dcroat" unicode="&#x110;" horiz-adv-x="466" 
d="M5 292v131h43v289h179q69 0 120 -52.5t74.5 -132t23.5 -171.5q0 -93 -23.5 -172t-74 -131.5t-120.5 -52.5h-179v292h-43zM180 132h50q38 0 60 66.5t22 157.5q0 90 -22 156.5t-60 66.5h-50v-156h71v-131h-71v-160z" />
    <glyph glyph-name="dcroat" unicode="&#x111;" horiz-adv-x="466" 
d="M5 292v131h43v289h179q69 0 120 -52.5t74.5 -132t23.5 -171.5q0 -93 -23.5 -172t-74 -131.5t-120.5 -52.5h-179v292h-43zM180 132h50q38 0 60 66.5t22 157.5q0 90 -22 156.5t-60 66.5h-50v-156h71v-131h-71v-160z" />
    <glyph glyph-name="Emacron" unicode="&#x112;" horiz-adv-x="416" 
d="M50 0v712h336v-133h-202v-156h139v-132h-139v-159h202v-132h-336zM92 765v119h253v-119h-253z" />
    <glyph glyph-name="emacron" unicode="&#x113;" horiz-adv-x="416" 
d="M50 0v712h336v-133h-202v-156h139v-132h-139v-159h202v-132h-336zM92 765v119h253v-119h-253z" />
    <glyph glyph-name="Ebreve" unicode="&#x114;" horiz-adv-x="416" 
d="M50 0v712h336v-133h-202v-156h139v-132h-139v-159h202v-132h-336zM64 913l109 40q2 -5 7.5 -22t9 -26.5t8.5 -21.5t10 -18t9 -6q5 0 9.5 6t10 18t9 22t9.5 26t8 23l109 -42q-65 -169 -154 -169q-91 0 -154 170z" />
    <glyph glyph-name="ebreve" unicode="&#x115;" horiz-adv-x="416" 
d="M50 0v712h336v-133h-202v-156h139v-132h-139v-159h202v-132h-336zM64 913l109 40q2 -5 7.5 -22t9 -26.5t8.5 -21.5t10 -18t9 -6q5 0 9.5 6t10 18t9 22t9.5 26t8 23l109 -42q-65 -169 -154 -169q-91 0 -154 170z" />
    <glyph glyph-name="Edotaccent" unicode="&#x116;" horiz-adv-x="416" 
d="M50 0v712h336v-133h-202v-156h139v-132h-139v-159h202v-132h-336zM132 840q0 36 24.5 60.5t60.5 24.5q35 0 60.5 -25t25.5 -60q0 -36 -25 -61t-61 -25q-37 0 -61 24.5t-24 61.5z" />
    <glyph glyph-name="edotaccent" unicode="&#x117;" horiz-adv-x="416" 
d="M50 0v712h336v-133h-202v-156h139v-132h-139v-159h202v-132h-336zM132 840q0 36 24.5 60.5t60.5 24.5q35 0 60.5 -25t25.5 -60q0 -36 -25 -61t-61 -25q-37 0 -61 24.5t-24 61.5z" />
    <glyph glyph-name="Eogonek" unicode="&#x118;" horiz-adv-x="416" 
d="M50 0v712h336v-133h-202v-156h139v-132h-139v-159h202v-132h-1q-77 -37 -77 -68q0 -16 16 -16q15 0 70 33l54 -85q-65 -52 -125 -52q-48 0 -78.5 31t-30.5 76t34 81h-198z" />
    <glyph glyph-name="eogonek" unicode="&#x119;" horiz-adv-x="416" 
d="M50 0v712h336v-133h-202v-156h139v-132h-139v-159h202v-132h-1q-77 -37 -77 -68q0 -16 16 -16q15 0 70 33l54 -85q-65 -52 -125 -52q-48 0 -78.5 31t-30.5 76t34 81h-198z" />
    <glyph glyph-name="Ecaron" unicode="&#x11a;" horiz-adv-x="416" 
d="M50 0v712h336v-133h-202v-156h139v-132h-139v-159h202v-132h-336zM216 731l-150 169l89 75l62 -81l63 82l89 -76z" />
    <glyph glyph-name="ecaron" unicode="&#x11b;" horiz-adv-x="416" 
d="M50 0v712h336v-133h-202v-156h139v-132h-139v-159h202v-132h-336zM216 731l-150 169l89 75l62 -81l63 82l89 -76z" />
    <glyph glyph-name="Gcircumflex" unicode="&#x11c;" 
d="M549 290v133h225q6 -32 6 -66q0 -158 -111.5 -269.5t-269.5 -111.5q-157 0 -268.5 111.5t-111.5 269.5q0 156 111.5 267.5t268.5 111.5q143 0 252 -95l-88 -102q-72 62 -164 62q-101 0 -173 -72t-72 -172q0 -102 72 -174.5t173 -72.5q85 0 150.5 50.5t87.5 129.5h-88z
M248 823l150 169l153 -169l-89 -76l-63 82l-62 -81z" />
    <glyph glyph-name="gcircumflex" unicode="&#x11d;" 
d="M549 290v133h225q6 -32 6 -66q0 -158 -111.5 -269.5t-269.5 -111.5q-157 0 -268.5 111.5t-111.5 269.5q0 156 111.5 267.5t268.5 111.5q143 0 252 -95l-88 -102q-72 62 -164 62q-101 0 -173 -72t-72 -172q0 -102 72 -174.5t173 -72.5q85 0 150.5 50.5t87.5 129.5h-88z
M248 823l150 169l153 -169l-89 -76l-63 82l-62 -81z" />
    <glyph glyph-name="Gbreve" unicode="&#x11e;" 
d="M549 290v133h225q6 -32 6 -66q0 -158 -111.5 -269.5t-269.5 -111.5q-157 0 -268.5 111.5t-111.5 269.5q0 156 111.5 267.5t268.5 111.5q143 0 252 -95l-88 -102q-72 62 -164 62q-101 0 -173 -72t-72 -172q0 -102 72 -174.5t173 -72.5q85 0 150.5 50.5t87.5 129.5h-88z
M245 929l109 40q2 -5 7.5 -22t9 -26.5t8.5 -21.5t10 -18t9 -6q5 0 9.5 6t10 18t9 22t9.5 26t8 23l109 -42q-65 -169 -154 -169q-91 0 -154 170z" />
    <glyph glyph-name="gbreve" unicode="&#x11f;" 
d="M549 290v133h225q6 -32 6 -66q0 -158 -111.5 -269.5t-269.5 -111.5q-157 0 -268.5 111.5t-111.5 269.5q0 156 111.5 267.5t268.5 111.5q143 0 252 -95l-88 -102q-72 62 -164 62q-101 0 -173 -72t-72 -172q0 -102 72 -174.5t173 -72.5q85 0 150.5 50.5t87.5 129.5h-88z
M245 929l109 40q2 -5 7.5 -22t9 -26.5t8.5 -21.5t10 -18t9 -6q5 0 9.5 6t10 18t9 22t9.5 26t8 23l109 -42q-65 -169 -154 -169q-91 0 -154 170z" />
    <glyph glyph-name="Gdotaccent" unicode="&#x120;" 
d="M549 290v133h225q6 -32 6 -66q0 -158 -111.5 -269.5t-269.5 -111.5q-157 0 -268.5 111.5t-111.5 269.5q0 156 111.5 267.5t268.5 111.5q143 0 252 -95l-88 -102q-72 62 -164 62q-101 0 -173 -72t-72 -172q0 -102 72 -174.5t173 -72.5q85 0 150.5 50.5t87.5 129.5h-88z
M314 856q0 36 24.5 60.5t60.5 24.5q35 0 60.5 -25t25.5 -60q0 -36 -25 -61t-61 -25q-37 0 -61 24.5t-24 61.5z" />
    <glyph glyph-name="gdotaccent" unicode="&#x121;" 
d="M549 290v133h225q6 -32 6 -66q0 -158 -111.5 -269.5t-269.5 -111.5q-157 0 -268.5 111.5t-111.5 269.5q0 156 111.5 267.5t268.5 111.5q143 0 252 -95l-88 -102q-72 62 -164 62q-101 0 -173 -72t-72 -172q0 -102 72 -174.5t173 -72.5q85 0 150.5 50.5t87.5 129.5h-88z
M314 856q0 36 24.5 60.5t60.5 24.5q35 0 60.5 -25t25.5 -60q0 -36 -25 -61t-61 -25q-37 0 -61 24.5t-24 61.5z" />
    <glyph glyph-name="Gcommaaccent" unicode="&#x122;" 
d="M549 290v133h225q6 -32 6 -66q0 -158 -111.5 -269.5t-269.5 -111.5q-157 0 -268.5 111.5t-111.5 269.5q0 156 111.5 267.5t268.5 111.5q143 0 252 -95l-88 -102q-72 62 -164 62q-101 0 -173 -72t-72 -172q0 -102 72 -174.5t173 -72.5q85 0 150.5 50.5t87.5 129.5h-88z
M400 -42q38 0 60 -28.5t22 -70.5q0 -54 -30.5 -91.5t-89.5 -72.5l-52 88q34 18 52 32q-43 13 -43 59q0 34 23 59t58 25z" />
    <glyph glyph-name="gcommaaccent" unicode="&#x123;" 
d="M549 290v133h225q6 -32 6 -66q0 -158 -111.5 -269.5t-269.5 -111.5q-157 0 -268.5 111.5t-111.5 269.5q0 156 111.5 267.5t268.5 111.5q143 0 252 -95l-88 -102q-72 62 -164 62q-101 0 -173 -72t-72 -172q0 -102 72 -174.5t173 -72.5q85 0 150.5 50.5t87.5 129.5h-88z
M400 -42q38 0 60 -28.5t22 -70.5q0 -54 -30.5 -91.5t-89.5 -72.5l-52 88q34 18 52 32q-43 13 -43 59q0 34 23 59t58 25z" />
    <glyph glyph-name="Hcircumflex" unicode="&#x124;" horiz-adv-x="498" 
d="M50 0v712h133v-289h131v289h133v-712h-133v291h-131v-291h-133zM97 807l150 169l153 -169l-89 -76l-63 82l-62 -81z" />
    <glyph glyph-name="hcircumflex" unicode="&#x125;" horiz-adv-x="498" 
d="M50 0v712h133v-289h131v289h133v-712h-133v291h-131v-291h-133zM97 807l150 169l153 -169l-89 -76l-63 82l-62 -81z" />
    <glyph glyph-name="Hbar" unicode="&#x126;" horiz-adv-x="498" 
d="M17 483v125h33v104h133v-104h131v104h133v-104h34v-125h-34v-483h-133v291h-131v-291h-133v483h-33zM183 421h131v64h-131v-64z" />
    <glyph glyph-name="hbar" unicode="&#x127;" horiz-adv-x="498" 
d="M17 483v125h33v104h133v-104h131v104h133v-104h34v-125h-34v-483h-133v291h-131v-291h-133v483h-33zM183 421h131v64h-131v-64z" />
    <glyph glyph-name="Itilde" unicode="&#x128;" horiz-adv-x="236" 
d="M50 0v712h135v-712h-135zM43 754l-105 48q58 133 133 133q20 0 35 -9t22 -20.5t14 -20.5t13 -9q11 0 35 54l105 -48q-57 -132 -130 -132q-21 0 -36.5 9t-23 20.5t-15 20.5t-13.5 9q-10 0 -34 -55z" />
    <glyph glyph-name="itilde" unicode="&#x129;" horiz-adv-x="236" 
d="M50 0v712h135v-712h-135zM43 754l-105 48q58 133 133 133q20 0 35 -9t22 -20.5t14 -20.5t13 -9q11 0 35 54l105 -48q-57 -132 -130 -132q-21 0 -36.5 9t-23 20.5t-15 20.5t-13.5 9q-10 0 -34 -55z" />
    <glyph glyph-name="Imacron" unicode="&#x12a;" horiz-adv-x="236" 
d="M50 0v712h135v-712h-135zM-9 769v119h253v-119h-253z" />
    <glyph glyph-name="imacron" unicode="&#x12b;" horiz-adv-x="236" 
d="M50 0v712h135v-712h-135zM-9 769v119h253v-119h-253z" />
    <glyph glyph-name="Ibreve" unicode="&#x12c;" horiz-adv-x="236" 
d="M50 0v712h135v-712h-135zM-37 917l109 40q2 -5 7.5 -22t9 -26.5t8.5 -21.5t10 -18t9 -6q5 0 9.5 6t10 18t9 22t9.5 26t8 23l109 -42q-65 -169 -154 -169q-91 0 -154 170z" />
    <glyph glyph-name="ibreve" unicode="&#x12d;" horiz-adv-x="236" 
d="M50 0v712h135v-712h-135zM-37 917l109 40q2 -5 7.5 -22t9 -26.5t8.5 -21.5t10 -18t9 -6q5 0 9.5 6t10 18t9 22t9.5 26t8 23l109 -42q-65 -169 -154 -169q-91 0 -154 170z" />
    <glyph glyph-name="Iogonek" unicode="&#x12e;" horiz-adv-x="236" 
d="M193 -51l54 -85q-65 -52 -125 -52q-48 0 -78.5 31t-30.5 76q0 49 37 84v709h135v-712h-1q-77 -37 -77 -68q0 -16 16 -16q15 0 70 33z" />
    <glyph glyph-name="iogonek" unicode="&#x12f;" horiz-adv-x="236" 
d="M193 -51l54 -85q-65 -52 -125 -52q-48 0 -78.5 31t-30.5 76q0 49 37 84v709h135v-712h-1q-77 -37 -77 -68q0 -16 16 -16q15 0 70 33z" />
    <glyph glyph-name="Idotaccent" unicode="&#x130;" horiz-adv-x="236" 
d="M50 0v712h135v-712h-135zM32 844q0 36 24.5 60.5t60.5 24.5q35 0 60.5 -25t25.5 -60q0 -36 -25 -61t-61 -25q-37 0 -61 24.5t-24 61.5z" />
    <glyph glyph-name="dotlessi" unicode="&#x131;" horiz-adv-x="236" 
d="M50 0v712h135v-712h-135z" />
    <glyph glyph-name="Jcircumflex" unicode="&#x134;" horiz-adv-x="385" 
d="M-9 80l99 85q36 -40 58 -40q55 0 55 153v434h133v-439q0 -146 -54 -214t-140 -68q-76 0 -151 89zM117 807l150 169l153 -169l-89 -76l-63 82l-62 -81z" />
    <glyph glyph-name="jcircumflex" unicode="&#x135;" horiz-adv-x="385" 
d="M-9 80l99 85q36 -40 58 -40q55 0 55 153v434h133v-439q0 -146 -54 -214t-140 -68q-76 0 -151 89zM117 807l150 169l153 -169l-89 -76l-63 82l-62 -81z" />
    <glyph glyph-name="Kcommaaccent" unicode="&#x136;" horiz-adv-x="487" 
d="M50 0v712h134v-397l141 397h147l-154 -402l149 -310h-148l-86 183l-49 -104v-79h-134zM251 -26q38 0 60 -28.5t22 -70.5q0 -53 -30.5 -91t-89.5 -73l-52 88q34 18 52 32q-43 13 -43 59q0 34 23 59t58 25z" />
    <glyph glyph-name="kcommaaccent" unicode="&#x137;" horiz-adv-x="486" 
d="M49 0v712h134v-397l141 397h147l-154 -402l149 -310h-148l-86 183l-49 -104v-79h-134zM250 -26q38 0 60 -28.5t22 -70.5q0 -53 -30.5 -91t-89.5 -73l-52 88q34 18 52 32q-43 13 -43 59q0 34 23 59t58 25z" />
    <glyph glyph-name="Lacute" unicode="&#x139;" horiz-adv-x="410" 
d="M50 0v712h134v-580h207v-132h-341zM31 792l125 185l101 -74l-137 -174z" />
    <glyph glyph-name="lacute" unicode="&#x13a;" horiz-adv-x="410" 
d="M50 0v712h134v-580h207v-132h-341zM31 792l125 185l101 -74l-137 -174z" />
    <glyph glyph-name="Lcommaaccent" unicode="&#x13b;" horiz-adv-x="410" 
d="M50 0v712h134v-580h207v-132h-341zM221 -29q38 0 60 -28.5t22 -70.5q0 -54 -30.5 -91.5t-89.5 -72.5l-52 88q34 18 52 32q-43 13 -43 59q0 34 23 59t58 25z" />
    <glyph glyph-name="lcommaaccent" unicode="&#x13c;" horiz-adv-x="410" 
d="M50 0v712h134v-580h207v-132h-341zM221 -29q38 0 60 -28.5t22 -70.5q0 -54 -30.5 -91.5t-89.5 -72.5l-52 88q34 18 52 32q-43 13 -43 59q0 34 23 59t58 25z" />
    <glyph glyph-name="Lcaron" unicode="&#x13d;" horiz-adv-x="415" 
d="M379 618q0 -53 -31.5 -92.5t-92.5 -76.5q-5 8 -24 39t-29 47q40 24 57 39q-20 6 -32 23t-12 39q0 33 22.5 58.5t59.5 25.5q38 0 60 -29t22 -73zM50 0v712h134v-580h209v-132h-343z" />
    <glyph glyph-name="lcaron" unicode="&#x13e;" horiz-adv-x="415" 
d="M379 618q0 -53 -31.5 -92.5t-92.5 -76.5q-5 8 -24 39t-29 47q40 24 57 39q-20 6 -32 23t-12 39q0 33 22.5 58.5t59.5 25.5q38 0 60 -29t22 -73zM50 0v712h134v-580h209v-132h-343z" />
    <glyph glyph-name="Ldot" unicode="&#x13f;" horiz-adv-x="418" 
d="M214 282q0 36 24 60.5t60 24.5q35 0 60.5 -25t25.5 -60q0 -36 -25 -60.5t-61 -24.5q-37 0 -60.5 24t-23.5 61zM50 0v712h134v-580h209v-132h-343z" />
    <glyph glyph-name="ldot" unicode="&#x140;" horiz-adv-x="418" 
d="M214 282q0 36 24 60.5t60 24.5q35 0 60.5 -25t25.5 -60q0 -36 -25 -60.5t-61 -24.5q-37 0 -60.5 24t-23.5 61zM50 0v712h134v-580h209v-132h-343z" />
    <glyph glyph-name="Lslash" unicode="&#x141;" horiz-adv-x="420" 
d="M36 180l-47 119l71 31v382h134v-323l49 22l49 -118l-98 -44v-117h207v-132h-341v190z" />
    <glyph glyph-name="lslash" unicode="&#x142;" horiz-adv-x="420" 
d="M36 180l-47 119l71 31v382h134v-323l49 22l49 -118l-98 -44v-117h207v-132h-341v190z" />
    <glyph glyph-name="Nacute" unicode="&#x143;" horiz-adv-x="523" 
d="M472 712v-712h-135l-156 418v-418h-131v712h135q53 -139 157 -417v417h130zM176 792l125 185l101 -74l-137 -174z" />
    <glyph glyph-name="nacute" unicode="&#x144;" horiz-adv-x="523" 
d="M472 712v-712h-135l-156 418v-418h-131v712h135q53 -139 157 -417v417h130zM176 792l125 185l101 -74l-137 -174z" />
    <glyph glyph-name="Ncommaaccent" unicode="&#x145;" horiz-adv-x="523" 
d="M472 712v-712h-135l-156 418v-418h-131v712h135q53 -139 157 -417v417h130zM260 -29q38 0 60 -28.5t22 -70.5q0 -54 -30.5 -91.5t-89.5 -72.5l-52 88q34 18 52 32q-43 13 -43 59q0 34 23 59t58 25z" />
    <glyph glyph-name="ncommaaccent" unicode="&#x146;" horiz-adv-x="523" 
d="M472 712v-712h-135l-156 418v-418h-131v712h135q53 -139 157 -417v417h130zM260 -29q38 0 60 -28.5t22 -70.5q0 -54 -30.5 -91.5t-89.5 -72.5l-52 88q34 18 52 32q-43 13 -43 59q0 34 23 59t58 25z" />
    <glyph glyph-name="Ncaron" unicode="&#x147;" horiz-adv-x="523" 
d="M472 712v-712h-135l-156 418v-418h-131v712h135q53 -139 157 -417v417h130zM262 731l-150 169l89 75l62 -81l63 82l89 -76z" />
    <glyph glyph-name="ncaron" unicode="&#x148;" horiz-adv-x="523" 
d="M472 712v-712h-135l-156 418v-418h-131v712h135q53 -139 157 -417v417h130zM262 731l-150 169l89 75l62 -81l63 82l89 -76z" />
    <glyph glyph-name="Eng" unicode="&#x14a;" horiz-adv-x="522" 
d="M342 712h130v-585q0 -140 -55 -209t-139 -69q-70 0 -136 71q14 14 30 29t35.5 33t30.5 28q25 -27 46 -27q32 0 48 46q-28 70 -78.5 201t-72.5 187v-417h-131v712h135q26 -70 78.5 -207.5t78.5 -207.5v415z" />
    <glyph glyph-name="eng" unicode="&#x14b;" horiz-adv-x="522" 
d="M342 712h130v-585q0 -140 -55 -209t-139 -69q-70 0 -136 71q14 14 30 29t35.5 33t30.5 28q25 -27 46 -27q32 0 48 46q-28 70 -78.5 201t-72.5 187v-417h-131v712h135q26 -70 78.5 -207.5t78.5 -207.5v415z" />
    <glyph glyph-name="Omacron" unicode="&#x14c;" 
d="M19 357q0 156 111.5 267.5t268.5 111.5t269 -111.5t112 -267.5q0 -158 -111.5 -269.5t-269.5 -111.5q-157 0 -268.5 111.5t-111.5 269.5zM645 357q0 101 -72 172.5t-174 71.5q-101 0 -173 -72t-72 -172q0 -102 72 -174.5t173 -72.5q102 0 174 72.5t72 174.5zM273 781v119
h253v-119h-253z" />
    <glyph glyph-name="omacron" unicode="&#x14d;" 
d="M19 357q0 156 111.5 267.5t268.5 111.5t269 -111.5t112 -267.5q0 -158 -111.5 -269.5t-269.5 -111.5q-157 0 -268.5 111.5t-111.5 269.5zM645 357q0 101 -72 172.5t-174 71.5q-101 0 -173 -72t-72 -172q0 -102 72 -174.5t173 -72.5q102 0 174 72.5t72 174.5zM273 781v119
h253v-119h-253z" />
    <glyph glyph-name="Obreve" unicode="&#x14e;" 
d="M19 357q0 156 111.5 267.5t268.5 111.5t269 -111.5t112 -267.5q0 -158 -111.5 -269.5t-269.5 -111.5q-157 0 -268.5 111.5t-111.5 269.5zM645 357q0 101 -72 172.5t-174 71.5q-101 0 -173 -72t-72 -172q0 -102 72 -174.5t173 -72.5q102 0 174 72.5t72 174.5zM246 929
l109 40q2 -5 7.5 -22t9 -26.5t8.5 -21.5t10 -18t9 -6q5 0 9.5 6t10 18t9 22t9.5 26t8 23l109 -42q-65 -169 -154 -169q-91 0 -154 170z" />
    <glyph glyph-name="obreve" unicode="&#x14f;" 
d="M19 357q0 156 111.5 267.5t268.5 111.5t269 -111.5t112 -267.5q0 -158 -111.5 -269.5t-269.5 -111.5q-157 0 -268.5 111.5t-111.5 269.5zM645 357q0 101 -72 172.5t-174 71.5q-101 0 -173 -72t-72 -172q0 -102 72 -174.5t173 -72.5q102 0 174 72.5t72 174.5zM245 929
l109 40q2 -5 7.5 -22t9 -26.5t8.5 -21.5t10 -18t9 -6q5 0 9.5 6t10 18t9 22t9.5 26t8 23l109 -42q-65 -169 -154 -169q-91 0 -154 170z" />
    <glyph glyph-name="Ohungarumlaut" unicode="&#x150;" 
d="M19 357q0 156 111.5 267.5t268.5 111.5t269 -111.5t112 -267.5q0 -158 -111.5 -269.5t-269.5 -111.5q-157 0 -268.5 111.5t-111.5 269.5zM645 357q0 101 -72 172.5t-174 71.5q-101 0 -173 -72t-72 -172q0 -102 72 -174.5t173 -72.5q102 0 174 72.5t72 174.5zM258 791
l85 205l104 -51l-94 -198zM400 792l88 202l108 -52l-101 -195z" />
    <glyph glyph-name="ohungarumlaut" unicode="&#x151;" 
d="M19 357q0 156 111.5 267.5t268.5 111.5t269 -111.5t112 -267.5q0 -158 -111.5 -269.5t-269.5 -111.5q-157 0 -268.5 111.5t-111.5 269.5zM645 357q0 101 -72 172.5t-174 71.5q-101 0 -173 -72t-72 -172q0 -102 72 -174.5t173 -72.5q102 0 174 72.5t72 174.5zM258 791
l85 205l104 -51l-94 -198zM400 792l88 202l108 -52l-101 -195z" />
    <glyph glyph-name="OE" unicode="&#x152;" horiz-adv-x="890" 
d="M860 579h-201v-156h138v-132h-138v-159h201v-132h-327q-63 -24 -134 -24q-157 0 -268.5 111.5t-111.5 269.5q0 156 111.5 267.5t268.5 111.5q67 0 134 -24h327v-133zM526 147v418q-56 36 -127 36q-101 0 -173 -72t-72 -172q0 -102 72 -174.5t173 -72.5q69 0 127 37z" />
    <glyph glyph-name="oe" unicode="&#x153;" horiz-adv-x="890" 
d="M860 579h-201v-156h138v-132h-138v-159h201v-132h-327q-63 -24 -134 -24q-157 0 -268.5 111.5t-111.5 269.5q0 156 111.5 267.5t268.5 111.5q67 0 134 -24h327v-133zM526 147v418q-56 36 -127 36q-101 0 -173 -72t-72 -172q0 -102 72 -174.5t173 -72.5q69 0 127 37z" />
    <glyph glyph-name="Racute" unicode="&#x154;" horiz-adv-x="468" 
d="M50 0v712h190q91 0 143 -83t52 -196q0 -150 -79 -224l90 -209h-144l-65 155h-54v-155h-133zM183 286h55q32 0 48.5 43t16.5 104q0 60 -17.5 103t-50.5 43h-52v-293zM142 792l125 185l101 -74l-137 -174z" />
    <glyph glyph-name="racute" unicode="&#x155;" horiz-adv-x="468" 
d="M50 0v712h190q91 0 143 -83t52 -196q0 -150 -79 -224l90 -209h-144l-65 155h-54v-155h-133zM183 286h55q32 0 48.5 43t16.5 104q0 60 -17.5 103t-50.5 43h-52v-293zM142 792l125 185l101 -74l-137 -174z" />
    <glyph glyph-name="Rcommaaccent" unicode="&#x156;" horiz-adv-x="468" 
d="M50 0v712h190q91 0 143 -83t52 -196q0 -150 -79 -224l90 -209h-144l-65 155h-54v-155h-133zM183 286h55q32 0 48.5 43t16.5 104q0 60 -17.5 103t-50.5 43h-52v-293zM239 -29q38 0 60 -28.5t22 -70.5q0 -54 -30.5 -91.5t-89.5 -72.5l-52 88q34 18 52 32q-43 13 -43 59
q0 34 23 59t58 25z" />
    <glyph glyph-name="rcommaaccent" unicode="&#x157;" horiz-adv-x="468" 
d="M50 0v712h190q91 0 143 -83t52 -196q0 -150 -79 -224l90 -209h-144l-65 155h-54v-155h-133zM183 286h55q32 0 48.5 43t16.5 104q0 60 -17.5 103t-50.5 43h-52v-293zM239 -29q38 0 60 -28.5t22 -70.5q0 -54 -30.5 -91.5t-89.5 -72.5l-52 88q34 18 52 32q-43 13 -43 59
q0 34 23 59t58 25z" />
    <glyph glyph-name="Rcaron" unicode="&#x158;" horiz-adv-x="468" 
d="M50 0v712h190q91 0 143 -83t52 -196q0 -150 -79 -224l90 -209h-144l-65 155h-54v-155h-133zM183 286h55q32 0 48.5 43t16.5 104q0 60 -17.5 103t-50.5 43h-52v-293zM228 731l-150 169l89 75l62 -81l63 82l89 -76z" />
    <glyph glyph-name="rcaron" unicode="&#x159;" horiz-adv-x="468" 
d="M50 0v712h190q91 0 143 -83t52 -196q0 -150 -79 -224l90 -209h-144l-65 155h-54v-155h-133zM183 286h55q32 0 48.5 43t16.5 104q0 60 -17.5 103t-50.5 43h-52v-293zM228 731l-150 169l89 75l62 -81l63 82l89 -76z" />
    <glyph glyph-name="Sacute" unicode="&#x15a;" horiz-adv-x="419" 
d="M13 92q15 17 45.5 48.5t45.5 48.5q66 -65 111 -65q24 0 38 20.5t14 46.5q0 25 -13.5 45.5t-35.5 36t-48.5 31t-53 35t-48.5 43t-35.5 60t-13.5 80.5q0 84 51 141t130 57q85 0 190 -90l-89 -100q-65 58 -101 58q-24 0 -36.5 -18.5t-12.5 -46.5t18.5 -51.5t46 -38.5
t59.5 -37t59.5 -45.5t46 -64.5t18.5 -94q0 -81 -52 -141t-132 -60q-95 0 -202 101zM115 792l125 185l101 -74l-137 -174z" />
    <glyph glyph-name="sacute" unicode="&#x15b;" horiz-adv-x="419" 
d="M13 92q15 17 45.5 48.5t45.5 48.5q66 -65 111 -65q24 0 38 20.5t14 46.5q0 25 -13.5 45.5t-35.5 36t-48.5 31t-53 35t-48.5 43t-35.5 60t-13.5 80.5q0 84 51 141t130 57q85 0 190 -90l-89 -100q-65 58 -101 58q-24 0 -36.5 -18.5t-12.5 -46.5t18.5 -51.5t46 -38.5
t59.5 -37t59.5 -45.5t46 -64.5t18.5 -94q0 -81 -52 -141t-132 -60q-95 0 -202 101zM115 792l125 185l101 -74l-137 -174z" />
    <glyph glyph-name="Scircumflex" unicode="&#x15c;" horiz-adv-x="419" 
d="M13 92q15 17 45.5 48.5t45.5 48.5q66 -65 111 -65q24 0 38 20.5t14 46.5q0 25 -13.5 45.5t-35.5 36t-48.5 31t-53 35t-48.5 43t-35.5 60t-13.5 80.5q0 84 51 141t130 57q85 0 190 -90l-89 -100q-65 58 -101 58q-24 0 -36.5 -18.5t-12.5 -46.5t18.5 -51.5t46 -38.5
t59.5 -37t59.5 -45.5t46 -64.5t18.5 -94q0 -81 -52 -141t-132 -60q-95 0 -202 101zM50 807l150 169l153 -169l-89 -76l-63 82l-62 -81z" />
    <glyph glyph-name="scircumflex" unicode="&#x15d;" horiz-adv-x="419" 
d="M13 92q15 17 45.5 48.5t45.5 48.5q66 -65 111 -65q24 0 38 20.5t14 46.5q0 25 -13.5 45.5t-35.5 36t-48.5 31t-53 35t-48.5 43t-35.5 60t-13.5 80.5q0 84 51 141t130 57q85 0 190 -90l-89 -100q-65 58 -101 58q-24 0 -36.5 -18.5t-12.5 -46.5t18.5 -51.5t46 -38.5
t59.5 -37t59.5 -45.5t46 -64.5t18.5 -94q0 -81 -52 -141t-132 -60q-95 0 -202 101zM50 807l150 169l153 -169l-89 -76l-63 82l-62 -81z" />
    <glyph glyph-name="Scedilla" unicode="&#x15e;" horiz-adv-x="419" 
d="M13 92l90 96q67 -64 112 -64q24 0 38 20.5t14 47.5q0 29 -18.5 52.5t-46 39.5t-59.5 38t-59.5 45t-46 63.5t-18.5 91.5q0 84 51 141t130 57q85 0 190 -90l-88 -99q-66 57 -102 57q-24 0 -36.5 -18.5t-12.5 -47.5q0 -28 18.5 -51.5t46 -39t59.5 -37t59.5 -44.5t46 -64
t18.5 -94q0 -80 -51.5 -140t-132.5 -60q-97 0 -202 100zM86 -224q28 56 43 84q38 -24 63 -24q17 0 27 9t10 22q0 11 -7 18.5t-19 7.5q-19 0 -41 -12l-30 68q41 25 77 25q48 0 76 -31.5t28 -80.5q0 -51 -33 -86.5t-91 -35.5q-51 0 -103 36z" />
    <glyph glyph-name="scedilla" unicode="&#x15f;" horiz-adv-x="419" 
d="M13 92l90 96q67 -64 112 -64q24 0 38 20.5t14 47.5q0 29 -18.5 52.5t-46 39.5t-59.5 38t-59.5 45t-46 63.5t-18.5 91.5q0 84 51 141t130 57q85 0 190 -90l-88 -99q-66 57 -102 57q-24 0 -36.5 -18.5t-12.5 -47.5q0 -28 18.5 -51.5t46 -39t59.5 -37t59.5 -44.5t46 -64
t18.5 -94q0 -80 -51.5 -140t-132.5 -60q-97 0 -202 100zM86 -224q28 56 43 84q38 -24 63 -24q17 0 27 9t10 22q0 11 -7 18.5t-19 7.5q-19 0 -41 -12l-30 68q41 25 77 25q48 0 76 -31.5t28 -80.5q0 -51 -33 -86.5t-91 -35.5q-51 0 -103 36z" />
    <glyph glyph-name="Scaron" unicode="&#x160;" horiz-adv-x="419" 
d="M13 92q15 17 45.5 48.5t45.5 48.5q66 -65 111 -65q24 0 38 20.5t14 46.5q0 25 -13.5 45.5t-35.5 36t-48.5 31t-53 35t-48.5 43t-35.5 60t-13.5 80.5q0 84 51 141t130 57q85 0 190 -90l-89 -100q-65 58 -101 58q-24 0 -36.5 -18.5t-12.5 -46.5t18.5 -51.5t46 -38.5
t59.5 -37t59.5 -45.5t46 -64.5t18.5 -94q0 -81 -52 -141t-132 -60q-95 0 -202 101zM201 731l-150 169l89 75l62 -81l63 82l89 -76z" />
    <glyph glyph-name="scaron" unicode="&#x161;" horiz-adv-x="419" 
d="M13 92q15 17 45.5 48.5t45.5 48.5q66 -65 111 -65q24 0 38 20.5t14 46.5q0 25 -13.5 45.5t-35.5 36t-48.5 31t-53 35t-48.5 43t-35.5 60t-13.5 80.5q0 84 51 141t130 57q85 0 190 -90l-89 -100q-65 58 -101 58q-24 0 -36.5 -18.5t-12.5 -46.5t18.5 -51.5t46 -38.5
t59.5 -37t59.5 -45.5t46 -64.5t18.5 -94q0 -81 -52 -141t-132 -60q-95 0 -202 101zM201 731l-150 169l89 75l62 -81l63 82l89 -76z" />
    <glyph glyph-name="Tcommaaccent" unicode="&#x162;" horiz-adv-x="438" 
d="M152 0v579h-131v133h395v-133h-131v-579h-133zM96 -224q28 56 43 84q38 -24 63 -24q17 0 27 9t10 22q0 11 -7 18.5t-19 7.5q-19 0 -41 -12l-30 68q41 25 77 25q48 0 76 -31.5t28 -80.5q0 -51 -33 -86.5t-91 -35.5q-51 0 -103 36z" />
    <glyph glyph-name="tcommaaccent" unicode="&#x163;" horiz-adv-x="438" 
d="M152 0v579h-131v133h395v-133h-131v-579h-133zM96 -224q28 56 43 84q38 -24 63 -24q17 0 27 9t10 22q0 11 -7 18.5t-19 7.5q-19 0 -41 -12l-30 68q41 25 77 25q48 0 76 -31.5t28 -80.5q0 -51 -33 -86.5t-91 -35.5q-51 0 -103 36z" />
    <glyph glyph-name="Tcaron" unicode="&#x164;" horiz-adv-x="438" 
d="M152 0v579h-131v133h395v-133h-131v-579h-133zM218 731l-150 169l89 75l62 -81l63 82l89 -76z" />
    <glyph glyph-name="tcaron" unicode="&#x165;" horiz-adv-x="438" 
d="M152 0v579h-131v133h395v-133h-131v-579h-133zM218 731l-150 169l89 75l62 -81l63 82l89 -76z" />
    <glyph glyph-name="Tbar" unicode="&#x166;" horiz-adv-x="438" 
d="M86 345v128h66v106h-131v133h395v-133h-131v-106h67v-128h-67v-345h-133v345h-66z" />
    <glyph glyph-name="tbar" unicode="&#x167;" horiz-adv-x="438" 
d="M86 345v128h66v106h-131v133h395v-133h-131v-106h67v-128h-67v-345h-133v345h-66z" />
    <glyph glyph-name="Utilde" unicode="&#x168;" horiz-adv-x="492" 
d="M48 255v457h133v-457q0 -65 19 -98t45 -33t46 32.5t20 98.5v457h132v-457q0 -130 -58.5 -197t-139.5 -67q-82 0 -139.5 67.5t-57.5 196.5zM171 754l-105 48q58 133 133 133q20 0 35 -9t22 -20.5t14 -20.5t13 -9q11 0 35 54l105 -48q-57 -132 -130 -132q-21 0 -36.5 9
t-23 20.5t-15 20.5t-13.5 9q-10 0 -34 -55z" />
    <glyph glyph-name="utilde" unicode="&#x169;" horiz-adv-x="492" 
d="M48 255v457h133v-457q0 -65 19 -98t45 -33t46 32.5t20 98.5v457h132v-457q0 -130 -58.5 -197t-139.5 -67q-82 0 -139.5 67.5t-57.5 196.5zM171 754l-105 48q58 133 133 133q20 0 35 -9t22 -20.5t14 -20.5t13 -9q11 0 35 54l105 -48q-57 -132 -130 -132q-21 0 -36.5 9
t-23 20.5t-15 20.5t-13.5 9q-10 0 -34 -55z" />
    <glyph glyph-name="Umacron" unicode="&#x16a;" horiz-adv-x="492" 
d="M48 255v457h133v-457q0 -65 19 -98t45 -33t46 32.5t20 98.5v457h132v-457q0 -130 -58.5 -197t-139.5 -67q-82 0 -139.5 67.5t-57.5 196.5zM119 769v119h253v-119h-253z" />
    <glyph glyph-name="umacron" unicode="&#x16b;" horiz-adv-x="492" 
d="M48 255v457h133v-457q0 -65 19 -98t45 -33t46 32.5t20 98.5v457h132v-457q0 -130 -58.5 -197t-139.5 -67q-82 0 -139.5 67.5t-57.5 196.5zM119 769v119h253v-119h-253z" />
    <glyph glyph-name="Ubreve" unicode="&#x16c;" horiz-adv-x="492" 
d="M48 255v457h133v-457q0 -65 19 -98t45 -33t46 32.5t20 98.5v457h132v-457q0 -130 -58.5 -197t-139.5 -67q-82 0 -139.5 67.5t-57.5 196.5zM91 917l109 40q2 -5 7.5 -22t9 -26.5t8.5 -21.5t10 -18t9 -6q5 0 9.5 6t10 18t9 22t9.5 26t8 23l109 -42q-65 -169 -154 -169
q-91 0 -154 170z" />
    <glyph glyph-name="ubreve" unicode="&#x16d;" horiz-adv-x="492" 
d="M48 255v457h133v-457q0 -65 19 -98t45 -33t46 32.5t20 98.5v457h132v-457q0 -130 -58.5 -197t-139.5 -67q-82 0 -139.5 67.5t-57.5 196.5zM91 917l109 40q2 -5 7.5 -22t9 -26.5t8.5 -21.5t10 -18t9 -6q5 0 9.5 6t10 18t9 22t9.5 26t8 23l109 -42q-65 -169 -154 -169
q-91 0 -154 170z" />
    <glyph glyph-name="Uring" unicode="&#x16e;" horiz-adv-x="492" 
d="M48 255v457h133v-457q0 -65 19 -98t45 -33t46 32.5t20 98.5v457h132v-457q0 -130 -58.5 -197t-139.5 -67q-82 0 -139.5 67.5t-57.5 196.5zM211 866q0 -14 10.5 -24.5t24.5 -10.5t24.5 10.5t10.5 24.5t-10.5 24.5t-24.5 10.5t-24.5 -10.5t-10.5 -24.5zM118 866
q0 53 37.5 90.5t90.5 37.5t90.5 -37.5t37.5 -90.5t-37.5 -90t-90.5 -37t-90.5 37t-37.5 90z" />
    <glyph glyph-name="uring" unicode="&#x16f;" horiz-adv-x="492" 
d="M48 255v457h133v-457q0 -65 19 -98t45 -33t46 32.5t20 98.5v457h132v-457q0 -130 -58.5 -197t-139.5 -67q-82 0 -139.5 67.5t-57.5 196.5zM211 866q0 -14 10.5 -24.5t24.5 -10.5t24.5 10.5t10.5 24.5t-10.5 24.5t-24.5 10.5t-24.5 -10.5t-10.5 -24.5zM118 866
q0 53 37.5 90.5t90.5 37.5t90.5 -37.5t37.5 -90.5t-37.5 -90t-90.5 -37t-90.5 37t-37.5 90z" />
    <glyph glyph-name="Uhungarumlaut" unicode="&#x170;" horiz-adv-x="492" 
d="M48 255v457h133v-457q0 -65 19 -98t45 -33t46 32.5t20 98.5v457h132v-457q0 -130 -58.5 -197t-139.5 -67q-82 0 -139.5 67.5t-57.5 196.5zM104 779l85 205l104 -51l-94 -198zM246 780l88 202l108 -52l-101 -195z" />
    <glyph glyph-name="uhungarumlaut" unicode="&#x171;" horiz-adv-x="492" 
d="M48 255v457h133v-457q0 -65 19 -98t45 -33t46 32.5t20 98.5v457h132v-457q0 -130 -58.5 -197t-139.5 -67q-82 0 -139.5 67.5t-57.5 196.5zM104 779l85 205l104 -51l-94 -198zM246 780l88 202l108 -52l-101 -195z" />
    <glyph glyph-name="Uogonek" unicode="&#x172;" horiz-adv-x="492" 
d="M304 -51l54 -85q-65 -52 -125 -52q-48 0 -78.5 31t-30.5 76q0 52 43 90q-54 27 -86.5 88.5t-32.5 157.5v457h133v-457q0 -65 19 -98t45 -33t46 32.5t20 98.5v457h132v-457q0 -112 -44.5 -177.5t-112.5 -81.5q-68 -35 -68 -64q0 -16 16 -16q15 0 70 33z" />
    <glyph glyph-name="uogonek" unicode="&#x173;" horiz-adv-x="492" 
d="M304 -51l54 -85q-65 -52 -125 -52q-48 0 -78.5 31t-30.5 76q0 52 43 90q-54 27 -86.5 88.5t-32.5 157.5v457h133v-457q0 -65 19 -98t45 -33t46 32.5t20 98.5v457h132v-457q0 -112 -44.5 -177.5t-112.5 -81.5q-68 -35 -68 -64q0 -16 16 -16q15 0 70 33z" />
    <glyph glyph-name="Wcircumflex" unicode="&#x174;" horiz-adv-x="654" 
d="M654 712l-148 -712h-118q-18 111 -61 394l-62 -394h-118l-147 712h137q13 -71 38 -213t38 -213q39 265 60 426h108q21 -161 60 -426l75 426h138zM177 807l150 169l153 -169l-89 -76l-63 82l-62 -81z" />
    <glyph glyph-name="wcircumflex" unicode="&#x175;" horiz-adv-x="654" 
d="M654 712l-148 -712h-118q-18 111 -61 394l-62 -394h-118l-147 712h137q13 -71 38 -213t38 -213q39 265 60 426h108q21 -161 60 -426l75 426h138zM177 807l150 169l153 -169l-89 -76l-63 82l-62 -81z" />
    <glyph glyph-name="Ycircumflex" unicode="&#x176;" horiz-adv-x="437" 
d="M152 0v165l-147 547h138l75 -322l76 322h138l-148 -547v-165h-132zM67 807l150 169l153 -169l-89 -76l-63 82l-62 -81z" />
    <glyph glyph-name="ycircumflex" unicode="&#x177;" horiz-adv-x="437" 
d="M152 0v165l-147 547h138l75 -322l76 322h138l-148 -547v-165h-132zM67 807l150 169l153 -169l-89 -76l-63 82l-62 -81z" />
    <glyph glyph-name="Ydieresis" unicode="&#x178;" horiz-adv-x="437" 
d="M152 0v165l-147 547h138l75 -322l76 322h138l-148 -547v-165h-132zM126 754q-36 0 -60 25t-24 61t24 60.5t60 24.5q34 0 58.5 -25t24.5 -60q0 -36 -24 -61t-59 -25zM310 754q-35 0 -58.5 25t-23.5 61t23.5 60.5t58.5 24.5t60 -25t25 -60q0 -36 -25 -61t-60 -25z" />
    <glyph glyph-name="Zacute" unicode="&#x179;" horiz-adv-x="434" 
d="M34 0v115l212 464h-212v133h365v-118l-211 -462h211v-132h-365zM130 792l125 185l101 -74l-137 -174z" />
    <glyph glyph-name="zacute" unicode="&#x17a;" horiz-adv-x="434" 
d="M34 0v115l212 464h-212v133h365v-118l-211 -462h211v-132h-365zM130 792l125 185l101 -74l-137 -174z" />
    <glyph glyph-name="Zdotaccent" unicode="&#x17b;" horiz-adv-x="434" 
d="M34 0v115l212 464h-212v133h365v-118l-211 -462h211v-132h-365zM131 840q0 36 24.5 60.5t60.5 24.5q35 0 60.5 -25t25.5 -60q0 -36 -25 -61t-61 -25q-37 0 -61 24.5t-24 61.5z" />
    <glyph glyph-name="zdotaccent" unicode="&#x17c;" horiz-adv-x="434" 
d="M34 0v115l212 464h-212v133h365v-118l-211 -462h211v-132h-365zM131 840q0 36 24.5 60.5t60.5 24.5q35 0 60.5 -25t25.5 -60q0 -36 -25 -61t-61 -25q-37 0 -61 24.5t-24 61.5z" />
    <glyph glyph-name="Zcaron" unicode="&#x17d;" horiz-adv-x="434" 
d="M34 0v115l212 464h-212v133h365v-118l-211 -462h211v-132h-365zM216 731l-150 169l89 75l62 -81l63 82l89 -76z" />
    <glyph glyph-name="zcaron" unicode="&#x17e;" horiz-adv-x="434" 
d="M34 0v115l212 464h-212v133h365v-118l-211 -462h211v-132h-365zM216 731l-150 169l89 75l62 -81l63 82l89 -76z" />
    <glyph glyph-name="Gcaron" unicode="&#x1e6;" 
d="M549 290v133h225q6 -32 6 -66q0 -158 -111.5 -269.5t-269.5 -111.5q-157 0 -268.5 111.5t-111.5 269.5q0 156 111.5 267.5t268.5 111.5q143 0 252 -95l-88 -102q-72 62 -164 62q-101 0 -173 -72t-72 -172q0 -102 72 -174.5t173 -72.5q85 0 150.5 50.5t87.5 129.5h-88z
M399 745l-150 169l89 75l62 -81l63 82l89 -76z" />
    <glyph glyph-name="gcaron" unicode="&#x1e7;" 
d="M549 290v133h225q6 -32 6 -66q0 -158 -111.5 -269.5t-269.5 -111.5q-157 0 -268.5 111.5t-111.5 269.5q0 156 111.5 267.5t268.5 111.5q143 0 252 -95l-88 -102q-72 62 -164 62q-101 0 -173 -72t-72 -172q0 -102 72 -174.5t173 -72.5q85 0 150.5 50.5t87.5 129.5h-88z
M399 745l-150 169l89 75l62 -81l63 82l89 -76z" />
    <glyph glyph-name="uni01EA" unicode="&#x1ea;" 
d="M472 -65l54 -85q-65 -52 -125 -52q-48 0 -78.5 31t-30.5 76q0 43 31 79q-131 26 -217.5 130.5t-86.5 242.5q0 156 111.5 267.5t268.5 111.5t269 -111.5t112 -267.5q0 -144 -95 -251.5t-236 -125.5q-63 -33 -63 -62q0 -16 16 -16q15 0 70 33zM645 357q0 101 -72 172.5
t-174 71.5q-101 0 -173 -72t-72 -172q0 -102 72 -174.5t173 -72.5q102 0 174 72.5t72 174.5z" />
    <glyph glyph-name="uni01EB" unicode="&#x1eb;" 
d="M472 -65l54 -85q-65 -52 -125 -52q-48 0 -78.5 31t-30.5 76q0 43 31 79q-131 26 -217.5 130.5t-86.5 242.5q0 156 111.5 267.5t268.5 111.5t269 -111.5t112 -267.5q0 -144 -95 -251.5t-236 -125.5q-63 -33 -63 -62q0 -16 16 -16q15 0 70 33zM645 357q0 101 -72 172.5
t-174 71.5q-101 0 -173 -72t-72 -172q0 -102 72 -174.5t173 -72.5q102 0 174 72.5t72 174.5z" />
    <glyph glyph-name="AEacute" unicode="&#x1fc;" horiz-adv-x="639" 
d="M0 0l213 712h396v-133h-198v-156h136v-132h-136v-159h198v-132h-323v79h-125l-22 -79h-139zM195 209h91v334zM307 792l125 185l101 -74l-137 -174z" />
    <glyph glyph-name="aeacute" unicode="&#x1fd;" horiz-adv-x="639" 
d="M0 0l213 712h396v-133h-198v-156h136v-132h-136v-159h198v-132h-323v79h-125l-22 -79h-139zM195 209h91v334zM307 792l125 185l101 -74l-137 -174z" />
    <glyph glyph-name="Oslashacute" unicode="&#x1fe;" 
d="M313 808l125 185l101 -74l-137 -174zM400 111q101 0 172.5 72t71.5 173q0 63 -27.5 115.5t-74.5 85.5l-174 -443q15 -3 32 -3zM400 602q-102 0 -174 -72.5t-72 -173.5q0 -60 28.5 -113.5t73.5 -85.5q76 188 175 442q-15 3 -31 3zM619 754l-27 -71q86 -51 137 -137.5
t51 -188.5q0 -157 -110.5 -267.5t-265.5 -110.5q-43 0 -85 10l-12 -29h-127l27 70q-86 51 -137 137.5t-51 188.5q0 157 110.5 268t265.5 111q41 0 85 -11q8 20 11 30h128z" />
    <glyph glyph-name="oslashacute" unicode="&#x1ff;" 
d="M313 808l125 185l101 -74l-137 -174zM400 111q101 0 172.5 72t71.5 173q0 63 -27.5 115.5t-74.5 85.5l-174 -443q15 -3 32 -3zM400 602q-102 0 -174 -72.5t-72 -173.5q0 -60 28.5 -113.5t73.5 -85.5q76 188 175 442q-15 3 -31 3zM619 754l-27 -71q86 -51 137 -137.5
t51 -188.5q0 -157 -110.5 -267.5t-265.5 -110.5q-43 0 -85 10l-12 -29h-127l27 70q-86 51 -137 137.5t-51 188.5q0 157 110.5 268t265.5 111q41 0 85 -11q8 20 11 30h128z" />
    <glyph glyph-name="Scommaaccent" unicode="&#x218;" horiz-adv-x="419" 
d="M13 92q15 17 45.5 48.5t45.5 48.5q66 -65 111 -65q24 0 38 20.5t14 46.5q0 25 -13.5 45.5t-35.5 36t-48.5 31t-53 35t-48.5 43t-35.5 60t-13.5 80.5q0 84 51 141t130 57q85 0 190 -90l-89 -100q-65 58 -101 58q-24 0 -36.5 -18.5t-12.5 -46.5t18.5 -51.5t46 -38.5
t59.5 -37t59.5 -45.5t46 -64.5t18.5 -94q0 -81 -52 -141t-132 -60q-95 0 -202 101zM209 -29q38 0 60 -28.5t22 -70.5q0 -54 -30.5 -91.5t-89.5 -72.5l-52 88q34 18 52 32q-43 13 -43 59q0 34 23 59t58 25z" />
    <glyph glyph-name="scommaaccent" unicode="&#x219;" horiz-adv-x="419" 
d="M13 92q15 17 45.5 48.5t45.5 48.5q66 -65 111 -65q24 0 38 20.5t14 46.5q0 25 -13.5 45.5t-35.5 36t-48.5 31t-53 35t-48.5 43t-35.5 60t-13.5 80.5q0 84 51 141t130 57q85 0 190 -90l-89 -100q-65 58 -101 58q-24 0 -36.5 -18.5t-12.5 -46.5t18.5 -51.5t46 -38.5
t59.5 -37t59.5 -45.5t46 -64.5t18.5 -94q0 -81 -52 -141t-132 -60q-95 0 -202 101zM209 -29q38 0 60 -28.5t22 -70.5q0 -54 -30.5 -91.5t-89.5 -72.5l-52 88q34 18 52 32q-43 13 -43 59q0 34 23 59t58 25z" />
    <glyph glyph-name="uni021A" unicode="&#x21a;" horiz-adv-x="438" 
d="M152 0v579h-131v133h395v-133h-131v-579h-133zM219 -30q38 0 60 -28.5t22 -70.5q0 -53 -30.5 -91t-89.5 -73l-52 88q34 18 52 32q-43 13 -43 59q0 34 23 59t58 25z" />
    <glyph glyph-name="uni021B" unicode="&#x21b;" horiz-adv-x="438" 
d="M152 0v579h-131v133h395v-133h-131v-579h-133zM219 -30q38 0 60 -28.5t22 -70.5q0 -53 -30.5 -91t-89.5 -73l-52 88q34 18 52 32q-43 13 -43 59q0 34 23 59t58 25z" />
    <glyph glyph-name="uni0232" unicode="&#x232;" horiz-adv-x="437" 
d="M152 0v165l-147 547h138l75 -322l76 322h138l-148 -547v-165h-132zM92 765v119h253v-119h-253z" />
    <glyph glyph-name="uni0233" unicode="&#x233;" horiz-adv-x="437" 
d="M152 0v165l-147 547h138l75 -322l76 322h138l-148 -547v-165h-132zM92 765v119h253v-119h-253z" />
    <glyph glyph-name="circumflex" unicode="&#x2c6;" horiz-adv-x="325" 
d="M11 807l150 169l153 -169l-89 -76l-63 82l-62 -81z" />
    <glyph glyph-name="caron" unicode="&#x2c7;" horiz-adv-x="325" 
d="M161 731l-150 169l89 75l62 -81l63 82l89 -76z" />
    <glyph glyph-name="breve" unicode="&#x2d8;" horiz-adv-x="330" 
d="M11 913l109 40q2 -5 7.5 -22t9 -26.5t8.5 -21.5t10 -18t9 -6q5 0 9.5 6t10 18t9 22t9.5 26t8 23l109 -42q-65 -169 -154 -169q-91 0 -154 170z" />
    <glyph glyph-name="dotaccent" unicode="&#x2d9;" horiz-adv-x="193" 
d="M11 840q0 36 24.5 60.5t60.5 24.5q35 0 60.5 -25t25.5 -60q0 -36 -25 -61t-61 -25q-37 0 -61 24.5t-24 61.5z" />
    <glyph glyph-name="ring" unicode="&#x2da;" horiz-adv-x="278" 
d="M104 862q0 -14 10.5 -24.5t24.5 -10.5t24.5 10.5t10.5 24.5t-10.5 24.5t-24.5 10.5t-24.5 -10.5t-10.5 -24.5zM11 862q0 53 37.5 90.5t90.5 37.5t90.5 -37.5t37.5 -90.5t-37.5 -90t-90.5 -37t-90.5 37t-37.5 90z" />
    <glyph glyph-name="ogonek" unicode="&#x2db;" horiz-adv-x="248" 
d="M187 -51l54 -85q-65 -52 -125 -52q-48 0 -78.5 31t-30.5 76q0 40 26 72t62 47l83 -38q-77 -37 -77 -68q0 -16 16 -16q15 0 70 33z" />
    <glyph glyph-name="tilde" unicode="&#x2dc;" horiz-adv-x="379" 
d="M116 750l-105 48q58 133 133 133q20 0 35 -9t22 -20.5t14 -20.5t13 -9q11 0 35 54l105 -48q-57 -132 -130 -132q-21 0 -36.5 9t-23 20.5t-15 20.5t-13.5 9q-10 0 -34 -55z" />
    <glyph glyph-name="hungarumlaut" unicode="&#x2dd;" horiz-adv-x="356" 
d="M9 775l85 205l104 -51l-94 -198zM151 776l88 202l108 -52l-101 -195z" />
    <glyph glyph-name="tonos" unicode="&#x384;" horiz-adv-x="125" 
d="M6 497v235h123l-26 -235h-97z" />
    <glyph glyph-name="Alphatonos" unicode="&#x386;" horiz-adv-x="485" 
d="M15 497v235h123l-25 -235h-98zM8 0l173 712h130l174 -712h-135l-15 65h-178l-15 -65h-134zM187 195h119l-60 285z" />
    <glyph glyph-name="Epsilontonos" unicode="&#x388;" horiz-adv-x="507" 
d="M6 497v235h123l-26 -235h-97zM141 0v712h336v-133h-202v-156h139v-132h-139v-159h202v-132h-336z" />
    <glyph glyph-name="Etatonos" unicode="&#x389;" horiz-adv-x="589" 
d="M141 0v712h133v-289h131v289h133v-712h-133v291h-131v-291h-133zM6 497v235h123l-26 -235h-97z" />
    <glyph glyph-name="Iotatonos" unicode="&#x38a;" horiz-adv-x="327" 
d="M142 0v712h135v-712h-135zM6 497v235h123l-26 -235h-97z" />
    <glyph glyph-name="Omicrontonos" unicode="&#x38c;" horiz-adv-x="870" 
d="M6 497v235h123l-26 -235h-97zM90 357q0 156 111.5 267.5t268.5 111.5t269 -111.5t112 -267.5q0 -158 -111.5 -269.5t-269.5 -111.5q-157 0 -268.5 111.5t-111.5 269.5zM716 357q0 101 -72 172.5t-174 71.5q-101 0 -173 -72t-72 -172q0 -102 72 -174.5t173 -72.5
q102 0 174 72.5t72 174.5z" />
    <glyph glyph-name="Upsilontonos" unicode="&#x38e;" horiz-adv-x="568" 
d="M6 497v235h122l-25 -235h-97zM283 0v165l-147 547h138l75 -322l76 322h138l-148 -547v-165h-132z" />
    <glyph glyph-name="Omegatonos" unicode="&#x38f;" horiz-adv-x="859" 
d="M6 497v235h123l-26 -235h-97zM775 0h-258v135q91 34 139.5 96.5t48.5 135.5q0 94 -69 164t-170 70t-169.5 -70t-68.5 -164q0 -74 48.5 -136t139.5 -96v-135h-259v131h60q-123 97 -123 245q0 140 106.5 250t265.5 110q106 0 193.5 -53t133.5 -135t46 -172
q0 -147 -123 -245h59v-131z" />
    <glyph glyph-name="Alpha" unicode="&#x391;" horiz-adv-x="477" 
d="M0 0l173 712h130l174 -712h-135l-15 65h-178l-15 -65h-134zM179 195h119l-60 285z" />
    <glyph glyph-name="Beta" unicode="&#x392;" horiz-adv-x="457" 
d="M50 0v712h205q74 0 118 -63t44 -146q0 -90 -47 -140q56 -52 56 -153q0 -83 -44 -146.5t-118 -63.5h-214zM182 130h75q18 0 28.5 25t10.5 59q0 33 -11 58t-28 25h-75v-167zM182 417h64q18 0 28.5 24.5t10.5 58.5q0 33 -10.5 56.5t-28.5 23.5h-64v-163z" />
    <glyph glyph-name="Gamma" unicode="&#x393;" horiz-adv-x="406" 
d="M50 0v712h337v-133h-202v-579h-135z" />
    <glyph glyph-name="uni0394" unicode="&#x394;" horiz-adv-x="447" 
d="M160 129h128l-64 370zM23 0v113q75 365 122 599h159l119 -597v-115h-400z" />
    <glyph glyph-name="Epsilon" unicode="&#x395;" horiz-adv-x="416" 
d="M50 0v712h336v-133h-202v-156h139v-132h-139v-159h202v-132h-336z" />
    <glyph glyph-name="Zeta" unicode="&#x396;" horiz-adv-x="434" 
d="M34 0v115l212 464h-212v133h365v-118l-211 -462h211v-132h-365z" />
    <glyph glyph-name="Eta" unicode="&#x397;" horiz-adv-x="498" 
d="M50 0v712h133v-289h131v289h133v-712h-133v291h-131v-291h-133z" />
    <glyph glyph-name="Theta" unicode="&#x398;" 
d="M399 736q157 0 269 -111.5t112 -267.5q0 -158 -111.5 -269.5t-269.5 -111.5q-157 0 -268.5 111.5t-111.5 269.5q0 156 111.5 267.5t268.5 111.5zM399 109q103 0 174.5 72.5t71.5 175.5q0 101 -72 173t-174 72q-101 0 -173 -72t-72 -173q0 -103 72 -175.5t173 -72.5z
M326 290v131h151v-131h-151z" />
    <glyph glyph-name="Iota" unicode="&#x399;" horiz-adv-x="236" 
d="M50 0v712h135v-712h-135z" />
    <glyph glyph-name="Kappa" unicode="&#x39a;" horiz-adv-x="476" 
d="M50 0v712h133v-290h34l99 290h144l-130 -356l129 -356h-143l-99 290h-34v-290h-133z" />
    <glyph glyph-name="Lambda" unicode="&#x39b;" horiz-adv-x="473" 
d="M0 0l162 712h150l161 -712h-140q-72 363 -97 485l-96 -485h-140z" />
    <glyph glyph-name="Mu" unicode="&#x39c;" horiz-adv-x="634" 
d="M50 0v712h151l115 -475l115 475h152v-712h-129v401q-79 -362 -87 -401h-102l-87 401v-401h-128z" />
    <glyph glyph-name="Nu" unicode="&#x39d;" horiz-adv-x="523" 
d="M472 712v-712h-135l-156 417v-417h-131v712h135q73 -191 157 -416v416h130z" />
    <glyph glyph-name="Xi" unicode="&#x39e;" horiz-adv-x="394" 
d="M29 0v132h336v-132h-336zM29 578v134h336v-134h-336zM76 291v132h242v-132h-242z" />
    <glyph glyph-name="Omicron" unicode="&#x39f;" 
d="M19 357q0 156 111.5 267.5t268.5 111.5t269 -111.5t112 -267.5q0 -158 -111.5 -269.5t-269.5 -111.5q-157 0 -268.5 111.5t-111.5 269.5zM645 357q0 101 -72 172.5t-174 71.5q-101 0 -173 -72t-72 -172q0 -102 72 -174.5t173 -72.5q102 0 174 72.5t72 174.5z" />
    <glyph glyph-name="Pi" unicode="&#x3a0;" horiz-adv-x="496" 
d="M50 0v712h395v-712h-133v579h-129v-579h-133z" />
    <glyph glyph-name="Rho" unicode="&#x3a1;" horiz-adv-x="455" 
d="M50 0v712h189q91 0 143 -83t52 -196q0 -115 -51.5 -197t-144.5 -82h-55v-154h-133zM183 286h54q32 0 48.5 43t16.5 104q0 60 -18 103t-50 43h-51v-293z" />
    <glyph glyph-name="Sigma" unicode="&#x3a3;" horiz-adv-x="432" 
d="M38 0v124l133 233l-133 230v125h363v-133h-208l127 -223l-127 -224h208v-132h-363z" />
    <glyph glyph-name="Tau" unicode="&#x3a4;" horiz-adv-x="438" 
d="M152 0v579h-131v133h395v-133h-131v-579h-133z" />
    <glyph glyph-name="Upsilon" unicode="&#x3a5;" horiz-adv-x="437" 
d="M152 0v165l-147 547h138l75 -322l76 322h138l-148 -547v-165h-132z" />
    <glyph glyph-name="Phi" unicode="&#x3a6;" 
d="M399 -24q-157 0 -268.5 111.5t-111.5 269.5q0 156 111.5 267.5t268.5 111.5t269 -111.5t112 -267.5q0 -158 -111.5 -269.5t-269.5 -111.5zM646 357q0 84 -50.5 150t-129.5 88v-478q79 21 129.5 88t50.5 152zM153 357q0 -85 50.5 -151.5t128.5 -88.5v478
q-78 -22 -128.5 -88.5t-50.5 -149.5z" />
    <glyph glyph-name="Chi" unicode="&#x3a7;" horiz-adv-x="470" 
d="M151 362l-140 350h144q13 -36 39.5 -107t39.5 -107q13 36 39.5 107t39.5 107h145l-140 -350l145 -362h-144q-15 37 -43 112.5t-42 113.5l-84 -226h-144z" />
    <glyph glyph-name="Psi" unicode="&#x3a8;" horiz-adv-x="568" 
d="M219 0v83q-81 25 -134 111.5t-53 237.5v280h129v-294q0 -74 18.5 -127t40.5 -73v494h129v-494q22 21 40 73.5t18 126.5v294h129v-280q0 -151 -52.5 -237.5t-133.5 -111.5v-83h-131z" />
    <glyph glyph-name="uni03A9" unicode="&#x3a9;" horiz-adv-x="785" 
d="M701 0h-258v135q91 34 139.5 96.5t48.5 135.5q0 94 -69 164t-170 70t-169.5 -70t-68.5 -164q0 -74 48.5 -136t139.5 -96v-135h-259v131h60q-123 97 -123 245q0 140 106.5 250t265.5 110q106 0 193.5 -53t133.5 -135t46 -172q0 -147 -123 -245h59v-131z" />
    <glyph glyph-name="Iotadieresis" unicode="&#x3aa;" horiz-adv-x="236" 
d="M50 0v712h135v-712h-135zM25 758q-36 0 -60 25t-24 61t24 60.5t60 24.5q34 0 58.5 -25t24.5 -60q0 -36 -24 -61t-59 -25zM209 758q-35 0 -58.5 25t-23.5 61t23.5 60.5t58.5 24.5t60 -25t25 -60q0 -36 -25 -61t-60 -25z" />
    <glyph glyph-name="Upsilondieresis" unicode="&#x3ab;" horiz-adv-x="437" 
d="M152 0v165l-147 547h138l75 -322l76 322h138l-148 -547v-165h-132zM126 754q-36 0 -60 25t-24 61t24 60.5t60 24.5q34 0 58.5 -25t24.5 -60q0 -36 -24 -61t-59 -25zM310 754q-35 0 -58.5 25t-23.5 61t23.5 60.5t58.5 24.5t60 -25t25 -60q0 -36 -25 -61t-60 -25z" />
    <glyph glyph-name="alphatonos" unicode="&#x3ac;" horiz-adv-x="485" 
d="M15 497v235h123l-25 -235h-98zM8 0l173 712h130l174 -712h-135l-15 65h-178l-15 -65h-134zM187 195h119l-60 285z" />
    <glyph glyph-name="epsilontonos" unicode="&#x3ad;" horiz-adv-x="507" 
d="M6 497v235h123l-26 -235h-97zM141 0v712h336v-133h-202v-156h139v-132h-139v-159h202v-132h-336z" />
    <glyph glyph-name="etatonos" unicode="&#x3ae;" horiz-adv-x="589" 
d="M141 0v712h133v-289h131v289h133v-712h-133v291h-131v-291h-133zM6 497v235h123l-26 -235h-97z" />
    <glyph glyph-name="iotatonos" unicode="&#x3af;" horiz-adv-x="327" 
d="M142 0v712h135v-712h-135zM6 497v235h123l-26 -235h-97z" />
    <glyph glyph-name="alpha" unicode="&#x3b1;" horiz-adv-x="477" 
d="M0 0l173 712h130l174 -712h-135l-15 65h-178l-15 -65h-134zM179 195h119l-60 285z" />
    <glyph glyph-name="beta" unicode="&#x3b2;" horiz-adv-x="457" 
d="M50 0v712h205q74 0 118 -63t44 -146q0 -90 -47 -140q56 -52 56 -153q0 -83 -44 -146.5t-118 -63.5h-214zM182 130h75q18 0 28.5 25t10.5 59q0 33 -11 58t-28 25h-75v-167zM182 417h64q18 0 28.5 24.5t10.5 58.5q0 33 -10.5 56.5t-28.5 23.5h-64v-163z" />
    <glyph glyph-name="gamma" unicode="&#x3b3;" horiz-adv-x="406" 
d="M50 0v712h337v-133h-202v-579h-135z" />
    <glyph glyph-name="delta" unicode="&#x3b4;" horiz-adv-x="447" 
d="M160 129h128l-64 370zM23 0v113q75 365 122 599h159l119 -597v-115h-400z" />
    <glyph glyph-name="epsilon" unicode="&#x3b5;" horiz-adv-x="416" 
d="M50 0v712h336v-133h-202v-156h139v-132h-139v-159h202v-132h-336z" />
    <glyph glyph-name="zeta" unicode="&#x3b6;" horiz-adv-x="434" 
d="M34 0v115l212 464h-212v133h365v-118l-211 -462h211v-132h-365z" />
    <glyph glyph-name="eta" unicode="&#x3b7;" horiz-adv-x="498" 
d="M50 0v712h133v-289h131v289h133v-712h-133v291h-131v-291h-133z" />
    <glyph glyph-name="theta" unicode="&#x3b8;" 
d="M399 736q157 0 269 -111.5t112 -267.5q0 -158 -111.5 -269.5t-269.5 -111.5q-157 0 -268.5 111.5t-111.5 269.5q0 156 111.5 267.5t268.5 111.5zM399 109q103 0 174.5 72.5t71.5 175.5q0 101 -72 173t-174 72q-101 0 -173 -72t-72 -173q0 -103 72 -175.5t173 -72.5z
M326 290v131h151v-131h-151z" />
    <glyph glyph-name="iota" unicode="&#x3b9;" horiz-adv-x="236" 
d="M50 0v712h135v-712h-135z" />
    <glyph glyph-name="kappa" unicode="&#x3ba;" horiz-adv-x="476" 
d="M50 0v712h133v-290h34l99 290h144l-130 -356l129 -356h-143l-99 290h-34v-290h-133z" />
    <glyph glyph-name="lambda" unicode="&#x3bb;" horiz-adv-x="473" 
d="M0 0l162 712h150l161 -712h-140q-72 363 -97 485l-96 -485h-140z" />
    <glyph glyph-name="uni03BC" unicode="&#x3bc;" horiz-adv-x="634" 
d="M50 0v712h151l115 -475l115 475h152v-712h-129v401q-79 -362 -87 -401h-102l-87 401v-401h-128z" />
    <glyph glyph-name="nu" unicode="&#x3bd;" horiz-adv-x="523" 
d="M472 712v-712h-135l-156 418v-418h-131v712h135q53 -139 157 -417v417h130z" />
    <glyph glyph-name="xi" unicode="&#x3be;" horiz-adv-x="394" 
d="M29 0v132h336v-132h-336zM29 578v134h336v-134h-336zM76 291v132h242v-132h-242z" />
    <glyph glyph-name="omicron" unicode="&#x3bf;" 
d="M19 357q0 156 111.5 267.5t268.5 111.5t269 -111.5t112 -267.5q0 -158 -111.5 -269.5t-269.5 -111.5q-157 0 -268.5 111.5t-111.5 269.5zM645 357q0 101 -72 172.5t-174 71.5q-101 0 -173 -72t-72 -172q0 -102 72 -174.5t173 -72.5q102 0 174 72.5t72 174.5z" />
    <glyph glyph-name="pi" unicode="&#x3c0;" horiz-adv-x="496" 
d="M50 0v712h395v-712h-133v579h-129v-579h-133z" />
    <glyph glyph-name="rho" unicode="&#x3c1;" horiz-adv-x="455" 
d="M50 0v712h189q91 0 143 -83t52 -196q0 -115 -51.5 -197t-144.5 -82h-55v-154h-133zM183 286h54q32 0 48.5 43t16.5 104q0 60 -18 103t-50 43h-51v-293z" />
    <glyph glyph-name="uni03C2" unicode="&#x3c2;" horiz-adv-x="432" 
d="M38 0v124l133 233l-133 230v125h363v-133h-208l127 -223l-127 -224h208v-132h-363z" />
    <glyph glyph-name="sigma" unicode="&#x3c3;" horiz-adv-x="432" 
d="M38 0v124l133 233l-133 230v125h363v-133h-208l127 -223l-127 -224h208v-132h-363z" />
    <glyph glyph-name="tau" unicode="&#x3c4;" horiz-adv-x="438" 
d="M152 0v579h-131v133h395v-133h-131v-579h-133z" />
    <glyph glyph-name="upsilon" unicode="&#x3c5;" horiz-adv-x="437" 
d="M152 0v165l-147 547h138l75 -322l76 322h138l-148 -547v-165h-132z" />
    <glyph glyph-name="phi" unicode="&#x3c6;" 
d="M399 -24q-157 0 -268.5 111.5t-111.5 269.5q0 156 111.5 267.5t268.5 111.5t269 -111.5t112 -267.5q0 -158 -111.5 -269.5t-269.5 -111.5zM646 357q0 84 -50.5 150t-129.5 88v-478q79 21 129.5 88t50.5 152zM153 357q0 -85 50.5 -151.5t128.5 -88.5v478
q-78 -22 -128.5 -88.5t-50.5 -149.5z" />
    <glyph glyph-name="chi" unicode="&#x3c7;" horiz-adv-x="470" 
d="M151 362l-140 350h144q13 -36 39.5 -107t39.5 -107q13 36 39.5 107t39.5 107h145l-140 -350l145 -362h-144q-15 37 -43 112.5t-42 113.5l-84 -226h-144z" />
    <glyph glyph-name="psi" unicode="&#x3c8;" horiz-adv-x="568" 
d="M219 0v83q-81 25 -134 111.5t-53 237.5v280h129v-294q0 -74 18.5 -127t40.5 -73v494h129v-494q22 21 40 73.5t18 126.5v294h129v-280q0 -151 -52.5 -237.5t-133.5 -111.5v-83h-131z" />
    <glyph glyph-name="omega" unicode="&#x3c9;" horiz-adv-x="785" 
d="M701 0h-258v135q91 34 139.5 96.5t48.5 135.5q0 94 -69 164t-170 70t-169.5 -70t-68.5 -164q0 -74 48.5 -136t139.5 -96v-135h-259v131h60q-123 97 -123 245q0 140 106.5 250t265.5 110q106 0 193.5 -53t133.5 -135t46 -172q0 -147 -123 -245h59v-131z" />
    <glyph glyph-name="iotadieresis" unicode="&#x3ca;" horiz-adv-x="236" 
d="M50 0v712h135v-712h-135zM25 758q-36 0 -60 25t-24 61t24 60.5t60 24.5q34 0 58.5 -25t24.5 -60q0 -36 -24 -61t-59 -25zM209 758q-35 0 -58.5 25t-23.5 61t23.5 60.5t58.5 24.5t60 -25t25 -60q0 -36 -25 -61t-60 -25z" />
    <glyph glyph-name="upsilondieresis" unicode="&#x3cb;" horiz-adv-x="437" 
d="M152 0v165l-147 547h138l75 -322l76 322h138l-148 -547v-165h-132zM126 754q-36 0 -60 25t-24 61t24 60.5t60 24.5q34 0 58.5 -25t24.5 -60q0 -36 -24 -61t-59 -25zM310 754q-35 0 -58.5 25t-23.5 61t23.5 60.5t58.5 24.5t60 -25t25 -60q0 -36 -25 -61t-60 -25z" />
    <glyph glyph-name="omicrontonos" unicode="&#x3cc;" horiz-adv-x="870" 
d="M6 497v235h123l-26 -235h-97zM90 357q0 156 111.5 267.5t268.5 111.5t269 -111.5t112 -267.5q0 -158 -111.5 -269.5t-269.5 -111.5q-157 0 -268.5 111.5t-111.5 269.5zM716 357q0 101 -72 172.5t-174 71.5q-101 0 -173 -72t-72 -172q0 -102 72 -174.5t173 -72.5
q102 0 174 72.5t72 174.5z" />
    <glyph glyph-name="upsilontonos" unicode="&#x3cd;" horiz-adv-x="568" 
d="M6 497v235h122l-25 -235h-97zM283 0v165l-147 547h138l75 -322l76 322h138l-148 -547v-165h-132z" />
    <glyph glyph-name="omegatonos" unicode="&#x3ce;" horiz-adv-x="859" 
d="M6 497v235h123l-26 -235h-97zM775 0h-258v135q91 34 139.5 96.5t48.5 135.5q0 94 -69 164t-170 70t-169.5 -70t-68.5 -164q0 -74 48.5 -136t139.5 -96v-135h-259v131h60q-123 97 -123 245q0 140 106.5 250t265.5 110q106 0 193.5 -53t133.5 -135t46 -172
q0 -147 -123 -245h59v-131z" />
    <glyph glyph-name="uni0401" unicode="&#x401;" horiz-adv-x="416" 
d="M50 0v712h336v-133h-202v-156h139v-132h-139v-159h202v-132h-336zM306 749q-34 0 -56.5 24t-22.5 59q0 34 22.5 58t56.5 24t58 -24t24 -58q0 -35 -24 -59t-58 -24zM127 914q34 0 57.5 -24t23.5 -58q0 -35 -23.5 -59t-57.5 -24t-57 24t-23 59q0 34 23 58t57 24z" />
    <glyph glyph-name="uni0402" unicode="&#x402;" horiz-adv-x="527" 
d="M143 0v580h-124v132h382v-132h-128v-88q36 21 68 21q58 0 96.5 -39.5t53 -93.5t14.5 -120q0 -56 -6.5 -98.5t-24 -81.5t-52.5 -60t-87 -21h-22v133h20q28 0 36 34.5t8 93.5q0 56 -12.5 88.5t-33.5 32.5q-23 0 -58 -24v-357h-130z" />
    <glyph glyph-name="uni0403" unicode="&#x403;" horiz-adv-x="406" 
d="M132 788l125 185l101 -74l-137 -174zM50 0v712h337v-133h-202v-579h-135z" />
    <glyph glyph-name="uni0404" unicode="&#x404;" horiz-adv-x="749" 
d="M737 181q-49 -93 -139 -149t-199 -56q-158 0 -269 111.5t-111 269.5q0 156 111.5 267.5t268.5 111.5q109 0 199.5 -56.5t138.5 -149.5l-120 -61q-31 60 -89 96t-129 36q-83 0 -149 -51t-86 -129h202v-133h-201q20 -78 85.5 -128t148.5 -50q70 0 128.5 36.5t89.5 97.5z
" />
    <glyph glyph-name="uni0405" unicode="&#x405;" horiz-adv-x="419" 
d="M13 92l91 97q66 -65 111 -65q24 0 38 20.5t14 46.5q0 25 -13.5 45.5t-35.5 36t-48.5 31t-53 35t-48.5 43t-35.5 60t-13.5 80.5q0 84 51 141t130 57q85 0 190 -90l-89 -100q-65 58 -101 58q-24 0 -36.5 -18.5t-12.5 -46.5t18.5 -51.5t46 -38.5t59.5 -37t59.5 -45.5
t46 -64.5t18.5 -94q0 -81 -52 -141t-132 -60q-95 0 -202 101z" />
    <glyph glyph-name="uni0406" unicode="&#x406;" horiz-adv-x="236" 
d="M50 0v712h135v-712h-135z" />
    <glyph glyph-name="uni0407" unicode="&#x407;" horiz-adv-x="236" 
d="M50 0v712h135v-712h-135zM207 755q-34 0 -57 24t-23 59t23 59t57 24q35 0 59 -24.5t24 -58.5q0 -35 -24 -59t-59 -24zM27 921q34 0 57.5 -24t23.5 -59t-23.5 -59t-57.5 -24t-57.5 24t-23.5 59t23.5 59t57.5 24z" />
    <glyph glyph-name="uni0408" unicode="&#x408;" horiz-adv-x="385" 
d="M-10 80l100 85q36 -40 58 -40q55 0 55 153v434h133v-439q0 -146 -54 -214t-140 -68q-75 0 -152 89z" />
    <glyph glyph-name="uni0409" unicode="&#x409;" horiz-adv-x="683" 
d="M98 712h338v-253h61q81 0 124.5 -67t43.5 -160t-44 -162.5t-121 -69.5h-195v579h-77q-1 -81 -2 -128t-4.5 -110.5t-10 -102t-19 -84t-30 -75t-43.5 -57t-60 -47.5q-48 72 -71 108q38 28 59 64t33 107q18 114 18 458zM493 131q21 0 32 29t11 69q0 38 -10.5 68.5
t-31.5 30.5h-59v-197h58z" />
    <glyph glyph-name="uni040A" unicode="&#x40a;" horiz-adv-x="683" 
d="M438 131h63q17 0 26 25t9 58q0 26 -9 54t-26 28h-63v-165zM507 428q76 0 117 -62t41 -148q0 -88 -41.5 -153t-113.5 -65h-203v296h-124v-296h-133v712h133v-284h124v284h133v-284h67z" />
    <glyph glyph-name="uni040B" unicode="&#x40b;" horiz-adv-x="528" 
d="M143 0v580h-124v132h382v-132h-126v-75q37 13 63 13q76 0 113.5 -51t37.5 -166v-301h-131v301q0 86 -38 86q-19 0 -45 -17v-370h-132z" />
    <glyph glyph-name="uni040C" unicode="&#x40c;" horiz-adv-x="476" 
d="M160 784l125 185l101 -74l-137 -174zM50 0v712h133v-290h34l99 290h144l-130 -356l129 -356h-143l-99 290h-34v-290h-133z" />
    <glyph glyph-name="uni040E" unicode="&#x40e;" horiz-adv-x="436" 
d="M108 0q19 67 43 158q-35 136 -146 554h140l75 -325l75 325h140l-190 -712h-137zM69 873l105 41q32 -81 45 -81q2 0 4.5 1.5t5 4.5t4.5 6t5 9l5 10t5.5 12t5.5 12.5t5.5 13.5t5.5 13l104 -42q-61 -153 -150 -153q-88 0 -150 153z" />
    <glyph glyph-name="uni040F" unicode="&#x40f;" horiz-adv-x="491" 
d="M50 0v712h133v-580h125v580h133v-712h-131v-76h-131v76h-129z" />
    <glyph glyph-name="uni0410" unicode="&#x410;" horiz-adv-x="477" 
d="M0 0l173 712h130l174 -712h-135l-15 65h-178l-15 -65h-134zM179 195h119l-60 285z" />
    <glyph glyph-name="uni0411" unicode="&#x411;" horiz-adv-x="456" 
d="M183 132h64q25 0 38.5 36.5t13.5 87.5t-13 88.5t-37 37.5h-66v-250zM50 0v712h346v-133h-214v-71h68q87 0 133.5 -72.5t46.5 -176.5t-47 -181.5t-131 -77.5h-202z" />
    <glyph glyph-name="uni0412" unicode="&#x412;" horiz-adv-x="457" 
d="M50 0v712h205q74 0 118 -63t44 -146q0 -90 -47 -140q56 -52 56 -153q0 -83 -44 -146.5t-118 -63.5h-214zM182 130h75q18 0 28.5 25t10.5 59q0 33 -11 58t-28 25h-75v-167zM182 417h64q18 0 28.5 24.5t10.5 58.5q0 33 -10.5 56.5t-28.5 23.5h-64v-163z" />
    <glyph glyph-name="uni0413" unicode="&#x413;" horiz-adv-x="406" 
d="M50 0v712h337v-133h-202v-579h-135z" />
    <glyph glyph-name="uni0414" unicode="&#x414;" horiz-adv-x="486" 
d="M9 -75v207h30q46 116 46 427v153h342v-580h47v-207h-132v75h-201v-75h-132zM169 132h127v447h-80v-13q0 -286 -47 -434z" />
    <glyph glyph-name="uni0415" unicode="&#x415;" horiz-adv-x="416" 
d="M50 0v712h336v-133h-202v-156h139v-132h-139v-159h202v-132h-336z" />
    <glyph glyph-name="uni0416" unicode="&#x416;" horiz-adv-x="697" 
d="M555 356l128 -356h-142l-99 291h-28v-291h-131v291h-28l-99 -291h-142l128 356l-128 356h142l99 -290h28v290h131v-290h28l99 290h143z" />
    <glyph glyph-name="uni0417" unicode="&#x417;" horiz-adv-x="409" 
d="M321 365q63 -47 63 -149q0 -100 -54 -162.5t-130 -62.5q-129 0 -198 176q56 19 124 44q39 -88 74 -88q21 0 36 28t15 65q0 30 -15.5 53t-40.5 23h-88v133h84q22 0 36.5 20t14.5 53q0 39 -13 64.5t-34 25.5q-18 0 -31 -19.5t-30 -60.5l-125 43q65 169 188 169
q75 0 125.5 -62t50.5 -161q0 -86 -52 -132z" />
    <glyph glyph-name="uni0418" unicode="&#x418;" horiz-adv-x="523" 
d="M50 0v712h131v-420l157 420h134v-712h-130v422l-157 -422h-135z" />
    <glyph glyph-name="uni0419" unicode="&#x419;" horiz-adv-x="523" 
d="M50 0v712h131v-420l157 420h134v-712h-130v422l-157 -422h-135zM109 873l105 41q32 -81 45 -81q2 0 4.5 1.5t5 4.5t4.5 6t5 9l5 10t5.5 12t5.5 12.5t5.5 13.5t5.5 13l104 -42q-61 -153 -150 -153q-88 0 -150 153z" />
    <glyph glyph-name="uni041A" unicode="&#x41a;" horiz-adv-x="476" 
d="M50 0v712h133v-290h34l99 290h144l-130 -356l129 -356h-143l-99 290h-34v-290h-133z" />
    <glyph glyph-name="uni041B" unicode="&#x41b;" horiz-adv-x="490" 
d="M99 712h341v-712h-131v579h-80q-2 -239 -20 -349q-16 -93 -49.5 -155t-99.5 -100l-72 108q39 28 60.5 64t32.5 107q18 107 18 458z" />
    <glyph glyph-name="uni041C" unicode="&#x41c;" horiz-adv-x="634" 
d="M50 0v712h151l115 -475l115 475h152v-712h-129v401q-79 -362 -87 -401h-102l-87 401v-401h-128z" />
    <glyph glyph-name="uni041D" unicode="&#x41d;" horiz-adv-x="498" 
d="M50 0v712h133v-289h131v289h133v-712h-133v291h-131v-291h-133z" />
    <glyph glyph-name="uni041E" unicode="&#x41e;" 
d="M19 357q0 156 111.5 267.5t268.5 111.5t269 -111.5t112 -267.5q0 -158 -111.5 -269.5t-269.5 -111.5q-157 0 -268.5 111.5t-111.5 269.5zM645 357q0 101 -72 172.5t-174 71.5q-101 0 -173 -72t-72 -172q0 -102 72 -174.5t173 -72.5q102 0 174 72.5t72 174.5z" />
    <glyph glyph-name="uni041F" unicode="&#x41f;" horiz-adv-x="496" 
d="M50 0v712h395v-712h-133v579h-129v-579h-133z" />
    <glyph glyph-name="uni0420" unicode="&#x420;" horiz-adv-x="455" 
d="M50 0v712h189q91 0 143 -83t52 -196q0 -115 -51.5 -197t-144.5 -82h-55v-154h-133zM183 286h54q32 0 48.5 43t16.5 104q0 60 -18 103t-50 43h-51v-293z" />
    <glyph glyph-name="uni0421" unicode="&#x421;" horiz-adv-x="749" 
d="M617 244l120 -63q-48 -93 -138 -149t-200 -56q-157 0 -268.5 111.5t-111.5 269.5q0 156 111.5 267.5t268.5 111.5q109 0 200 -56.5t138 -149.5l-120 -61q-31 60 -89 96t-129 36q-101 0 -173 -72t-72 -172q0 -102 72 -174.5t173 -72.5q70 0 128.5 36.5t89.5 97.5z" />
    <glyph glyph-name="uni0422" unicode="&#x422;" horiz-adv-x="438" 
d="M152 0v579h-131v133h395v-133h-131v-579h-133z" />
    <glyph glyph-name="uni0423" unicode="&#x423;" horiz-adv-x="436" 
d="M108 0q19 67 43 158q-35 136 -146 554h140l75 -325l75 325h140l-190 -712h-137z" />
    <glyph glyph-name="uni0424" unicode="&#x424;" 
d="M399 -24q-157 0 -268.5 111.5t-111.5 269.5q0 156 111.5 267.5t268.5 111.5t269 -111.5t112 -267.5q0 -158 -111.5 -269.5t-269.5 -111.5zM646 357q0 84 -50.5 150t-129.5 88v-478q79 21 129.5 88t50.5 152zM153 357q0 -85 50.5 -151.5t128.5 -88.5v478
q-78 -22 -128.5 -88.5t-50.5 -149.5z" />
    <glyph glyph-name="uni0425" unicode="&#x425;" horiz-adv-x="470" 
d="M151 362l-140 350h144q13 -36 39.5 -107t39.5 -107q13 36 39.5 107t39.5 107h145l-140 -350l145 -362h-144q-15 37 -43 112.5t-42 113.5l-84 -226h-144z" />
    <glyph glyph-name="uni0426" unicode="&#x426;" horiz-adv-x="494" 
d="M50 0v712h133v-580h120v580h133v-580h45v-208h-132v76h-299z" />
    <glyph glyph-name="uni0427" unicode="&#x427;" horiz-adv-x="465" 
d="M282 712h133v-712h-133v213q-52 -32 -95 -32q-148 0 -148 220v311h132v-312q0 -41 7.5 -63.5t31.5 -22.5q31 0 72 35v363z" />
    <glyph glyph-name="uni0428" unicode="&#x428;" horiz-adv-x="673" 
d="M50 0v712h131v-580h90v580h130v-580h91v580h131v-712h-573z" />
    <glyph glyph-name="uni0429" unicode="&#x429;" horiz-adv-x="681" 
d="M50 0v712h132v-580h89v580h130v-580h91v580h131v-580h46v-208h-132v76h-487z" />
    <glyph glyph-name="uni042A" unicode="&#x42a;" horiz-adv-x="454" 
d="M68 0v579h-61v133h194v-217h54q87 0 133.5 -73t46.5 -173t-47.5 -174.5t-130.5 -74.5h-189zM199 132h55q25 0 38.5 34.5t13.5 81.5q0 46 -13.5 80.5t-36.5 34.5h-57v-231z" />
    <glyph glyph-name="uni042B" unicode="&#x42b;" horiz-adv-x="619" 
d="M181 131h49q25 0 38 34.5t13 81.5q0 116 -56 116h-44v-232zM50 0v712h133v-217h49q89 0 131 -71t42 -174t-43.5 -176.5t-128.5 -73.5h-183zM436 712h133v-712h-133v712z" />
    <glyph glyph-name="uni042C" unicode="&#x42c;" horiz-adv-x="436" 
d="M182 132h54q25 0 38.5 34.5t13.5 81.5t-13 81t-37 34h-56v-231zM50 0v712h133v-217h55q59 0 100.5 -37t60 -91t18.5 -117q0 -100 -47.5 -175t-129.5 -75h-190z" />
    <glyph glyph-name="uni042D" unicode="&#x42d;" horiz-adv-x="749" 
d="M12 181l120 63q31 -61 89.5 -97.5t128.5 -36.5q83 0 148.5 50t85.5 128h-201v133h202q-20 78 -86 129t-149 51q-71 0 -129 -36t-89 -96l-120 61q48 93 138.5 149.5t199.5 56.5q157 0 268.5 -111.5t111.5 -267.5q0 -158 -111 -269.5t-269 -111.5q-109 0 -199 56t-139 149z
" />
    <glyph glyph-name="uni042E" unicode="&#x42e;" horiz-adv-x="974" 
d="M576 736q157 0 268 -111.5t111 -267.5q0 -158 -111 -269.5t-268 -111.5q-139 0 -241 89t-126 225h-27v-290h-132v712h132v-290h27q24 135 126.5 224.5t240.5 89.5zM576 110q102 0 173 72.5t71 174.5q0 101 -71 172.5t-173 71.5q-100 0 -171 -71.5t-71 -172.5
q0 -102 71 -174.5t171 -72.5z" />
    <glyph glyph-name="uni042F" unicode="&#x42f;" horiz-adv-x="468" 
d="M417 712v-712h-133v155h-54l-64 -155h-144l90 209q-80 74 -80 224q0 72 21.5 134t67 103.5t107.5 41.5h189zM230 286h54v293h-51q-33 0 -51 -43.5t-18 -102.5q0 -60 17 -103.5t49 -43.5z" />
    <glyph glyph-name="uni0430" unicode="&#x430;" horiz-adv-x="477" 
d="M0 0l173 712h130l174 -712h-135l-15 65h-178l-15 -65h-134zM179 195h119l-60 285z" />
    <glyph glyph-name="uni0431" unicode="&#x431;" horiz-adv-x="456" 
d="M183 132h64q25 0 38.5 36.5t13.5 87.5t-13 88.5t-37 37.5h-66v-250zM50 0v712h346v-133h-214v-71h68q87 0 133.5 -72.5t46.5 -176.5t-47 -181.5t-131 -77.5h-202z" />
    <glyph glyph-name="uni0432" unicode="&#x432;" horiz-adv-x="457" 
d="M50 0v712h205q74 0 118 -63t44 -146q0 -90 -47 -140q56 -52 56 -153q0 -83 -44 -146.5t-118 -63.5h-214zM182 130h75q18 0 28.5 25t10.5 59q0 33 -11 58t-28 25h-75v-167zM182 417h64q18 0 28.5 24.5t10.5 58.5q0 33 -10.5 56.5t-28.5 23.5h-64v-163z" />
    <glyph glyph-name="uni0433" unicode="&#x433;" horiz-adv-x="406" 
d="M50 0v712h337v-133h-202v-579h-135z" />
    <glyph glyph-name="uni0434" unicode="&#x434;" horiz-adv-x="486" 
d="M9 -75v207h30q46 116 46 427v153h342v-580h47v-207h-132v75h-201v-75h-132zM169 132h127v447h-80v-13q0 -286 -47 -434z" />
    <glyph glyph-name="uni0435" unicode="&#x435;" horiz-adv-x="416" 
d="M50 0v712h336v-133h-202v-156h139v-132h-139v-159h202v-132h-336z" />
    <glyph glyph-name="uni0436" unicode="&#x436;" horiz-adv-x="697" 
d="M555 356l128 -356h-142l-99 291h-28v-291h-131v291h-28l-99 -291h-142l128 356l-128 356h142l99 -290h28v290h131v-290h28l99 290h143z" />
    <glyph glyph-name="uni0437" unicode="&#x437;" horiz-adv-x="409" 
d="M321 365q63 -47 63 -149q0 -100 -54 -162.5t-130 -62.5q-129 0 -198 176q56 19 124 44q39 -88 74 -88q21 0 36 28t15 65q0 30 -15.5 53t-40.5 23h-88v133h84q22 0 36.5 20t14.5 53q0 39 -13 64.5t-34 25.5q-18 0 -31 -19.5t-30 -60.5l-125 43q65 169 188 169
q75 0 125.5 -62t50.5 -161q0 -86 -52 -132z" />
    <glyph glyph-name="uni0438" unicode="&#x438;" horiz-adv-x="523" 
d="M50 0v712h131v-420l157 420h134v-712h-130v422l-157 -422h-135z" />
    <glyph glyph-name="uni0439" unicode="&#x439;" horiz-adv-x="523" 
d="M50 0v712h131v-420l157 420h134v-712h-130v422l-157 -422h-135zM109 873l105 41q32 -81 45 -81q2 0 4.5 1.5t5 4.5t4.5 6t5 9l5 10t5.5 12t5.5 12.5t5.5 13.5t5.5 13l104 -42q-61 -153 -150 -153q-88 0 -150 153z" />
    <glyph glyph-name="uni043A" unicode="&#x43a;" horiz-adv-x="476" 
d="M50 0v712h133v-290h34l99 290h144l-130 -356l129 -356h-143l-99 290h-34v-290h-133z" />
    <glyph glyph-name="uni043B" unicode="&#x43b;" horiz-adv-x="490" 
d="M99 712h341v-712h-131v579h-80q-2 -239 -20 -349q-16 -93 -49.5 -155t-99.5 -100l-72 108q39 28 60.5 64t32.5 107q18 107 18 458z" />
    <glyph glyph-name="uni043C" unicode="&#x43c;" horiz-adv-x="634" 
d="M50 0v712h151l115 -475l115 475h152v-712h-129v401q-79 -362 -87 -401h-102l-87 401v-401h-128z" />
    <glyph glyph-name="uni043D" unicode="&#x43d;" horiz-adv-x="498" 
d="M50 0v712h133v-289h131v289h133v-712h-133v291h-131v-291h-133z" />
    <glyph glyph-name="uni043E" unicode="&#x43e;" 
d="M19 357q0 156 111.5 267.5t268.5 111.5t269 -111.5t112 -267.5q0 -158 -111.5 -269.5t-269.5 -111.5q-157 0 -268.5 111.5t-111.5 269.5zM645 357q0 101 -72 172.5t-174 71.5q-101 0 -173 -72t-72 -172q0 -102 72 -174.5t173 -72.5q102 0 174 72.5t72 174.5z" />
    <glyph glyph-name="uni043F" unicode="&#x43f;" horiz-adv-x="496" 
d="M50 0v712h395v-712h-133v579h-129v-579h-133z" />
    <glyph glyph-name="uni0440" unicode="&#x440;" horiz-adv-x="455" 
d="M50 0v712h189q91 0 143 -83t52 -196q0 -115 -51.5 -197t-144.5 -82h-55v-154h-133zM183 286h54q32 0 48.5 43t16.5 104q0 60 -18 103t-50 43h-51v-293z" />
    <glyph glyph-name="uni0441" unicode="&#x441;" horiz-adv-x="749" 
d="M617 244l120 -63q-48 -93 -138 -149t-200 -56q-157 0 -268.5 111.5t-111.5 269.5q0 156 111.5 267.5t268.5 111.5q109 0 200 -56.5t138 -149.5l-120 -61q-31 60 -89 96t-129 36q-101 0 -173 -72t-72 -172q0 -102 72 -174.5t173 -72.5q70 0 128.5 36.5t89.5 97.5z" />
    <glyph glyph-name="uni0442" unicode="&#x442;" horiz-adv-x="438" 
d="M152 0v579h-131v133h395v-133h-131v-579h-133z" />
    <glyph glyph-name="uni0443" unicode="&#x443;" horiz-adv-x="436" 
d="M108 0q19 67 43 158q-35 136 -146 554h140l75 -325l75 325h140l-190 -712h-137z" />
    <glyph glyph-name="uni0444" unicode="&#x444;" 
d="M399 -24q-157 0 -268.5 111.5t-111.5 269.5q0 156 111.5 267.5t268.5 111.5t269 -111.5t112 -267.5q0 -158 -111.5 -269.5t-269.5 -111.5zM646 357q0 84 -50.5 150t-129.5 88v-478q79 21 129.5 88t50.5 152zM153 357q0 -85 50.5 -151.5t128.5 -88.5v478
q-78 -22 -128.5 -88.5t-50.5 -149.5z" />
    <glyph glyph-name="uni0445" unicode="&#x445;" horiz-adv-x="470" 
d="M151 362l-140 350h144q13 -36 39.5 -107t39.5 -107q13 36 39.5 107t39.5 107h145l-140 -350l145 -362h-144q-15 37 -43 112.5t-42 113.5l-84 -226h-144z" />
    <glyph glyph-name="uni0446" unicode="&#x446;" horiz-adv-x="494" 
d="M50 0v712h133v-580h120v580h133v-580h45v-208h-132v76h-299z" />
    <glyph glyph-name="uni0447" unicode="&#x447;" horiz-adv-x="465" 
d="M282 712h133v-712h-133v213q-52 -32 -95 -32q-148 0 -148 220v311h132v-312q0 -41 7.5 -63.5t31.5 -22.5q31 0 72 35v363z" />
    <glyph glyph-name="uni0448" unicode="&#x448;" horiz-adv-x="673" 
d="M50 0v712h131v-580h90v580h130v-580h91v580h131v-712h-573z" />
    <glyph glyph-name="uni0449" unicode="&#x449;" horiz-adv-x="681" 
d="M50 0v712h132v-580h89v580h130v-580h91v580h131v-580h46v-208h-132v76h-487z" />
    <glyph glyph-name="uni044A" unicode="&#x44a;" horiz-adv-x="454" 
d="M68 0v579h-61v133h194v-217h54q87 0 133.5 -73t46.5 -173t-47.5 -174.5t-130.5 -74.5h-189zM199 132h55q25 0 38.5 34.5t13.5 81.5q0 46 -13.5 80.5t-36.5 34.5h-57v-231z" />
    <glyph glyph-name="uni044B" unicode="&#x44b;" horiz-adv-x="619" 
d="M181 131h49q25 0 38 34.5t13 81.5q0 116 -56 116h-44v-232zM50 0v712h133v-217h49q89 0 131 -71t42 -174t-43.5 -176.5t-128.5 -73.5h-183zM436 712h133v-712h-133v712z" />
    <glyph glyph-name="uni044C" unicode="&#x44c;" horiz-adv-x="436" 
d="M182 132h54q25 0 38.5 34.5t13.5 81.5t-13 81t-37 34h-56v-231zM50 0v712h133v-217h55q59 0 100.5 -37t60 -91t18.5 -117q0 -100 -47.5 -175t-129.5 -75h-190z" />
    <glyph glyph-name="uni044D" unicode="&#x44d;" horiz-adv-x="749" 
d="M12 181l120 63q31 -61 89.5 -97.5t128.5 -36.5q83 0 148.5 50t85.5 128h-201v133h202q-20 78 -86 129t-149 51q-71 0 -129 -36t-89 -96l-120 61q48 93 138.5 149.5t199.5 56.5q157 0 268.5 -111.5t111.5 -267.5q0 -158 -111 -269.5t-269 -111.5q-109 0 -199 56t-139 149z
" />
    <glyph glyph-name="uni044E" unicode="&#x44e;" horiz-adv-x="974" 
d="M576 736q157 0 268 -111.5t111 -267.5q0 -158 -111 -269.5t-268 -111.5q-139 0 -241 89t-126 225h-27v-290h-132v712h132v-290h27q24 135 126.5 224.5t240.5 89.5zM576 110q102 0 173 72.5t71 174.5q0 101 -71 172.5t-173 71.5q-100 0 -171 -71.5t-71 -172.5
q0 -102 71 -174.5t171 -72.5z" />
    <glyph glyph-name="uni044F" unicode="&#x44f;" horiz-adv-x="468" 
d="M417 712v-712h-133v155h-54l-64 -155h-144l90 209q-80 74 -80 224q0 72 21.5 134t67 103.5t107.5 41.5h189zM230 286h54v293h-51q-33 0 -51 -43.5t-18 -102.5q0 -60 17 -103.5t49 -43.5z" />
    <glyph glyph-name="uni0451" unicode="&#x451;" horiz-adv-x="416" 
d="M50 0v712h336v-133h-202v-156h139v-132h-139v-159h202v-132h-336zM306 749q-34 0 -56.5 24t-22.5 59q0 34 22.5 58t56.5 24t58 -24t24 -58q0 -35 -24 -59t-58 -24zM127 914q34 0 57.5 -24t23.5 -58q0 -35 -23.5 -59t-57.5 -24t-57 24t-23 59q0 34 23 58t57 24z" />
    <glyph glyph-name="uni0452" unicode="&#x452;" horiz-adv-x="527" 
d="M143 0v580h-124v132h382v-132h-128v-88q36 21 68 21q58 0 96.5 -39.5t53 -93.5t14.5 -120q0 -56 -6.5 -98.5t-24 -81.5t-52.5 -60t-87 -21h-22v133h20q28 0 36 34.5t8 93.5q0 56 -12.5 88.5t-33.5 32.5q-23 0 -58 -24v-357h-130z" />
    <glyph glyph-name="uni0453" unicode="&#x453;" horiz-adv-x="406" 
d="M132 788l125 185l101 -74l-137 -174zM50 0v712h337v-133h-202v-579h-135z" />
    <glyph glyph-name="uni0454" unicode="&#x454;" horiz-adv-x="749" 
d="M737 181q-49 -93 -139 -149t-199 -56q-158 0 -269 111.5t-111 269.5q0 156 111.5 267.5t268.5 111.5q109 0 199.5 -56.5t138.5 -149.5l-120 -61q-31 60 -89 96t-129 36q-83 0 -149 -51t-86 -129h202v-133h-201q20 -78 85.5 -128t148.5 -50q70 0 128.5 36.5t89.5 97.5z
" />
    <glyph glyph-name="uni0455" unicode="&#x455;" horiz-adv-x="419" 
d="M13 92q15 17 45.5 48.5t45.5 48.5q66 -65 111 -65q24 0 38 20.5t14 46.5q0 25 -13.5 45.5t-35.5 36t-48.5 31t-53 35t-48.5 43t-35.5 60t-13.5 80.5q0 84 51 141t130 57q85 0 190 -90l-89 -100q-65 58 -101 58q-24 0 -36.5 -18.5t-12.5 -46.5t18.5 -51.5t46 -38.5
t59.5 -37t59.5 -45.5t46 -64.5t18.5 -94q0 -81 -52 -141t-132 -60q-95 0 -202 101z" />
    <glyph glyph-name="uni0456" unicode="&#x456;" horiz-adv-x="236" 
d="M50 0v712h135v-712h-135z" />
    <glyph glyph-name="uni0457" unicode="&#x457;" horiz-adv-x="236" 
d="M50 0v712h135v-712h-135zM207 755q-34 0 -57 24t-23 59t23 59t57 24q35 0 59 -24.5t24 -58.5q0 -35 -24 -59t-59 -24zM27 921q34 0 57.5 -24t23.5 -59t-23.5 -59t-57.5 -24t-57.5 24t-23.5 59t23.5 59t57.5 24z" />
    <glyph glyph-name="uni0458" unicode="&#x458;" horiz-adv-x="385" 
d="M-9 80l99 85q36 -40 58 -40q55 0 55 153v434h133v-439q0 -146 -54 -214t-140 -68q-76 0 -151 89z" />
    <glyph glyph-name="uni0459" unicode="&#x459;" horiz-adv-x="683" 
d="M98 712h338v-253h61q81 0 124.5 -67t43.5 -160t-44 -162.5t-121 -69.5h-195v579h-77q-1 -81 -2 -128t-4.5 -110.5t-10 -102t-19 -84t-30 -75t-43.5 -57t-60 -47.5q-48 72 -71 108q38 28 59 64t33 107q18 114 18 458zM493 131q21 0 32 29t11 69q0 38 -10.5 68.5
t-31.5 30.5h-59v-197h58z" />
    <glyph glyph-name="uni045A" unicode="&#x45a;" horiz-adv-x="683" 
d="M438 131h63q17 0 26 25t9 58q0 26 -9 54t-26 28h-63v-165zM507 428q76 0 117 -62t41 -148q0 -88 -41.5 -153t-113.5 -65h-203v296h-124v-296h-133v712h133v-284h124v284h133v-284h67z" />
    <glyph glyph-name="uni045B" unicode="&#x45b;" horiz-adv-x="526" 
d="M143 0v580h-124v132h382v-132h-126v-75q37 13 63 13q76 0 113.5 -51t37.5 -166v-301h-131v301q0 86 -38 86q-19 0 -45 -17v-370h-132z" />
    <glyph glyph-name="uni045C" unicode="&#x45c;" horiz-adv-x="476" 
d="M160 784l125 185l101 -74l-137 -174zM50 0v712h133v-290h34l99 290h144l-130 -356l129 -356h-143l-99 290h-34v-290h-133z" />
    <glyph glyph-name="uni045E" unicode="&#x45e;" horiz-adv-x="436" 
d="M108 0q19 67 43 158q-35 136 -146 554h140l75 -325l75 325h140l-190 -712h-137zM69 873l105 41q32 -81 45 -81q2 0 4.5 1.5t5 4.5t4.5 6t5 9l5 10t5.5 12t5.5 12.5t5.5 13.5t5.5 13l104 -42q-61 -153 -150 -153q-88 0 -150 153z" />
    <glyph glyph-name="uni045F" unicode="&#x45f;" horiz-adv-x="491" 
d="M50 0v712h133v-580h125v580h133v-712h-131v-76h-131v76h-129z" />
    <glyph glyph-name="uni0490" unicode="&#x490;" horiz-adv-x="406" 
d="M50 0v712h205v87h132v-220h-203v-579h-134z" />
    <glyph glyph-name="uni0491" unicode="&#x491;" horiz-adv-x="406" 
d="M50 0v712h205v87h132v-220h-203v-579h-134z" />
    <glyph glyph-name="Wgrave" unicode="&#x1e80;" horiz-adv-x="654" 
d="M654 712l-148 -712h-118q-18 111 -61 394l-62 -394h-118l-147 712h137q13 -71 38 -213t38 -213q39 265 60 426h108q21 -161 60 -426l75 426h138zM325 733l-137 174l100 74l126 -185z" />
    <glyph glyph-name="wgrave" unicode="&#x1e81;" horiz-adv-x="654" 
d="M654 712l-148 -712h-118q-18 111 -61 394l-62 -394h-118l-147 712h137q13 -71 38 -213t38 -213q39 265 60 426h108q21 -161 60 -426l75 426h138zM325 733l-137 174l100 74l126 -185z" />
    <glyph glyph-name="Wacute" unicode="&#x1e82;" horiz-adv-x="654" 
d="M654 712l-148 -712h-118q-18 111 -61 394l-62 -394h-118l-147 712h137q13 -71 38 -213t38 -213q39 265 60 426h108q21 -161 60 -426l75 426h138zM241 792l125 185l101 -74l-137 -174z" />
    <glyph glyph-name="wacute" unicode="&#x1e83;" horiz-adv-x="654" 
d="M654 712l-148 -712h-118q-18 111 -61 394l-62 -394h-118l-147 712h137q13 -71 38 -213t38 -213q39 265 60 426h108q21 -161 60 -426l75 426h138zM241 792l125 185l101 -74l-137 -174z" />
    <glyph glyph-name="Wdieresis" unicode="&#x1e84;" horiz-adv-x="654" 
d="M654 712l-148 -712h-118q-18 111 -61 394l-62 -394h-118l-147 712h137q13 -71 38 -213t38 -213q39 265 60 426h108q21 -161 60 -426l75 426h138zM235 754q-36 0 -60 25t-24 61t24 60.5t60 24.5q34 0 58.5 -25t24.5 -60q0 -36 -24 -61t-59 -25zM419 754q-35 0 -58.5 25
t-23.5 61t23.5 60.5t58.5 24.5t60 -25t25 -60q0 -36 -25 -61t-60 -25z" />
    <glyph glyph-name="wdieresis" unicode="&#x1e85;" horiz-adv-x="654" 
d="M654 712l-148 -712h-118q-18 111 -61 394l-62 -394h-118l-147 712h137q13 -71 38 -213t38 -213q39 265 60 426h108q21 -161 60 -426l75 426h138zM235 754q-36 0 -60 25t-24 61t24 60.5t60 24.5q34 0 58.5 -25t24.5 -60q0 -36 -24 -61t-59 -25zM419 754q-35 0 -58.5 25
t-23.5 61t23.5 60.5t58.5 24.5t60 -25t25 -60q0 -36 -25 -61t-60 -25z" />
    <glyph glyph-name="uni1E9E" unicode="&#x1e9e;" horiz-adv-x="519" 
d="M44 0v305q0 415 225 415q78 0 136.5 -63.5t83.5 -149.5l-114 -106q122 -78 122 -218q0 -83 -43.5 -137t-118.5 -54q-67 0 -148 76q10 11 27 30.5t31.5 35.5t26.5 31q39 -39 60 -39q36 0 36 55q0 113 -137 149v96l116 114q-26 49 -69 49q-25 0 -44 -13t-30 -40
t-17.5 -50.5t-9 -63.5t-3 -58t-0.5 -54v-310h-130z" />
    <glyph glyph-name="Ygrave" unicode="&#x1ef2;" horiz-adv-x="437" 
d="M152 0v165l-147 547h138l75 -322l76 322h138l-148 -547v-165h-132zM216 733l-137 174l100 74l126 -185z" />
    <glyph glyph-name="ygrave" unicode="&#x1ef3;" horiz-adv-x="437" 
d="M152 0v165l-147 547h138l75 -322l76 322h138l-148 -547v-165h-132zM216 733l-137 174l100 74l126 -185z" />
    <glyph glyph-name="endash" unicode="&#x2013;" horiz-adv-x="332" 
d="M15 286v132h302v-132h-302z" />
    <glyph glyph-name="emdash" unicode="&#x2014;" horiz-adv-x="449" 
d="M15 285v133h419v-133h-419z" />
    <glyph glyph-name="quoteleft" unicode="&#x2018;" horiz-adv-x="206" 
d="M162 809l50 -98q-51 -28 -72 -46q23 -7 36.5 -26t13.5 -41q0 -36 -26 -63.5t-64 -27.5q-42 0 -66 30.5t-24 76.5q0 65 39 110.5t113 84.5z" />
    <glyph glyph-name="quoteright" unicode="&#x2019;" horiz-adv-x="205" 
d="M43 452l-50 98q46 25 72 46q-24 8 -37 26.5t-13 41.5q0 36 25.5 63t64.5 27q42 0 66 -30t24 -77q0 -65 -38.5 -110t-113.5 -85z" />
    <glyph glyph-name="quotesinglbase" unicode="&#x201a;" horiz-adv-x="205" 
d="M43 -135l-51 98q50 27 73 46q-24 7 -37.5 25.5t-13.5 41.5q0 36 26 63.5t64 27.5q42 0 66.5 -30.5t24.5 -76.5q0 -65 -39 -110.5t-113 -84.5z" />
    <glyph glyph-name="quotedblleft" unicode="&#x201c;" horiz-adv-x="387" 
d="M344 809l50 -98q-51 -28 -72 -46q23 -7 36.5 -26t13.5 -41q0 -36 -25.5 -63.5t-63.5 -27.5q-41 0 -63.5 30t-22.5 77q0 66 37.5 111.5t109.5 83.5zM160 809l50 -98q-47 -26 -72 -46q46 -14 46 -67q0 -36 -24 -63.5t-61 -27.5q-41 0 -65 30.5t-24 76.5q0 65 38.5 110.5
t111.5 84.5z" />
    <glyph glyph-name="quotedblright" unicode="&#x201d;" horiz-adv-x="387" 
d="M43 452l-50 98q43 24 72 46q-51 17 -51 68q0 36 26 63t64 27q41 0 63 -29.5t22 -77.5q0 -66 -36.5 -111t-109.5 -84zM226 452l-50 98q46 25 72 46q-45 15 -45 68q0 36 23.5 63t60.5 27q42 0 66 -30t24 -77q0 -65 -38.5 -110t-112.5 -85z" />
    <glyph glyph-name="quotedblbase" unicode="&#x201e;" horiz-adv-x="387" 
d="M42 -135l-50 98q51 28 72 46q-23 7 -36.5 26t-13.5 41q0 36 25.5 63.5t63.5 27.5q41 0 63.5 -30t22.5 -77q0 -66 -37.5 -111.5t-109.5 -83.5zM226 -135l-50 98q47 26 72 46q-46 14 -46 67q0 36 24 63.5t61 27.5q41 0 65 -30.5t24 -76.5q0 -65 -38.5 -110.5t-111.5 -84.5z
" />
    <glyph glyph-name="dagger" unicode="&#x2020;" horiz-adv-x="380" 
d="M124 -135v678h-112v132h112v114h132v-114h111v-132h-111v-678h-132z" />
    <glyph glyph-name="daggerdbl" unicode="&#x2021;" horiz-adv-x="394" 
d="M130 -135v113h-111v132h111v433h-111v132h111v114h133v-114h111v-132h-111v-433h111v-132h-111v-113h-133z" />
    <glyph glyph-name="bullet" unicode="&#x2022;" horiz-adv-x="321" 
d="M12 356q0 62 43.5 105.5t104.5 43.5q62 0 105.5 -43.5t43.5 -105.5q0 -61 -43.5 -104.5t-105.5 -43.5t-105 43t-43 105z" />
    <glyph glyph-name="ellipsis" unicode="&#x2026;" horiz-adv-x="610" 
d="M14 84q0 38 27 64.5t66 26.5q37 0 62.5 -26.5t25.5 -64.5q0 -40 -25 -66.5t-63 -26.5q-40 0 -66.5 26.5t-26.5 66.5zM305 -9q-39 0 -64.5 26.5t-25.5 66.5q0 38 25.5 64.5t64.5 26.5q37 0 63.5 -26.5t26.5 -64.5q0 -40 -26 -66.5t-64 -26.5zM504 -9q-39 0 -64.5 26.5
t-25.5 66.5q0 38 25.5 64.5t64.5 26.5q38 0 64.5 -26.5t26.5 -64.5q0 -39 -26.5 -66t-64.5 -27z" />
    <glyph glyph-name="perthousand" unicode="&#x2030;" horiz-adv-x="844" 
d="M489 192q0 43 -9.5 68.5t-26.5 25.5t-26.5 -25.5t-9.5 -68.5t9.5 -68.5t26.5 -25.5t26.5 25.5t9.5 68.5zM328 192q0 82 36.5 141.5t88.5 59.5q55 0 89 -56.5t34 -144.5t-34 -144.5t-89 -56.5q-56 0 -90.5 56.5t-34.5 144.5zM132 613q-36 0 -36 -94q0 -95 36 -95
q16 0 25.5 26t9.5 69t-9.5 68.5t-25.5 25.5zM132 318q-55 0 -90 56.5t-35 144.5t35 144.5t90 56.5t89.5 -56.5t34.5 -144.5q0 -81 -36 -141t-88 -60zM119 0l243 712h104q-109 -319 -245 -712h-102zM719 393q54 0 89 -57t35 -144t-35 -144t-89 -57q-56 0 -90 56.5t-34 144.5
t34 144.5t90 56.5zM719 98q35 0 35 94t-35 94q-36 0 -36 -94t36 -94z" />
    <glyph glyph-name="guilsinglleft" unicode="&#x2039;" horiz-adv-x="219" 
d="M101 124l-95 232l94 239l113 -45l-84 -194l85 -187z" />
    <glyph glyph-name="guilsinglright" unicode="&#x203a;" horiz-adv-x="219" 
d="M5 169l84 187l-84 194l113 45l94 -239l-94 -232z" />
    <glyph glyph-name="franc" unicode="&#x20a3;" horiz-adv-x="413" 
d="M15 107v124h35v481h344v-133h-210v-155h143v-132h-143v-61h58v-124h-58v-107h-134v107h-35z" />
    <glyph glyph-name="Euro" unicode="&#x20ac;" horiz-adv-x="772" 
d="M2 230v109h43v34h-43v110h62q40 112 137.5 182.5t220.5 70.5q109 0 199.5 -56.5t137.5 -149.5l-120 -61q-31 60 -88.5 96t-128.5 36q-66 0 -122 -32.5t-87 -85.5h113v-110h-150v-34h150v-109h-113q31 -54 87 -87t122 -33q70 0 127.5 36.5t89.5 97.5l120 -63
q-48 -93 -138 -149t-199 -56q-122 0 -219.5 70.5t-137.5 183.5h-63z" />
    <glyph glyph-name="uni20BD" unicode="&#x20bd;" horiz-adv-x="444" 
d="M50 0v712h198q83 0 130 -75t47 -176q0 -99 -45.5 -167.5t-133.5 -68.5h-64v-37h114v-119h-113v-69h-133zM183 349h61q24 0 37 33.5t13 80.5t-13.5 81.5t-38.5 34.5h-59v-230z" />
    <glyph glyph-name="uni20BF" unicode="&#x20bf;" horiz-adv-x="456" 
d="M234 -106v106h-38v-106h-105v106h-41v712h41v106h105v-106h38v106h105v-134q37 -28 57.5 -77t20.5 -104q0 -89 -46 -140q56 -52 56 -153q0 -58 -23 -110t-65 -79v-127h-105zM182 130h76q18 0 28.5 25t10.5 59q0 33 -11 58t-28 25h-76v-167zM182 417h65q18 0 28.5 24.5
t10.5 58.5q0 33 -10.5 56.5t-28.5 23.5h-65v-163z" />
    <glyph glyph-name="afii61352" unicode="&#x2116;" horiz-adv-x="812" 
d="M185 712q71 -190 154 -416v416h129v-712h-134l-153 418v-418h-131v712h135zM745 0h-206v131h206v-131zM641 603q-33 0 -33 -142q0 -141 33 -141q34 0 34 141q0 142 -34 142zM641 203q-69 0 -107.5 72.5t-38.5 185.5q0 114 38.5 186t107.5 72q68 0 109 -72.5t41 -185.5
q0 -112 -41 -185t-109 -73z" />
    <glyph glyph-name="trademark" unicode="&#x2122;" horiz-adv-x="427" 
d="M194 442v270h67l41 -153l42 153h67v-270h-60v123l-29 -123h-41l-28 123v-123h-59zM63 442v210h-54v60h170v-60h-54v-210h-62z" />
    <glyph glyph-name="Omega" unicode="&#x2126;" horiz-adv-x="785" 
d="M701 0h-258v135q91 34 139.5 96.5t48.5 135.5q0 94 -69 164t-170 70t-169.5 -70t-68.5 -164q0 -74 48.5 -136t139.5 -96v-135h-259v131h60q-123 97 -123 245q0 140 106.5 250t265.5 110q106 0 193.5 -53t133.5 -135t46 -172q0 -147 -123 -245h59v-131z" />
    <glyph glyph-name="arrowleft" unicode="&#x2190;" horiz-adv-x="434" 
d="M209 -23l-189 328v102l189 327l114 -67l-149 -245h240v-132h-240l149 -246z" />
    <glyph glyph-name="arrowup" unicode="&#x2191;" horiz-adv-x="537" 
d="M203 40v378q-31 -55 -91 -165l-109 66q41 68 117.5 193.5t96.5 158.5h102l215 -352l-109 -66l-92 165v-378h-130z" />
    <glyph glyph-name="arrowright" unicode="&#x2192;" horiz-adv-x="434" 
d="M111 44l149 246h-240v132h240l-149 245l113 67l190 -327v-102l-190 -328z" />
    <glyph glyph-name="arrowdown" unicode="&#x2193;" horiz-adv-x="537" 
d="M217 40l-214 352l109 66l91 -164v377h130v-378l92 165l109 -66l-215 -352h-102z" />
    <glyph glyph-name="arrowboth" unicode="&#x2194;" horiz-adv-x="671" 
d="M467 734l184 -327v-102l-184 -327l-114 64l146 248h-327l146 -248l-115 -64l-183 327v102l183 327l115 -64l-146 -248h327l-146 248z" />
    <glyph glyph-name="arrowupdn" unicode="&#x2195;" horiz-adv-x="574" 
d="M22 471l214 352h102l214 -352l-109 -66l-92 168v-434l92 168l110 -66l-215 -352h-102l-215 352l109 66l92 -168v434l-92 -168z" />
    <glyph glyph-name="uni2196" unicode="&#x2196;" horiz-adv-x="434" 
d="M112 629h291v-131h-148l158 -320l-118 -58l-122 258v-296h-127v480z" />
    <glyph glyph-name="uni2197" unicode="&#x2197;" horiz-adv-x="434" 
d="M321 629l67 -67v-480h-128v296l-121 -258l-118 58l157 320h-148v131h291z" />
    <glyph glyph-name="uni2198" unicode="&#x2198;" horiz-adv-x="434" 
d="M321 82h-291v131h148l-157 320l118 58l121 -258v296h128v-480z" />
    <glyph glyph-name="uni2199" unicode="&#x2199;" horiz-adv-x="434" 
d="M403 82h-291l-66 67v480h127v-296l122 258l118 -58l-158 -320h148v-131z" />
    <glyph glyph-name="Delta" unicode="&#x2206;" horiz-adv-x="447" 
d="M160 129h128l-64 370zM23 0v113q75 365 122 599h159l119 -597v-115h-400z" />
    <glyph glyph-name="minus" unicode="&#x2212;" horiz-adv-x="347" 
d="M15 286v131h317v-131h-317z" />
    <glyph glyph-name="uni2713" unicode="&#x2713;" horiz-adv-x="485" 
d="M281 52h-122l-159 358l122 54l87 -208l182 629q24 -7 67 -19.5t60 -17.5z" />
    <glyph glyph-name="uni2715" unicode="&#x2715;" horiz-adv-x="574" 
d="M367 356l202 -335l-117 -69l-165 276l-166 -276l-117 69l203 335l-203 335l117 70l166 -277l165 277l117 -70z" />
    <glyph glyph-name="uni2717" unicode="&#x2717;" horiz-adv-x="505" 
d="M499 75l-112 -68l-135 224q-73 -121 -134 -224l-112 68l169 281l-169 280l112 68q44 -75 134 -225l135 225l112 -68l-170 -280z" />
    <glyph glyph-name="songer" unicode="&#x2b24;" horiz-adv-x="992" 
d="M737 905q102 -61 153.5 -218.5t51.5 -332.5t-51.5 -332.5t-153.5 -218.5q-51 -31 -116 -31q-67 0 -130 15q-193 45 -321 203.5t-128 363.5t127.5 363.5t321.5 204.5q65 14 130 14t116 -31z" />
    <glyph glyph-name="commaaccent" unicode="&#xf6c3;" horiz-adv-x="218" 
d="M124 -26q38 0 60 -28.5t22 -70.5q0 -53 -30.5 -91t-89.5 -73l-52 88q34 18 52 32q-43 13 -43 59q0 34 23 59t58 25z" />
    <glyph glyph-name="uni0414.ss02" horiz-adv-x="501" 
d="M13 0v132h49l103 580h171l101 -580h51v-132h-475zM196 131h110l-55 376z" />
    <glyph glyph-name="uni041B.ss02" horiz-adv-x="473" 
d="M0 0l162 712h150l161 -712h-140q-72 363 -97 485l-96 -485h-140z" />
    <glyph glyph-name="uni0426.ss02" horiz-adv-x="512" 
d="M50 0v712h133v-580h120v580h133v-580h67v-132h-453z" />
    <glyph glyph-name="uni0429.ss02" horiz-adv-x="699" 
d="M50 0v712h132v-580h89v580h130v-580h91v580h131v-580h67v-132h-640z" />
    <glyph glyph-name="zero.slash" 
d="M399 -24q-157 0 -268.5 111.5t-111.5 269.5q0 156 111.5 267.5t268.5 111.5t269 -111.5t112 -267.5q0 -158 -111.5 -269.5t-269.5 -111.5zM151 357q0 -111 79 -184l229 424q-30 8 -60 8q-102 0 -175 -73t-73 -175zM399 107q103 0 176 73t73 177q0 108 -79 181l-229 -424
q33 -7 59 -7z" />
    <glyph glyph-name="uni0414.loclBGR" horiz-adv-x="495" 
d="M434 132h51v-207h-132v75h-212v-75h-131v207h49q68 386 103 580h171q33 -194 101 -580zM247 507q-36 -250 -55 -376h110q-34 235 -55 376z" />
    <glyph glyph-name="uni0424.loclBGR" horiz-adv-x="820" 
d="M477 596v-480q83 20 137 86.5t54 154.5q0 86 -53.5 152.5t-137.5 86.5zM152 357q0 -87 53.5 -153.5t137.5 -87.5v480q-83 -20 -137 -87t-54 -152zM801 357q0 -141 -92.5 -247t-231.5 -128v-82h-134v82q-140 23 -232 128.5t-92 246.5q0 140 92.5 245t231.5 128v81h134v-81
q139 -23 231.5 -128t92.5 -245z" />
    <glyph glyph-name="K.ss02" horiz-adv-x="476" 
d="M50 0v712h133v-290h34l99 290h144l-130 -356l129 -356h-143l-99 290h-34v-290h-133z" />
    <glyph glyph-name="Kcommaaccent.ss02" horiz-adv-x="476" 
d="M50 0v712h133v-290h34l99 290h144l-130 -356l129 -356h-143l-99 290h-34v-290h-133zM246 -29q38 0 60 -28.5t22 -70.5q0 -54 -30.5 -91.5t-89.5 -72.5l-52 88q34 18 52 32q-43 13 -43 59q0 34 23 59t58 25z" />
    <glyph glyph-name="brevecyr" horiz-adv-x="324" 
d="M12 882l105 41q32 -81 45 -81q2 0 4.5 1.5t5 4.5t4.5 6t5 9l5 10t5.5 12t5.5 12.5t5.5 13.5t5.5 13l104 -42q-61 -153 -150 -153q-88 0 -150 153z" />
    <glyph glyph-name="uni041B.loclBGR" horiz-adv-x="473" 
d="M0 0l162 712h150l161 -712h-140q-72 363 -97 485l-96 -485h-140z" />
    <glyph glyph-name="zero.tf" horiz-adv-x="431" 
d="M217 124q28 0 44 65t16 167q0 103 -16 167.5t-44 64.5q-30 0 -45.5 -63.5t-15.5 -168.5t15.5 -168.5t45.5 -63.5zM217 -9q-93 0 -144.5 101t-51.5 264q0 162 51.5 263t144.5 101q92 0 142 -101t50 -263q0 -163 -50 -264t-142 -101z" />
    <glyph glyph-name="zeroslash.tf" horiz-adv-x="431" 
d="M216 112q35 0 54 68.5t19 179.5q0 67 -10 122l-82 -360q8 -10 19 -10zM216 599q-36 0 -55 -68t-19 -178q0 -61 9 -120l82 359q-6 7 -17 7zM216 720q92 0 142.5 -101t50.5 -263q0 -163 -50.5 -264t-142.5 -101q-93 0 -144 101t-51 264q0 162 51 263t144 101z" />
    <glyph glyph-name="one.tf" horiz-adv-x="431" 
d="M104 519l-63 118q117 69 126 75h119v-579h97v-133h-328v133h98v417q-43 -27 -49 -31z" />
    <glyph glyph-name="two.tf" horiz-adv-x="431" 
d="M44 0v135q90 65 153 156t63 174q0 57 -11.5 90t-31.5 33q-19 0 -32.5 -41t-17.5 -109l-132 10q9 133 60 202.5t122 69.5q70 0 121.5 -71t51.5 -189q0 -168 -172 -328h168v-132h-342z" />
    <glyph glyph-name="three.tf" horiz-adv-x="431" 
d="M23 206l130 22q18 -105 53 -105q22 0 35 26t13 57q0 36 -12.5 60.5t-39.5 24.5h-44v131h44q24 0 37 23t13 59q0 33 -13.5 58.5t-34.5 25.5q-13 0 -29 -27t-24 -74l-131 23q21 108 73.5 159t108.5 51q79 0 129.5 -63t50.5 -153q0 -89 -53 -146q57 -55 57 -152
q0 -93 -52.5 -154t-129.5 -61q-25 0 -48.5 8.5t-50.5 30t-49 67t-33 109.5z" />
    <glyph glyph-name="four.tf" horiz-adv-x="431" 
d="M18 120v130l172 462h161v-461h59v-131h-59v-120h-129v120h-204zM138 250h86v250z" />
    <glyph glyph-name="five.tf" horiz-adv-x="431" 
d="M242 504q64 0 106.5 -71.5t42.5 -175.5q0 -69 -19 -128t-61 -98.5t-99 -39.5q-44 0 -77 21t-52 57.5t-29.5 76.5t-14.5 86l130 10q11 -119 44 -119q22 0 34.5 39.5t12.5 93.5q0 123 -37 123q-28 0 -50 -73l-115 37l19 369h299v-133h-186l-6 -98q32 23 58 23z" />
    <glyph glyph-name="six.tf" horiz-adv-x="431" 
d="M130 600l57 137l122 -47l-65 -163q68 -4 113.5 -79.5t45.5 -181.5q0 -111 -49.5 -193t-137.5 -82t-137 81t-49 194q0 54 18.5 117.5t81.5 216.5zM216 123q26 0 40.5 43t14.5 100q0 58 -14.5 100t-40.5 42q-25 0 -39.5 -42t-14.5 -100t14.5 -100.5t39.5 -42.5z" />
    <glyph glyph-name="seven.tf" horiz-adv-x="431" 
d="M85 11q106 378 158 568h-206v133h348v-117q-127 -469 -169 -619z" />
    <glyph glyph-name="eight.tf" horiz-adv-x="431" 
d="M168 502q0 -38 13 -59.5t34 -21.5q20 0 33.5 21.5t13.5 59.5t-13.5 61.5t-33.5 23.5t-33.5 -24.5t-13.5 -60.5zM160 213q0 -36 16.5 -63.5t38.5 -27.5t38.5 27.5t16.5 63.5q0 41 -16 66.5t-39 25.5t-39 -25t-16 -67zM90 361q-17 15 -32.5 51t-15.5 87q0 96 50 158.5
t123 62.5q74 0 124 -62.5t50 -158.5q0 -51 -16 -87.5t-33 -51.5q20 -19 39.5 -56.5t19.5 -83.5q0 -101 -53 -165t-131 -64t-130.5 64t-52.5 165q0 47 19 85t39 56z" />
    <glyph glyph-name="nine.tf" horiz-adv-x="431" 
d="M214 588q-25 0 -39.5 -42.5t-14.5 -100.5t14 -100t40 -42t40.5 42t14.5 100t-14.5 100.5t-40.5 42.5zM300 110l-57 -136q-106 40 -122 46l66 163q-69 4 -114 79.5t-45 181.5q0 71 20 132t63.5 102t102.5 41q60 0 103.5 -40.5t63.5 -101.5t20 -133q0 -54 -19 -118.5
t-82 -215.5z" />
    <glyph glyph-name="dollar.tf" horiz-adv-x="431" 
d="M151 -105v112q-64 21 -131 85l91 97q66 -65 111 -65q24 0 38 20.5t14 46.5q0 25 -13.5 45.5t-35.5 36t-48.5 31t-53 35t-48.5 43t-35.5 60t-13.5 80.5q0 67 34 118t91 69v109h123v-113q57 -19 123 -75l-89 -100q-65 58 -101 58q-24 0 -36.5 -18.5t-12.5 -46.5t18.5 -51.5
t46 -38.5t59.5 -37t59.5 -45.5t46 -64.5t18.5 -94q0 -66 -36 -120t-96 -72v-105h-123z" />
    <glyph glyph-name="cent.tf" horiz-adv-x="431" 
d="M282 -97h-120v108q-49 29 -75 97t-26 150q0 81 26 149t75 97v109h120v-106q39 -16 62 -51.5t39 -95.5l-120 -32q-17 68 -39 68q-19 0 -30 -45.5t-11 -93.5t10.5 -93t30.5 -45q22 0 39 68l120 -33q-33 -118 -101 -146v-105z" />
    <glyph glyph-name="sterling.tf" horiz-adv-x="431" 
d="M168 132h230v-132h-370v125q19 29 25 55.5t9 84.5l9 140q3 41 6.5 71.5t11 70.5t20 68t31 53.5t47 38.5t64.5 13q92 0 179 -143l-111 -69q-51 80 -70 80q-24 0 -34.5 -66t-12.5 -122h125v-132h-137q-7 -94 -22 -136z" />
    <glyph glyph-name="yen.tf" horiz-adv-x="431" 
d="M56 83v110h88l-7 27h-81v113h51l-106 379h137l76 -296l77 296h137l-106 -379h53v-113h-83l-8 -27h91v-110h-95v-83h-132v83h-92z" />
    <glyph glyph-name="space.tf" horiz-adv-x="431" 
 />
    <glyph glyph-name="uni041B.ss03" horiz-adv-x="503" 
d="M-21 43l64 114q27 -19 34 -19q12 0 19.5 31.5t11.5 127.5t4 271v144h340v-712h-131v579h-78v-34q0 -68 -0.5 -111t-2.5 -101t-6.5 -94.5t-11.5 -79t-18.5 -68.5t-27.5 -49t-38 -33.5t-49 -10.5q-47 0 -110 45z" />
    <glyph glyph-name="uni0409.ss03" horiz-adv-x="696" 
d="M510 459q81 0 124.5 -67t43.5 -160t-44 -162.5t-121 -69.5h-195v579h-76v-89q0 -66 -1 -113.5t-5 -102t-10.5 -92.5t-17.5 -75t-27 -59.5t-39.5 -36t-52.5 -13.5q-47 0 -110 45q42 76 64 114q25 -19 34 -19q12 0 19.5 31.5t11.5 127.5t4 271v144h337v-253h61zM506 131
q21 0 32 29t11 69q0 36 -11 67.5t-31 31.5h-59v-197h58z" />
    <glyph glyph-name="dieresiscyr" horiz-adv-x="373" 
d="M275 754q-34 0 -56.5 24t-22.5 59q0 34 22.5 58t56.5 24t58 -24t24 -58q0 -35 -24 -59t-58 -24zM96 919q34 0 57.5 -24t23.5 -58q0 -35 -23.5 -59t-57.5 -24t-57 24t-23 59q0 34 23 58t57 24z" />
    <glyph glyph-name="uni0409.ss02" horiz-adv-x="657" 
d="M471 465q81 0 125 -68t44 -162q0 -95 -44 -165t-121 -70h-142l-97 485l-96 -485h-140l162 712h150l56 -247h103zM468 131q21 0 32 30t11 71q0 39 -11 70.5t-32 31.5h-72l46 -203h26z" />
    <glyph glyph-name="uni041A.ss02" horiz-adv-x="487" 
d="M50 0v712h134v-397l141 397h147l-154 -402l149 -310h-148l-86 183l-49 -104v-79h-134z" />
    <glyph glyph-name="uni040C.ss02" horiz-adv-x="487" 
d="M50 0v712h134v-397l141 397h147l-154 -402l149 -310h-148l-86 183l-49 -104v-79h-134zM164 784l125 185l101 -74l-137 -174z" />
    <glyph glyph-name="uni0416.ss02" horiz-adv-x="720" 
d="M294 322v390h133v-390l131 390h148l-149 -402l144 -310h-148q-15 34 -42.5 96t-39.5 88l-44 -90v-94h-133v94l-45 90q-15 -35 -43.5 -98.5t-38.5 -85.5h-148l144 310l-149 402h148z" />
    </font>
</defs>
</svg>
