<!-- icon666.com - MILLIONS vector ICONS FREE --><svg viewBox="0 0 128 128" xmlns="http://www.w3.org/2000/svg"><g id="coffee"><path d="m46.58 91.44a7.28 7.28 0 0 1 3.51 6.25v1.24a1.19 1.19 0 0 0 1.19 1.19h25.44a1.19 1.19 0 0 0 1.19-1.19v-1.51a7.32 7.32 0 0 1 3.19-6c4.44-3 7.59-6.06 8.64-8.27l.54-1.15h7.78a13.39 13.39 0 0 0 13.38-13.38v-.51a6.9 6.9 0 0 0 -6.89-6.89h-9.65v-5.91a8.64 8.64 0 0 0 -8.64-8.64h-44.52a8.64 8.64 0 0 0 -8.64 8.73l.15 13.79c0 12.23 8.35 19.19 13.33 22.25zm46.69-15.57a30.26 30.26 0 0 0 1.62-9.28v-2h9.62a3.45 3.45 0 0 1 3.49 3.48v.51a9.94 9.94 0 0 1 -9.93 9.94h-5.7z" fill="#000000" style="fill: rgb(205, 224, 255);"></path><path d="m102.24 72.79a6.5 6.5 0 0 0 1.47-2.42 11 11 0 0 0 .25-1.22.49.49 0 0 0 -.5-.53h-4.66a34.41 34.41 0 0 1 -1 5.9 10.91 10.91 0 0 0 1.41-.12 5.17 5.17 0 0 0 3.03-1.61z" fill="#000000" style="fill: rgb(205, 224, 255);"></path><path d="m88.29 90.89a52.68 52.68 0 0 1 -4.93 3.79 3.32 3.32 0 0 0 -1.45 2.74v1.51a5.2 5.2 0 0 1 -5.19 5.19h-25.44a5.2 5.2 0 0 1 -5.19-5.19v-1.24a3.32 3.32 0 0 0 -1.61-2.85 36 36 0 0 1 -5.18-3.84c-16.84 2.72-24.51 7.56-24.51 10.9 0 5.33 18.73 12.76 49.22 12.76s49.22-7.43 49.22-12.76c-.01-3.44-7.82-8.31-24.94-11.01z" fill="#000000" style="fill: rgb(205, 224, 255);"></path><path d="m79.37 33.17a2 2 0 0 1 .08-2.82 4.52 4.52 0 0 0 0-6.68l-1.33-1.25a8.51 8.51 0 0 1 0-12.5 2 2 0 1 1 2.74 2.91 4.51 4.51 0 0 0 0 6.67l1.33 1.26a8.51 8.51 0 0 1 0 12.5 2.15 2.15 0 0 1 -2.82-.09z" fill="#000000" style="fill: rgb(205, 224, 255);"></path><path d="m63.9 33.17a1.93 1.93 0 0 1 .1-2.82 4.52 4.52 0 0 0 0-6.68l-1.33-1.25a8.51 8.51 0 0 1 0-12.5 2 2 0 0 1 2.74 2.91 4.49 4.49 0 0 0 0 6.67l1.33 1.26a8.51 8.51 0 0 1 0 12.5 2.4 2.4 0 0 1 -2.84-.09z" fill="#000000" style="fill: rgb(205, 224, 255);"></path><path d="m48.44 33.17a2 2 0 0 1 .08-2.82 4.51 4.51 0 0 0 0-6.68l-1.34-1.25a8.51 8.51 0 0 1 0-12.5 2 2 0 0 1 2.75 2.91 4.5 4.5 0 0 0 0 6.67l1.34 1.26a8.51 8.51 0 0 1 0 12.5 2.28 2.28 0 0 1 -2.83-.09z" fill="#000000" style="fill: rgb(205, 224, 255);"></path></g></svg>