<!-- icon666.com - MILLIONS vector ICONS FREE --><svg version="1.1" id="Layer_1" xmlns="http://www.w3.org/2000/svg" xmlns:xlink="http://www.w3.org/1999/xlink" x="0px" y="0px" viewBox="0 0 512 512" style="enable-background:new 0 0 512 512;" xml:space="preserve"><g><g><path d="M303.204,275.066c-3.411-3.411-8.942-3.411-12.352,0c-5.861,5.861-13.656,9.09-21.945,9.09 c-8.289,0-16.084-3.228-21.945-9.09c-3.41-3.411-8.94-3.411-12.352,0c-3.411,3.411-3.411,8.94,0,12.352 c9.159,9.162,21.34,14.207,34.296,14.207c12.956,0,25.136-5.045,34.298-14.207C306.615,284.007,306.615,278.476,303.204,275.066z" fill="#000000" style="fill: rgb(205, 224, 255);"></path></g></g><g><g><path d="M346.89,155.758c-14.414-14.416-37.873-14.416-52.29,0c-3.411,3.411-3.411,8.94,0,12.352 c3.411,3.411,8.942,3.411,12.352,0c7.606-7.606,19.981-7.606,27.586,0c1.705,1.706,3.941,2.559,6.176,2.559 c2.235,0,4.471-0.852,6.176-2.559C350.301,164.698,350.301,159.169,346.89,155.758z" fill="#000000" style="fill: rgb(205, 224, 255);"></path></g></g><g><g><path d="M243.202,155.758c-14.414-14.416-37.872-14.418-52.29,0c-3.411,3.411-3.411,8.94,0,12.352 c3.411,3.411,8.942,3.411,12.352,0c7.606-7.606,19.979-7.606,27.586,0c1.705,1.706,3.941,2.559,6.176,2.559 s4.471-0.852,6.176-2.559C246.613,164.698,246.613,159.169,243.202,155.758z" fill="#000000" style="fill: rgb(205, 224, 255);"></path></g></g><g><g><path d="M326.353,353.294c-4.632-1.346-9.48,1.316-10.826,5.948c-5.988,20.591-25.16,34.972-46.624,34.972 c-21.463,0-40.636-14.381-46.624-34.972c-1.347-4.632-6.193-7.295-10.826-5.948c-4.633,1.346-7.295,6.193-5.947,10.826 c8.144,28.005,34.213,47.564,63.397,47.564c29.184-0.001,55.253-19.559,63.397-47.564 C333.648,359.487,330.985,354.641,326.353,353.294z" fill="#000000" style="fill: rgb(205, 224, 255);"></path></g></g><g><g><path d="M186.344,494.531h-35.643v-101.19c0-19.666,10.053-37.511,26.892-47.735c4.124-2.504,5.436-7.875,2.934-11.999 c-2.504-4.124-7.875-5.437-11.999-2.934c-22.101,13.418-35.296,36.845-35.296,62.667v109.925c0,4.824,3.911,8.734,8.734,8.734 h44.377c4.824,0,8.734-3.911,8.734-8.734S191.168,494.531,186.344,494.531z" fill="#000000" style="fill: rgb(205, 224, 255);"></path></g></g><g><g><path d="M395.845,478.057c-4.824,0-8.734,3.911-8.734,8.734v7.74H212.914c-4.824,0-8.734,3.911-8.734,8.734 S208.09,512,212.914,512h182.931c4.824,0,8.734-3.911,8.734-8.734v-16.474C404.579,481.968,400.669,478.057,395.845,478.057z" fill="#000000" style="fill: rgb(205, 224, 255);"></path></g></g><g><g><path d="M122.073,357.523h-17.6c-0.02,0-0.041,0-0.061,0H33.897c-6.926,0-12.56-5.634-12.56-12.56V191.785 c0-6.926,5.634-12.56,12.56-12.56h72.454c4.824,0,8.734-3.911,8.734-8.734c0-4.824-3.911-8.734-8.734-8.734H33.897 c-16.558,0-30.029,13.471-30.029,30.029v153.178c0,16.558,13.471,30.029,30.029,30.029H92.98l-5.419,18.702H71.997 c-4.824,0-8.734,3.911-8.734,8.734s3.911,8.734,8.734,8.734h40.76c4.824,0,8.734-3.911,8.734-8.734s-3.911-8.734-8.734-8.734 h-7.008l5.419-18.702h10.905c4.824,0,8.734-3.911,8.734-8.734S126.897,357.523,122.073,357.523z" fill="#000000" style="fill: rgb(205, 224, 255);"></path></g></g><g><g><path d="M144.783,313.269H35.312c-4.824,0-8.734,3.911-8.734,8.734c0,4.824,3.911,8.734,8.734,8.734h109.47 c4.824,0,8.734-3.911,8.734-8.734C153.517,317.18,149.606,313.269,144.783,313.269z" fill="#000000" style="fill: rgb(205, 224, 255);"></path></g></g><g><g><path d="M46.958,192.153c-4.824,0-8.734,3.911-8.734,8.734v16.304c0,4.824,3.911,8.734,8.734,8.734s8.734-3.911,8.734-8.734 v-16.304C55.692,196.064,51.782,192.153,46.958,192.153z" fill="#000000" style="fill: rgb(205, 224, 255);"></path></g></g><g><g><path d="M46.958,237.572c-4.824,0-8.734,3.911-8.734,8.734v16.304c0,4.824,3.911,8.734,8.734,8.734s8.734-3.911,8.734-8.734 v-16.304C55.692,241.482,51.782,237.572,46.958,237.572z" fill="#000000" style="fill: rgb(205, 224, 255);"></path></g></g><g><g><path d="M91.212,237.572c-4.824,0-8.734,3.911-8.734,8.734v16.304c0,4.824,3.911,8.734,8.734,8.734 c4.824,0,8.734-3.911,8.734-8.734v-16.304C99.946,241.482,96.036,237.572,91.212,237.572z" fill="#000000" style="fill: rgb(205, 224, 255);"></path></g></g><g><g><path d="M73.743,192.153c-4.824,0-8.734,3.911-8.734,8.734v16.304c0,4.824,3.911,8.734,8.734,8.734 c4.824,0,8.734-3.911,8.734-8.734v-16.304C82.478,196.064,78.567,192.153,73.743,192.153z" fill="#000000" style="fill: rgb(205, 224, 255);"></path></g></g><g><g><path d="M101.827,74.683c-3.262-1.351-7.02-0.604-9.518,1.894L80.081,88.805c-3.411,3.411-3.411,8.94,0,12.352 c2.614,2.615,6.474,3.225,9.669,1.832v23.436c0,4.824,3.911,8.734,8.734,8.734s8.734-3.911,8.734-8.734V82.753 C107.219,79.22,105.092,76.035,101.827,74.683z" fill="#000000" style="fill: rgb(205, 224, 255);"></path></g></g><g><g><path d="M502.739,231.831c-3.261-1.351-7.02-0.604-9.518,1.894l-12.228,12.228c-3.411,3.411-3.411,8.94,0,12.352 c2.615,2.615,6.473,3.225,9.669,1.832v23.436c0,4.824,3.911,8.734,8.734,8.734s8.734-3.911,8.734-8.734v-43.672 C508.131,236.369,506.004,233.184,502.739,231.831z" fill="#000000" style="fill: rgb(205, 224, 255);"></path></g></g><g><g><path d="M47.419,74.019c-12.561,0-22.78,10.219-22.78,22.779v15.581c0,12.561,10.219,22.779,22.78,22.779 s22.779-10.219,22.779-22.779V96.799C70.198,84.237,59.98,74.019,47.419,74.019z M52.73,112.38c0,2.929-2.382,5.31-5.31,5.31 s-5.312-2.383-5.312-5.31V96.799c0-2.929,2.383-5.31,5.312-5.31s5.31,2.383,5.31,5.31V112.38z" fill="#000000" style="fill: rgb(205, 224, 255);"></path></g></g><g><g><path d="M77.231,7.068c-3.262-1.351-7.02-0.604-9.518,1.894L55.485,21.19c-3.411,3.411-3.411,8.94,0,12.352 c2.615,2.615,6.473,3.226,9.669,1.832v23.436c0,4.824,3.911,8.734,8.734,8.734c4.824,0,8.734-3.911,8.734-8.734V15.137 C82.623,11.605,80.496,8.42,77.231,7.068z" fill="#000000" style="fill: rgb(205, 224, 255);"></path></g></g><g><g><path d="M112.728,6.403c-12.561,0-22.78,10.219-22.78,22.779v15.582c0.001,12.56,10.219,22.779,22.78,22.779 s22.779-10.219,22.779-22.779V29.182C135.507,16.621,125.289,6.403,112.728,6.403z M118.039,44.764c0,2.928-2.382,5.31-5.31,5.31 c-2.929,0-5.312-2.383-5.312-5.31V29.182c0-2.929,2.383-5.31,5.312-5.31c2.929,0,5.31,2.383,5.31,5.31V44.764z" fill="#000000" style="fill: rgb(205, 224, 255);"></path></g></g><g><g><path d="M446.218,231.167c-12.561,0-22.78,10.219-22.78,22.779v15.582c0,12.56,10.219,22.779,22.78,22.779 s22.779-10.219,22.779-22.779v-15.582C468.997,241.385,458.779,231.167,446.218,231.167z M451.528,269.528 c0,2.928-2.382,5.31-5.31,5.31s-5.312-2.383-5.312-5.31v-15.582c0-2.929,2.383-5.31,5.312-5.31c2.929,0,5.31,2.383,5.31,5.31 V269.528z" fill="#000000" style="fill: rgb(205, 224, 255);"></path></g></g><g><g><path d="M385.933,38.287C356.915,13.956,316.987,0,276.384,0c-81.559,0-126.782,36.369-141.909,70.403 c-13.662,30.741,4.798,67.49,10.534,77.651l-1.564,16.195c-17.952,1.967-31.969,17.217-31.969,35.684 c0,16.156,10.596,29.842,25.356,34.34c-1.382,32.23,13.572,63.504,39.831,82.584l47.802,34.725 c13.289,9.664,28.861,14.494,44.437,14.493c15.573-0.001,31.151-4.831,44.443-14.491l47.806-34.729 c26.258-19.079,41.213-50.354,39.831-82.585c14.762-4.5,25.36-18.184,25.36-34.339c0-18.464-14.017-33.713-31.972-35.683 l-1.838-19.028c-0.462-4.8-4.731-8.319-9.533-7.854c-4.802,0.464-8.319,4.732-7.855,9.533l2.221,23.005 c-5.366,3.231-11.084,5.857-17.051,7.826c-1.365,0.092-2.642,0.494-3.764,1.141c-7.328,2.043-14.901,3.091-22.545,3.091H203.746 c-8.188,0-16.317-1.197-24.161-3.554c-0.077-0.024-0.156-0.047-0.234-0.07c-6.619-2.01-12.968-4.842-18.907-8.411l1.543-15.983 c6.064-0.864,15.183-2.549,24.913-5.719c18.802-6.128,32.59-15.518,40.513-27.45c23.031,12.242,50.905,11.489,84.852-2.244 c24.702-9.994,50.133-7.817,75.587,6.469c19.651,11.029,31.954,25.465,32.067,25.597c2.358,2.815,6.226,3.852,9.679,2.597 c3.452-1.255,5.75-4.536,5.75-8.208C435.347,102.901,417.798,65.007,385.933,38.287z M138.44,216.065 c-5.681-3.144-9.496-9.189-9.496-16.133c0-8.18,5.359-15.123,12.746-17.527L138.44,216.065z M408.874,199.932 c0,6.943-3.816,12.986-9.499,16.132l-3.25-33.657C403.514,184.813,408.874,191.755,408.874,199.932z M291.034,199.434h42.973 c6.112,0,12.188-0.554,18.167-1.642v12.88c0,16.856-13.714,30.57-30.57,30.57c-16.856,0-30.57-13.714-30.57-30.57V199.434z M264.249,199.434h9.317v36.801c0,2.569-2.089,4.658-4.658,4.658c-1.257,0-2.429-0.481-3.304-1.356 c-0.873-0.873-1.354-2.046-1.354-3.303V199.434z M185.64,197.798c5.967,1.083,12.024,1.636,18.109,1.636h43.031v11.238 c0,16.856-13.714,30.57-30.57,30.57c-16.856,0-30.57-13.714-30.57-30.57V197.798z M168.171,192.986v17.686 c0,26.488,21.551,48.039,48.039,48.039c12.644,0,24.155-4.918,32.742-12.931c1.069,2.237,2.497,4.309,4.3,6.111 c4.173,4.173,9.732,6.472,15.655,6.472c8.786,0,16.369-5.16,19.939-12.597c8.589,8.023,20.106,12.947,32.758,12.947 c26.488,0,48.039-21.551,48.039-48.039v-17.704c3.254-1.22,6.442-2.604,9.55-4.148l4.057,42.024 c2.694,27.872-9.708,55.414-32.367,71.878l-47.807,34.729c-20.442,14.858-47.904,14.859-68.341-0.001l-47.805-34.728 c-22.659-16.464-35.062-44.007-32.367-71.88l4.056-42.003C161.731,190.385,164.919,191.768,168.171,192.986z M396.941,110.072 c-30.048-17.046-61.593-19.719-91.224-7.732c-32.689,13.225-57.04,12.901-76.641-1.019c-3.42-2.425-6.751-5.272-10.183-8.705 c-3.412-3.412-8.942-3.411-12.353,0c-3.411,3.411-3.411,8.94,0,12.352c2.157,2.157,4.295,4.124,6.447,5.945 c-10.987,16.777-38.791,23.834-54.208,25.882c-2.083-3.978-5.05-10.234-7.503-17.713c-3.745-11.408-6.928-27.881-0.839-41.584 c6.92-15.57,21.005-29.891,39.662-40.324c23.054-12.892,52.891-19.706,86.284-19.706c62.28,0,128.113,36.846,139.704,105.626 C410.771,118.837,404.336,114.267,396.941,110.072z" fill="#000000" style="fill: rgb(205, 224, 255);"></path></g></g><g><g><path d="M471.241,354.719c4.824,0,8.734-3.911,8.734-8.734v-10.877c0-14.288-11.625-25.912-25.912-25.912h-57.437 c-14.288,0-25.912,11.624-25.912,25.912v109.552c0,14.288,11.624,25.912,25.912,25.912h57.437 c14.288,0,25.912-11.624,25.912-25.912v-69.56c0-4.824-3.911-8.734-8.734-8.734c-4.824,0-8.734,3.911-8.734,8.734v34.833h-74.323 v-74.824c0-4.656,3.787-8.443,8.443-8.443h57.437c4.656,0,8.443,3.787,8.443,8.443v10.877 C462.507,350.808,466.417,354.719,471.241,354.719z M462.507,427.4v17.259c0,4.656-3.787,8.443-8.443,8.443h-57.437 c-4.656,0-8.443-3.787-8.443-8.443V427.4H462.507z" fill="#000000" style="fill: rgb(205, 224, 255);"></path></g></g><g><g><path d="M439.421,336.561h-28.155c-4.824,0-8.734,3.911-8.734,8.734c0,4.824,3.911,8.734,8.734,8.734h28.155 c4.824,0,8.734-3.911,8.734-8.734C448.155,340.471,444.245,336.561,439.421,336.561z" fill="#000000" style="fill: rgb(205, 224, 255);"></path></g></g><g><g><path d="M223.774,452.795l13.587-13.587c3.411-3.411,3.411-8.94,0-12.352c-3.411-3.411-8.942-3.411-12.352,0l-19.763,19.763 c-3.411,3.411-3.411,8.94,0,12.352l19.763,19.763c1.705,1.706,3.941,2.559,6.176,2.559c2.235,0,4.471-0.852,6.176-2.559 c3.411-3.411,3.411-8.94,0-12.352L223.774,452.795z" fill="#000000" style="fill: rgb(205, 224, 255);"></path></g></g><g><g><path d="M332.564,446.619l-19.763-19.763c-3.411-3.411-8.942-3.411-12.352,0c-3.411,3.411-3.411,8.94,0,12.352l13.587,13.587 l-13.587,13.587c-3.411,3.411-3.411,8.94,0,12.352c1.705,1.706,3.941,2.559,6.176,2.559c2.235,0,4.471-0.852,6.176-2.559 l19.763-19.763C335.975,455.56,335.975,450.03,332.564,446.619z" fill="#000000" style="fill: rgb(205, 224, 255);"></path></g></g><g><g><path d="M281.395,425.177c-4.338-2.109-9.565-0.302-11.674,4.036l-19.216,39.525c-2.109,4.338-0.302,9.565,4.036,11.674 c1.23,0.597,2.531,0.882,3.813,0.882c3.239,0,6.35-1.809,7.861-4.918l19.216-39.525 C287.54,432.513,285.733,427.286,281.395,425.177z" fill="#000000" style="fill: rgb(205, 224, 255);"></path></g></g><g><g><circle cx="321.796" cy="212.244" r="8.734" fill="#000000" style="fill: rgb(205, 224, 255);"></circle></g></g><g><g><circle cx="216.216" cy="212.244" r="8.734" fill="#000000" style="fill: rgb(205, 224, 255);"></circle></g></g><g><g><circle cx="424.862" cy="440.211" r="8.734" fill="#000000" style="fill: rgb(205, 224, 255);"></circle></g></g></svg>