<!-- icon666.com - MILLIONS vector ICONS FREE --><svg version="1.1" id="Capa_1" xmlns="http://www.w3.org/2000/svg" xmlns:xlink="http://www.w3.org/1999/xlink" x="0px" y="0px" viewBox="0 0 374.64 374.64" style="enable-background:new 0 0 374.64 374.64;" xml:space="preserve"><g><g><path d="M241.6,214.81c-14.262-14.307-33.639-22.339-53.84-22.32c-42.062-0.015-76.172,34.071-76.187,76.133 s34.071,76.172,76.133,76.187s76.172-34.071,76.187-76.133C263.901,248.475,255.881,229.098,241.6,214.81z M231.92,312.81v-0.32 c-24.411,24.389-63.971,24.371-88.36-0.04c-24.389-24.411-24.371-63.971,0.04-88.36c24.411-24.389,63.971-24.371,88.36,0.04 c11.715,11.725,18.291,27.625,18.28,44.2C250.332,285.011,243.734,301.033,231.92,312.81z" fill="#000000" style="fill: rgb(205, 224, 255);"></path></g></g><g><g><path d="M374.64,13.37c-0.038-2.682-1.031-5.263-2.8-7.28c-1.423-1.641-3.165-2.974-5.12-3.92c-2.181-1.118-4.589-1.72-7.04-1.76 h-104c-8,0-10.72,5.28-13.44,10.72l-0.4,0.88l-54.08,110.56L132.8,12.09l-0.4-0.88c-2.72-5.44-5.28-10.72-13.44-10.72h-104 c-2.451,0.04-4.859,0.642-7.04,1.76C5.965,3.196,4.223,4.529,2.8,6.17C1.031,8.186,0.038,10.767,0,13.45 c0.009,1.613,0.392,3.201,1.12,4.64l0.24,0.08L97.6,211.69c-31.13,49.684-16.09,115.196,33.594,146.326 c49.684,31.13,115.196,16.09,146.326-33.594c21.6-34.473,21.6-78.259,0-112.732l96-193.68 C374.248,16.571,374.631,14.982,374.64,13.37z M254.88,18.09l0.4-0.88c0.8-1.6,0.96-3.04,1.2-3.04h41.2l-72,155.36 c-5.632-2.174-11.44-3.86-17.36-5.04l-12.56-26.64L254.88,18.09z M118.88,14.17c0,0,0.48,1.52,1.2,3.04l0.4,0.88l61.04,122.8 l10.8,21.68h-4.56c-13.077-0.008-26.042,2.406-38.24,7.12l-72-155.36L118.88,14.17z M14.64,14.33l0.24-0.16H62.4l74.4,161.04 c-8.998,4.898-17.243,11.068-24.48,18.32c-2.027,2.027-3.947,4.107-5.76,6.24L14.64,14.33z M280.32,268.65 c0.011,51.12-41.421,92.569-92.54,92.58c-51.119,0.011-92.569-41.421-92.58-92.54c-0.011-51.119,41.421-92.569,92.54-92.58 c24.55-0.005,48.097,9.743,65.46,27.1C270.589,220.544,280.35,244.096,280.32,268.65z M268.64,199.85 c-1.867-2.187-3.787-4.267-5.76-6.24c-7.237-7.252-15.482-13.422-24.48-18.32l74.4-161.04l47.52-0.08h0.56L268.64,199.85z" fill="#000000" style="fill: rgb(205, 224, 255);"></path></g></g></svg>