<!-- icon666.com - MILLIONS vector ICONS FREE --><svg id="_x31__x2C_5" enable-background="new 0 0 24 24" viewBox="0 0 24 24" xmlns="http://www.w3.org/2000/svg"><path d="m1.75 24c-.414 0-.75-.336-.75-.75v-14.5c0-3.17 2.58-5.75 5.75-5.75h16.5c.414 0 .75.336.75.75s-.336.75-.75.75h-16.5c-2.343 0-4.25 1.907-4.25 4.25v14.5c0 .414-.336.75-.75.75z" fill="#000000" style="fill: rgb(205, 224, 255);"></path><path d="m15.75 14h-7.5c-1.792 0-3.25-1.458-3.25-3.25v-.5c0-1.792 1.458-3.25 3.25-3.25h7.5c1.792 0 3.25 1.458 3.25 3.25v.5c0 1.792-1.458 3.25-3.25 3.25zm-7.5-5.5c-.965 0-1.75.785-1.75 1.75v.5c0 .965.785 1.75 1.75 1.75h7.5c.965 0 1.75-.785 1.75-1.75v-.5c0-.965-.785-1.75-1.75-1.75z" fill="#000000" style="fill: rgb(205, 224, 255);"></path><path d="m14.5 12c-.827 0-1.5-.673-1.5-1.5s.673-1.5 1.5-1.5 1.5.673 1.5 1.5-.673 1.5-1.5 1.5z" fill="#000000" style="fill: rgb(205, 224, 255);"></path><path d="m9.5 12c-.827 0-1.5-.673-1.5-1.5s.673-1.5 1.5-1.5 1.5.673 1.5 1.5-.673 1.5-1.5 1.5z" fill="#000000" style="fill: rgb(205, 224, 255);"></path></svg>