<!-- icon666.com - MILLIONS vector ICONS FREE --><svg version="1.1" id="Capa_1" xmlns="http://www.w3.org/2000/svg" xmlns:xlink="http://www.w3.org/1999/xlink" x="0px" y="0px" viewBox="0 0 467.064 467.064" style="enable-background:new 0 0 467.064 467.064;" xml:space="preserve"><g><g><path d="M153.133,467.064h160.781c23.78,0,43.127-19.337,43.127-43.117V43.12c0-23.78-19.347-43.12-43.127-43.12H153.133 c-23.763,0-43.109,19.339-43.109,43.12v380.828C110.023,447.728,129.37,467.064,153.133,467.064z M121.873,43.12 c0-17.245,14.022-31.268,31.26-31.268h160.781c17.255,0,31.275,14.023,31.275,31.268v380.828 c0,17.245-14.021,31.271-31.275,31.271H153.133c-17.237,0-31.26-14.025-31.26-31.271V43.12z" fill="#000000" style="fill: rgb(205, 224, 255);"></path><path d="M233.517,390.539c-13.81,0-25.044,11.233-25.044,25.05c0,13.808,11.235,25.045,25.044,25.045 c13.81,0,25.057-11.237,25.057-25.045C258.574,401.782,247.327,390.539,233.517,390.539z M233.517,434.708 c-10.54,0-19.119-8.572-19.119-19.119c0-10.537,8.579-19.123,19.119-19.123c10.555,0,19.131,8.576,19.131,19.123 C252.648,426.126,244.072,434.708,233.517,434.708z" fill="#000000" style="fill: rgb(205, 224, 255);"></path><path d="M136.109,382.181H330.94c1.636,0,2.961-1.33,2.961-2.965V37.313c0-1.635-1.325-2.963-2.961-2.963H136.109 c-1.635,0-2.963,1.328-2.963,2.963v341.903C133.146,380.851,134.474,382.181,136.109,382.181z M146.971,40.276h173.108 c4.356,0,7.896,3.54,7.896,7.899v320.179c0,4.362-3.539,7.901-7.896,7.901H146.971c-4.359,0-7.899-3.539-7.899-7.901V48.175 C139.072,43.815,142.611,40.276,146.971,40.276z" fill="#000000" style="fill: rgb(205, 224, 255);"></path><path d="M233.532,403.062c-6.914,0-12.53,5.616-12.53,12.527c0,6.906,5.616,12.522,12.53,12.522 c6.898,0,12.515-5.616,12.515-12.522C246.047,408.678,240.431,403.062,233.532,403.062z M233.532,422.186 c-3.641,0-6.604-2.961-6.604-6.597c0-3.641,2.963-6.606,6.604-6.606c3.626,0,6.589,2.966,6.589,6.606 C240.121,419.225,237.158,422.186,233.532,422.186z" fill="#000000" style="fill: rgb(205, 224, 255);"></path></g></g></svg>