<!-- icon666.com - MILLIONS vector ICONS FREE --><svg viewBox="-74 0 512 512" xmlns="http://www.w3.org/2000/svg"><path d="m301.765625 0h-171.296875c-4.144531 0-7.5 3.359375-7.5 7.5s3.355469 7.5 7.5 7.5h171.296875c25.644531 0 46.507813 20.863281 46.507813 46.507812v388.984376c0 25.644531-20.863282 46.507812-46.507813 46.507812h-240.257813c-25.644531 0-46.507812-20.863281-46.507812-46.507812v-388.984376c0-25.644531 20.863281-46.507812 46.507812-46.507812h38.960938c4.140625 0 7.5-3.359375 7.5-7.5s-3.359375-7.5-7.5-7.5h-38.960938c-33.914062 0-61.507812 27.59375-61.507812 61.507812v388.984376c0 33.914062 27.59375 61.507812 61.507812 61.507812h240.257813c33.917969 0 61.507813-27.59375 61.507813-61.507812v-388.984376c0-33.914062-27.589844-61.507812-61.507813-61.507812zm0 0" fill="#000000" style="fill: rgb(205, 224, 255);"></path><path d="m54.007812 57.5v362c0 4.140625 3.359376 7.5 7.5 7.5h176.960938c4.140625 0 7.5-3.359375 7.5-7.5s-3.359375-7.5-7.5-7.5h-169.460938v-347h225.257813v347h-25.796875c-4.144531 0-7.5 3.359375-7.5 7.5s3.355469 7.5 7.5 7.5h33.296875c4.140625 0 7.5-3.359375 7.5-7.5v-362c0-4.140625-3.359375-7.5-7.5-7.5h-240.257813c-4.140624 0-7.5 3.359375-7.5 7.5zm0 0" fill="#000000" style="fill: rgb(205, 224, 255);"></path><path d="m124.917969 114.316406v-11.621094c0-4.140624-3.359375-7.5-7.5-7.5-4.144531 0-7.5 3.359376-7.5 7.5v11.621094c0 4.144532 3.355469 7.5 7.5 7.5 4.140625 0 7.5-3.355468 7.5-7.5zm0 0" fill="#000000" style="fill: rgb(205, 224, 255);"></path><path d="m253.355469 114.316406v-11.621094c0-4.140624-3.355469-7.5-7.5-7.5-4.140625 0-7.5 3.359376-7.5 7.5v11.621094c0 4.144532 3.359375 7.5 7.5 7.5 4.144531 0 7.5-3.355468 7.5-7.5zm0 0" fill="#000000" style="fill: rgb(205, 224, 255);"></path><path d="m181.636719 128.023438c8.34375 0 16.175781-3.492188 21.496093-9.578126 2.726563-3.117187 2.410157-7.855468-.710937-10.582031-3.117187-2.726562-7.855469-2.410156-10.582031.707031-2.472656 2.828126-6.191406 4.449219-10.203125 4.449219s-7.730469-1.621093-10.203125-4.449219c-2.726563-3.117187-7.464844-3.433593-10.582032-.710937-3.121093 2.730469-3.4375 7.464844-.710937 10.585937 5.320313 6.085938 13.15625 9.578126 21.496094 9.578126zm0 0" fill="#000000" style="fill: rgb(205, 224, 255);"></path><path d="m188.804688 32.5c0 3.957031-3.210938 7.167969-7.167969 7.167969s-7.167969-3.210938-7.167969-7.167969 3.210938-7.167969 7.167969-7.167969 7.167969 3.210938 7.167969 7.167969zm0 0" fill="#000000" style="fill: rgb(205, 224, 255);"></path><path d="m156.953125 462c0 13.613281 11.074219 24.6875 24.683594 24.6875 13.613281 0 24.6875-11.074219 24.6875-24.6875 0-13.609375-11.074219-24.683594-24.6875-24.683594s-24.683594 11.074219-24.683594 24.683594zm34.367187 0c0 5.339844-4.34375 9.6875-9.683593 9.6875-5.339844 0-9.6875-4.347656-9.6875-9.6875s4.347656-9.683594 9.6875-9.683594c5.339843 0 9.683593 4.34375 9.683593 9.683594zm0 0" fill="#000000" style="fill: rgb(205, 224, 255);"></path><path d="m89.03125 221.378906v86.976563c0 15.738281 12.808594 28.546875 28.546875 28.546875h128.117187c15.742188 0 28.546876-12.808594 28.546876-28.546875v-86.976563c0-15.738281-12.804688-28.546875-28.546876-28.546875h-16.054687c-2.730469 0-5.148437-1.835937-5.875-4.464843l-3.855469-13.878907c-2.890625-10.394531-12.441406-17.65625-23.230468-17.65625h-30.085938c-10.789062 0-20.339844 7.261719-23.230469 17.65625l-3.851562 13.878907c-.730469 2.628906-3.148438 4.464843-5.875 4.464843h-16.058594c-15.738281 0-28.546875 12.808594-28.546875 28.546875zm15 0c0-7.46875 6.078125-13.546875 13.546875-13.546875h16.058594c9.441406 0 17.800781-6.351562 20.328125-15.449219l3.851562-13.878906c1.09375-3.929687 4.703125-6.671875 8.777344-6.671875h30.085938c4.078124 0 7.683593 2.742188 8.777343 6.671875l3.855469 13.878906c2.527344 9.097657 10.882812 15.449219 20.328125 15.449219h16.054687c7.46875 0 13.546876 6.078125 13.546876 13.546875v86.976563c0 7.46875-6.078126 13.546875-13.546876 13.546875h-128.117187c-7.46875 0-13.546875-6.078125-13.546875-13.546875zm0 0" fill="#000000" style="fill: rgb(205, 224, 255);"></path><path d="m181.636719 292.5c20.125 0 36.5-16.375 36.5-36.5s-16.375-36.5-36.5-36.5-36.5 16.375-36.5 36.5 16.375 36.5 36.5 36.5zm0-58c11.855469 0 21.5 9.644531 21.5 21.5s-9.644531 21.5-21.5 21.5-21.5-9.644531-21.5-21.5 9.644531-21.5 21.5-21.5zm0 0" fill="#000000" style="fill: rgb(205, 224, 255);"></path></svg>