<!-- icon666.com - MILLIONS vector ICONS FREE --><svg version="1.1" id="Capa_1" xmlns="http://www.w3.org/2000/svg" xmlns:xlink="http://www.w3.org/1999/xlink" x="0px" y="0px" viewBox="0 0 512.2 512.2" style="enable-background:new 0 0 512.2 512.2;" xml:space="preserve"><g><g><path d="M105.2,69.062c-8.2-8.2-20.9-9.9-30.9-4.1s-14.9,17.7-11.9,28.9c3,11.2,13.2,18.9,24.7,18.9c10.4,0,19.7-6.2,23.7-15.8 C114.8,87.363,112.6,76.363,105.2,69.062z M90.4,95.063c-3.2,1.3-6.9,0.6-9.3-1.8c-1.6-1.6-2.5-3.8-2.5-6c0-2.3,0.9-4.5,2.5-6.1 c2.4-2.4,6.1-3.2,9.3-1.9c3.2,1.3,5.3,4.4,5.3,7.9S93.6,93.762,90.4,95.063z" fill="#000000" style="fill: rgb(205, 224, 255);"></path></g></g><g><g><path d="M473.8,121.663c16.8-23.7,14-56.1-6.5-76.7c-20.6-20.6-53-23.3-76.7-6.5c-82.4-51.2-186.6-51.2-269,0 c-23.7-16.8-56.1-14.1-76.7,6.5c-20.6,20.6-23.3,53-6.5,76.7c-51.2,82.4-51.2,186.6,0,269c-17,23.6-14.4,56.1,6.2,76.7 c20.6,20.6,53,23.3,76.7,6.3c82.5,51.3,187,51.3,269.5,0c23.7,16.8,56,14.1,76.6-6.4c20.5-20.5,23.2-52.9,6.4-76.6 C525,308.262,525,204.062,473.8,121.663z M461.8,377.462l-25-25c32.1-60.2,32.1-132.4,0-192.5l25-25 C506.1,209.663,506.1,302.663,461.8,377.462z M256.1,443.863c-103.7,0-187.7-84.1-187.7-187.7s84-187.7,187.7-187.7 s187.7,84,187.7,187.7C443.7,359.762,359.7,443.762,256.1,443.863z M394.9,57.163c0.4-0.4,0.8-0.8,1.3-1.2 c0.3-0.2,0.5-0.4,0.8-0.6c16.8-15,42.3-14.2,58.2,1.7c15.9,15.9,16.7,41.4,1.8,58.3c-0.2,0.2-0.4,0.5-0.6,0.8 c-0.4,0.5-0.8,0.9-1.2,1.3l-27.4,27.4c-15.7-24.1-36.2-44.6-60.3-60.3L394.9,57.163z M377.4,50.463l-25,25 c-60.2-32.1-132.4-32.1-192.5,0l-25-25C209.6,6.163,302.6,6.163,377.4,50.463z M57,57.063c15.9-16,41.4-16.8,58.3-1.8 c0.2,0.2,0.5,0.4,0.8,0.6c0.5,0.4,0.9,0.8,1.3,1.2l27.4,27.4c-24.1,15.7-44.6,36.2-60.3,60.3l-27.4-27.4c-0.4-0.4-0.8-0.8-1.2-1.3 c-0.2-0.3-0.4-0.5-0.6-0.8C40.3,98.463,41.1,72.963,57,57.063z M50.4,134.863l25,25c-32.1,60.2-32.1,132.4,0,192.5l-25,25 C6.1,302.663,6.1,209.663,50.4,134.863z M117.3,455.163c-0.4,0.4-0.8,0.8-1.3,1.2c-0.3,0.2-0.5,0.4-0.8,0.6 c-16.8,15-42.3,14.2-58.2-1.7c-16-15.9-16.8-41.4-1.8-58.3c0.2-0.2,0.4-0.5,0.6-0.8c0.4-0.5,0.8-0.9,1.2-1.3l27.4-27.4 c15.7,24.1,36.2,44.6,60.3,60.3L117.3,455.163z M134.8,461.863l25-25c60.2,32.1,132.4,32.1,192.5,0l25,25 C302.6,506.163,209.6,506.163,134.8,461.863z M455.2,455.262c-15.9,15.9-41.4,16.7-58.3,1.8c-0.2-0.2-0.5-0.4-0.8-0.6 c-0.5-0.4-0.9-0.8-1.3-1.2l-27.4-27.4c24.1-15.7,44.6-36.2,60.3-60.3l27.4,27.4c0.4,0.4,0.8,0.8,1.2,1.3c0.2,0.3,0.4,0.5,0.6,0.8 C471.9,413.863,471.1,439.363,455.2,455.262z" fill="#000000" style="fill: rgb(205, 224, 255);"></path></g></g><g><g><path d="M105.2,406.962c-10-9.9-26.2-9.9-36.2,0c-10,10-10,26.2,0,36.2s26.2,10,36.2,0S115.2,416.962,105.2,406.962z M93.2,431.163c-2.4,2.4-6.1,3.2-9.3,1.9c-3.2-1.3-5.3-4.4-5.3-7.9s2.1-6.6,5.3-7.9s6.9-0.6,9.3,1.9 C96.5,422.462,96.5,427.863,93.2,431.163z" fill="#000000" style="fill: rgb(205, 224, 255);"></path></g></g><g><g><path d="M437.9,64.963c-10-5.8-22.7-4.1-30.9,4.1c-7.3,7.3-9.5,18.3-5.6,27.9c4,9.6,13.3,15.8,23.7,15.8c11.6,0,21.7-7.8,24.7-19 C452.8,82.563,447.9,70.762,437.9,64.963z M428.3,95.063c-3.2,1.3-6.9,0.6-9.3-1.9c-3.3-3.3-3.3-8.7,0-12c2.4-2.4,6.1-3.2,9.3-1.9 c3.2,1.3,5.3,4.4,5.3,7.9S431.5,93.762,428.3,95.063z" fill="#000000" style="fill: rgb(205, 224, 255);"></path></g></g><g><g><path d="M316.4,195.863c-15.9-16.1-37.7-25.1-60.3-25c-40.7,0-75.8,28.8-83.7,68.7c-7.9,39.9,13.4,79.9,51,95.5 c37.6,15.6,81,2.4,103.6-31.4C349.6,269.762,345.2,224.663,316.4,195.863z M304.4,304.462c-23,23-59.1,26.6-86.2,8.5 c-27.1-18.1-37.6-52.8-25.1-82.9c12.5-30.1,44.4-47.2,76.4-40.8c31.9,6.4,54.9,34.4,54.9,67 C324.4,274.262,317.2,291.663,304.4,304.462z" fill="#000000" style="fill: rgb(205, 224, 255);"></path></g></g><g><g><path d="M292.3,219.863c-9.6-9.5-22.6-14.9-36.2-14.9c-24.4,0-45.5,17.3-50.2,41.2c-4.7,23.9,8.1,48,30.6,57.3s48.6,1.5,62.2-18.9 C312.3,264.262,309.6,237.163,292.3,219.863z M280.2,280.262c-13.5,12.9-34.8,12.9-48.3,0c-9.8-9.8-12.7-24.4-7.4-37.2 c5.3-12.8,17.7-21.1,31.5-21.1c13.8,0,26.3,8.3,31.5,21.1C292.9,255.863,290,270.562,280.2,280.262z" fill="#000000" style="fill: rgb(205, 224, 255);"></path></g></g><g><g><path d="M256.1,392.663c-75.4-0.1-136.4-61.2-136.5-136.5c0-4.7-3.8-8.5-8.5-8.5s-8.5,3.8-8.5,8.5 c0.1,84.8,68.8,153.5,153.6,153.6c4.7,0,8.5-3.8,8.5-8.5S260.8,392.663,256.1,392.663z" fill="#000000" style="fill: rgb(205, 224, 255);"></path></g></g><g><g><path d="M256.1,102.563c-4.7,0-8.5,3.8-8.5,8.5c0,4.7,3.8,8.5,8.5,8.5c75.4,0.1,136.4,61.2,136.5,136.5c0,4.7,3.8,8.5,8.5,8.5 s8.5-3.8,8.5-8.5C409.6,171.363,340.9,102.663,256.1,102.563z" fill="#000000" style="fill: rgb(205, 224, 255);"></path></g></g><g><g><path d="M437.9,402.863c-10-5.8-22.7-4.1-30.9,4.1c-7.3,7.3-9.5,18.3-5.6,27.9c4,9.6,13.3,15.9,23.7,15.8c11.6,0,21.7-7.8,24.7-19 S447.9,408.663,437.9,402.863z M428.3,432.962c-3.2,1.3-6.9,0.6-9.3-1.9c-3.3-3.2-3.3-8.6,0-12c2.4-2.4,6.1-3.2,9.3-1.9 c3.2,1.3,5.3,4.4,5.3,7.9S431.5,431.663,428.3,432.962z" fill="#000000" style="fill: rgb(205, 224, 255);"></path></g></g></svg>