<!-- icon666.com - MILLIONS vector ICONS FREE --><svg id="Capa_1" enable-background="new 0 0 512 512" viewBox="0 0 512 512" xmlns="http://www.w3.org/2000/svg"><path d="m512 407.886v-47.048l-26.099-8.915c-1.813-5.677-4.087-11.148-6.782-16.366l12.153-24.762-33.268-33.268-24.762 12.153c-5.219-2.695-10.689-4.969-16.366-6.782l-8.915-26.099h-47.048l-8.915 26.099c-5.677 1.813-11.148 4.087-16.366 6.782l-24.762-12.153-33.268 33.268 12.153 24.762c-2.696 5.219-4.969 10.689-6.782 16.366l-26.099 8.915v47.048l26.099 8.915c1.813 5.677 4.087 11.148 6.782 16.366l-12.153 24.762 33.268 33.268 24.762-12.153c5.219 2.695 10.689 4.969 16.366 6.782l8.915 26.099h47.048l8.915-26.099c5.677-1.814 11.148-4.087 16.366-6.782l24.762 12.153 33.268-33.268-12.153-24.762c2.695-5.219 4.969-10.689 6.782-16.366zm-127.563 43.055c-36.711 0-66.578-29.867-66.578-66.579s29.867-66.578 66.578-66.578 66.578 29.867 66.578 66.578-29.868 66.579-66.578 66.579z" fill="#000000" style="fill: rgb(205, 224, 255);"></path><path d="m226.872 360.838v-21.455l20.304-6.934 6.538-2.234-3.044-6.202-9.453-19.26 15.171-15.171 33.268-33.268 15.171-15.171 19.26 9.453 6.202 3.044 2.233-6.538 6.935-20.303h21.455.421v-105.557l-165.666 95.152v195.509l31.205-17.923z" fill="#000000" style="fill: rgb(205, 224, 255);"></path><path d="m384.437 347.784c-20.169 0-36.578 16.409-36.578 36.578s16.409 36.579 36.578 36.579 36.578-16.409 36.578-36.579-16.41-36.578-36.578-36.578z" fill="#000000" style="fill: rgb(205, 224, 255);"></path><path d="m180.667 190.413 165.696-95.169-165.696-95.17-165.697 95.169z" fill="#000000" style="fill: rgb(205, 224, 255);"></path><path d="m165.667 216.394-165.667-95.153v195.509l165.667 95.153z" fill="#000000" style="fill: rgb(205, 224, 255);"></path></svg>