<!-- icon666.com - MILLIONS vector ICONS FREE --><svg version="1.1" id="Capa_1" xmlns="http://www.w3.org/2000/svg" xmlns:xlink="http://www.w3.org/1999/xlink" x="0px" y="0px" viewBox="0 0 432.162 432.162" style="enable-background:new 0 0 432.162 432.162;" xml:space="preserve"><g><path d="M223.065,193.257h-30.081v-58.922c0-3.611-2.573-6.709-6.123-7.373c-3.539-0.663-7.067,1.297-8.371,4.665l-37.582,97.069 c-0.894,2.307-0.591,4.906,0.807,6.947c1.398,2.041,3.714,3.261,6.188,3.261h30.082v58.922c0,3.611,2.573,6.709,6.123,7.373 c0.462,0.086,0.924,0.128,1.381,0.128c3.048,0,5.856-1.864,6.99-4.792l37.581-97.069c0.894-2.307,0.591-4.906-0.807-6.947 C227.854,194.477,225.539,193.257,223.065,193.257z M192.984,257.681v-26.277c0-4.142-3.357-7.5-7.5-7.5h-26.636l19.136-49.425 v26.278c0,4.142,3.357,7.5,7.5,7.5h26.635L192.984,257.681z" fill="#000000" style="fill: rgb(205, 224, 255);"></path><path d="M409.776,144.785h-38.808V117.39c0-11.333-9.221-20.554-20.555-20.554H20.554C9.221,96.837,0,106.057,0,117.39v197.381 c0,11.333,9.221,20.554,20.554,20.554h329.86c11.334,0,20.555-9.221,20.555-20.554v-27.395h38.808 c12.344,0,22.386-10.042,22.386-22.386v-97.819C432.162,154.827,422.12,144.785,409.776,144.785z M355.969,314.771 c0,3.063-2.492,5.554-5.555,5.554H20.554c-3.063,0-5.554-2.492-5.554-5.554V117.39c0-3.063,2.491-5.554,5.554-5.554h329.86 c3.063,0,5.555,2.491,5.555,5.554V314.771z M417.162,264.99c0,4.073-3.313,7.386-7.386,7.386h-38.808V159.785h38.808 c4.072,0,7.386,3.313,7.386,7.386V264.99z" fill="#000000" style="fill: rgb(205, 224, 255);"></path><path d="M401.98,187.715c-4.143,0-7.5,3.358-7.5,7.5v31.333c0,4.142,3.357,7.5,7.5,7.5s7.5-3.358,7.5-7.5v-31.333 C409.48,191.073,406.123,187.715,401.98,187.715z" fill="#000000" style="fill: rgb(205, 224, 255);"></path><path d="M408.903,170.61c-1.74-4.131-6.833-5.858-10.714-3.593c-4.209,2.456-4.868,8.319-1.515,11.773 c2.48,2.41,6.323,2.882,9.276,1.052C409.028,177.936,410.286,173.949,408.903,170.61C408.714,170.16,409.094,171.07,408.903,170.61 z" fill="#000000" style="fill: rgb(205, 224, 255);"></path></g></svg>