<!-- icon666.com - MILLIONS vector ICONS FREE --><svg id="Layer_1" enable-background="new 0 0 58 58" viewBox="0 0 58 58" xmlns="http://www.w3.org/2000/svg"><path d="m26.291 30.707c.195.195.451.293.707.293s.512-.098.707-.293l1.293-1.293 1.293 1.293c.195.195.451.293.707.293s.512-.098.707-.293c.391-.391.391-1.023 0-1.414l-1.293-1.293 1.293-1.293c.391-.391.391-1.023 0-1.414s-1.023-.391-1.414 0l-1.293 1.293-1.293-1.293c-.391-.391-1.023-.391-1.414 0s-.391 1.023 0 1.414l1.292 1.293-1.293 1.293c-.39.391-.39 1.023.001 1.414z" fill="#000000" style="fill: rgb(205, 224, 255);"></path><path d="m28.998 36c4.411 0 8-3.589 8-8s-3.589-8-8-8-8 3.589-8 8 3.588 8 8 8zm0-14c3.309 0 6 2.691 6 6s-2.691 6-6 6-6-2.691-6-6 2.691-6 6-6z" fill="#000000" style="fill: rgb(205, 224, 255);"></path><path d="m52.999 24.734c-.001-1.915-.001-3.055-.067-3.734h.066c0-2.757-2.243-5-5-5h-6.422c0-.021.005-.041.004-.062-.017-.549-.263-1.073-.675-1.436-3.287-2.903-7.516-4.502-11.907-4.502s-8.62 1.599-11.907 4.502c-.412.364-.659.887-.676 1.437-.001.021.004.041.004.062h-6.421c-2.757 0-5 2.243-5 5v24.068c0 .019 0 .037.001.055.066 2.7 2.283 4.876 4.999 4.876h12v2.101c-1.956.399-3.5 1.943-3.899 3.899h-2.101c-.552 0-1 .448-1 1s.448 1 1 1h26c.553 0 1-.448 1-1s-.447-1-1-1h-2.101c-.399-1.956-1.943-3.5-3.899-3.899v-2.101h12.005c2.757 0 5-2.243 5-5zm-24.001-12.734c6.646 0 10.468 3.932 10.584 4.002-.131.131-2.934 2.934-2.834 2.833-2.149-1.819-4.894-2.826-7.75-2.835-2.837 0-5.59 1.007-7.75 2.836l-2.833-2.834c2.921-2.581 6.679-4.002 10.583-4.002zm-19 6h7.586l2.25 2.25c.729.729 1.917.777 2.706.112 1.8-1.523 4.093-2.362 6.475-2.362 2.363.008 4.651.847 6.442 2.362.378.319.836.478 1.293.478.512 0 1.021-.198 1.412-.59l2.25-2.25h7.586c1.654 0 3 1.346 3 3 0 .05.003 11.982.004 19h-44.004v-19c0-1.654 1.345-3 3-3zm27.815 38h-17.631c.414-1.161 1.514-2 2.816-2h12c1.301 0 2.401.839 2.815 2zm-3.815-4h-10v-2h10zm14.004-4h-38.004c-1.654 0-3-1.346-3-3v-3h44.004c0 1.808.001 2.976.001 3-.001 1.654-1.346 3-3.001 3z" fill="#000000" style="fill: rgb(205, 224, 255);"></path><path d="m12.75 13.167c.39.39.901.587 1.414.587.482 0 .965-.174 1.349-.525 3.69-3.372 8.479-5.229 13.485-5.229 5.005 0 9.794 1.857 13.485 5.229.791.722 2.004.696 2.763-.062l2.827-2.828c.383-.381.597-.911.587-1.456-.012-.54-.245-1.06-.641-1.426-5.189-4.809-11.944-7.457-19.021-7.457s-13.832 2.648-19.02 7.455c-.398.367-.632.888-.643 1.429s.203 1.071.585 1.453zm16.248-11.167c6.571 0 12.844 2.458 17.662 6.923l-2.828 2.829c-4.061-3.709-9.329-5.752-14.834-5.752s-10.774 2.043-14.833 5.752l-2.828-2.83c4.817-4.464 11.09-6.922 17.661-6.922z" fill="#000000" style="fill: rgb(205, 224, 255);"></path><circle cx="45.998" cy="45" r="1" fill="#000000" style="fill: rgb(205, 224, 255);"></circle></svg>