<!-- icon666.com - MILLIONS vector ICONS FREE --><svg version="1.1" id="Capa_1" xmlns="http://www.w3.org/2000/svg" xmlns:xlink="http://www.w3.org/1999/xlink" x="0px" y="0px" viewBox="0 0 512 512" style="enable-background:new 0 0 512 512;" xml:space="preserve"><g><g><path d="M256,0C188.532,0,124.496,26.88,75.688,75.688C26.88,124.496,0,188.532,0,256c0,139.481,116.134,256,256,256 c139.481,0,256-116.134,256-256C512,116.519,395.866,0,256,0z M96.901,415.099C11.255,329.454,7.845,197.225,86.639,107.852 l26.815,26.815c-10.11,6.838-19.785,14.425-28.931,22.75c-6.126,5.576-6.573,15.063-0.998,21.19 c5.575,6.126,15.062,6.573,21.19,0.998c9.529-8.672,19.707-16.438,30.401-23.275l21.723,21.723 c-12.761,7.556-24.738,16.608-35.68,27.084c-5.984,5.729-6.19,15.225-0.461,21.208c5.729,5.984,15.225,6.19,21.208,0.46 c11.172-10.696,23.616-19.643,36.97-26.716l22.538,22.538c-16.302,7.228-31.205,17.655-43.631,30.838 c-5.683,6.028-5.402,15.521,0.626,21.204c6.028,5.683,15.522,5.402,21.204-0.626c12.613-13.381,28.006-22.984,44.938-28.279 l25.482,25.482c-22.939,1.796-43.455,14.16-56.006,32.543c-4.671,6.842-2.912,16.175,3.93,20.846 c6.847,4.674,16.178,2.907,20.846-3.93c7.022-10.286,18.045-17.272,30.243-19.169c24.864-3.87,41.106,13.323,46.499,15.221 L404.15,425.361C314.775,504.154,182.547,500.744,96.901,415.099z M425.361,404.149l-162.95-162.951 c26.722,1.591,51.372,13.106,69.977,32.844c5.687,6.034,15.181,6.304,21.204,0.626c6.028-5.682,6.309-15.175,0.626-21.204 C328.781,226.478,292.982,211,256,211c-7.39,0-14.732,0.628-21.954,1.833l-25.048-25.048C224.085,183.317,239.885,181,256,181 c42.726,0,83.245,16.267,114.094,45.804c5.984,5.73,15.479,5.522,21.208-0.46c5.729-5.984,5.523-15.479-0.461-21.208 C354.382,170.226,306.494,151,256,151c-24.488,0-48.358,4.535-70.613,13.174l-22.815-22.815C191.641,128.046,223.429,121,256,121 c56.032,0,109.759,20.813,151.285,58.604c6.127,5.576,15.613,5.129,21.19-0.998c5.576-6.127,5.129-15.614-0.998-21.19 C380.416,114.587,319.517,91,256,91c-40.686,0-80.291,9.693-115.88,27.907l-32.268-32.268C150.677,48.884,203.334,29.99,256,29.99 c57.246,0,114.492,22.304,159.099,66.911C500.745,182.547,504.154,314.775,425.361,404.149z" fill="#000000" style="fill: rgb(205, 224, 255);"></path></g></g><g><g><path d="M256,331c-24.813,0-45,20.187-45,45s20.187,45,45,45s45-20.187,45-45S280.813,331,256,331z M256,391 c-8.271,0-15-6.729-15-15s6.729-15,15-15s15,6.729,15,15S264.271,391,256,391z" fill="#000000" style="fill: rgb(205, 224, 255);"></path></g></g></svg>