<!-- icon666.com - MILLIONS vector ICONS FREE --><svg id="Capa_1" enable-background="new 0 0 512 512" viewBox="0 0 512 512" xmlns="http://www.w3.org/2000/svg"><g><path d="m497 181h-45v-45c0-8.284-6.716-15-15-15h-309.498l-101.204-115.867c-5.45-6.24-14.927-6.879-21.165-1.43-6.24 5.45-6.88 14.926-1.431 21.165l83.967 96.132h-72.669c-8.284 0-15 6.716-15 15v240c0 8.284 6.716 15 15 15h308.498l101.204 115.868c5.462 6.253 14.939 6.868 21.165 1.43 6.24-5.45 6.88-14.926 1.431-21.165l-83.966-96.133h73.668c8.284 0 15-6.716 15-15v-45h45c8.284 0 15-6.716 15-15v-120c0-8.284-6.715-15-15-15zm-467 180v-210h83.872l183.423 210zm392 0h-84.872l-183.422-210h268.294zm60-60h-30v-90h30z" fill="#000000" style="fill: rgb(205, 224, 255);"></path></g></svg>