<!-- icon666.com - MILLIONS vector ICONS FREE --><svg version="1.1" id="Capa_1" xmlns="http://www.w3.org/2000/svg" xmlns:xlink="http://www.w3.org/1999/xlink" x="0px" y="0px" viewBox="0 0 511.999 511.999" style="enable-background:new 0 0 511.999 511.999;" xml:space="preserve"><g><g><path d="M346.478,51.649h-32.465c-4.142,0-7.5,3.358-7.5,7.5c0,4.143,3.357,7.5,7.5,7.5h32.465c4.143,0,7.5-3.357,7.5-7.5 S350.622,51.649,346.478,51.649z" fill="#000000" style="fill: rgb(205, 224, 255);"></path></g></g><g><g><path d="M291.699,53.841c-1.39-1.391-3.33-2.19-5.31-2.19c-1.971,0-3.91,0.8-5.3,2.19c-1.4,1.4-2.2,3.33-2.2,5.31 c0,1.97,0.8,3.91,2.2,5.3c1.399,1.4,3.329,2.2,5.3,2.2c1.98,0,3.91-0.799,5.31-2.2c1.391-1.39,2.2-3.33,2.2-5.3 C293.899,57.172,293.089,55.241,291.699,53.841z" fill="#000000" style="fill: rgb(205, 224, 255);"></path></g></g><g><g><path d="M328.372,33.28c-0.1-0.479-0.239-0.95-0.43-1.41c-0.19-0.449-0.42-0.88-0.69-1.29c-0.27-0.409-0.59-0.789-0.93-1.14 c-0.35-0.35-0.73-0.66-1.14-0.93c-0.41-0.271-0.85-0.51-1.3-0.691c-0.45-0.189-0.921-0.33-1.4-0.43c-0.97-0.2-1.97-0.19-2.93,0 c-0.48,0.1-0.95,0.24-1.41,0.43c-0.45,0.181-0.891,0.42-1.29,0.691c-0.41,0.269-0.8,0.58-1.141,0.93 c-0.35,0.351-0.659,0.73-0.93,1.14c-0.27,0.41-0.51,0.841-0.689,1.29c-0.19,0.46-0.33,0.931-0.431,1.41 c-0.1,0.48-0.149,0.971-0.149,1.46c0,0.49,0.05,0.98,0.149,1.471c0.101,0.479,0.24,0.949,0.431,1.399 c0.179,0.451,0.419,0.891,0.689,1.3c0.271,0.41,0.58,0.79,0.93,1.141c0.341,0.34,0.73,0.66,1.141,0.93 c0.399,0.271,0.84,0.5,1.29,0.69c0.46,0.189,0.93,0.33,1.41,0.43c0.479,0.1,0.97,0.14,1.46,0.14c0.489,0,0.989-0.04,1.47-0.14 c0.479-0.1,0.95-0.24,1.4-0.43c0.449-0.19,0.89-0.42,1.3-0.69s0.79-0.59,1.14-0.93c0.34-0.351,0.66-0.731,0.93-1.141 c0.271-0.409,0.5-0.85,0.69-1.3c0.19-0.45,0.33-0.92,0.43-1.399c0.09-0.49,0.141-0.98,0.141-1.471 C328.513,34.251,328.462,33.761,328.372,33.28z" fill="#000000" style="fill: rgb(205, 224, 255);"></path></g></g><g><g><path d="M97.445,90.148c-4.143,0-7.5,3.357-7.5,7.5v23.158c0,4.143,3.357,7.5,7.5,7.5c4.142,0,7.5-3.357,7.5-7.5V97.649 C104.946,93.506,101.588,90.148,97.445,90.148z" fill="#000000" style="fill: rgb(205, 224, 255);"></path></g></g><g><g><path d="M97.445,149.736c-4.143,0-7.5,3.357-7.5,7.5v23.158c0,4.143,3.357,7.5,7.5,7.5c4.142,0,7.5-3.357,7.5-7.5v-23.158 C104.946,153.093,101.588,149.736,97.445,149.736z" fill="#000000" style="fill: rgb(205, 224, 255);"></path></g></g><g><g><path d="M97.445,209.324c-4.143,0-7.5,3.357-7.5,7.5v23.158c0,4.143,3.357,7.5,7.5,7.5c4.142,0,7.5-3.357,7.5-7.5v-23.158 C104.946,212.682,101.589,209.324,97.445,209.324z" fill="#000000" style="fill: rgb(205, 224, 255);"></path></g></g><g><g><path d="M316.436,424.328c-17.898,0-32.46,14.561-32.46,32.461c0,17.898,14.562,32.46,32.46,32.46 c17.899,0,32.461-14.561,32.461-32.46S334.336,424.328,316.436,424.328z M316.436,474.248c-9.627,0-17.459-7.833-17.459-17.459 c0-9.628,7.832-17.46,17.459-17.46c9.628,0,17.46,7.832,17.46,17.46C333.896,466.415,326.063,474.248,316.436,474.248z" fill="#000000" style="fill: rgb(205, 224, 255);"></path></g></g><g><g><path d="M321.259,449.724h-9.647c-1.232,0-2.241,1.008-2.241,2.24v9.647c0,1.232,1.008,2.24,2.241,2.24h9.647 c1.232,0,2.241-1.008,2.241-2.24v-9.647C323.5,450.732,322.492,449.724,321.259,449.724z" fill="#000000" style="fill: rgb(205, 224, 255);"></path></g></g><g><g><path d="M408.234,0H224.638c-24.027,0-43.576,19.548-43.576,43.576v424.848c0,24.027,19.548,43.576,43.576,43.576h6.823 c4.143,0,7.5-3.357,7.5-7.5s-3.357-7.5-7.5-7.5h-6.823c-15.756,0-28.575-12.819-28.575-28.575V43.576 c0-15.756,12.819-28.575,28.575-28.575h183.596c15.756,0,28.575,12.819,28.575,28.575v424.848 c0,15.756-12.819,28.575-28.575,28.575H266.464c-4.143,0-7.5,3.357-7.5,7.5s3.357,7.5,7.5,7.5h141.771 c24.027,0,43.576-19.548,43.576-43.576V43.576C451.81,19.548,432.262,0,408.234,0z" fill="#000000" style="fill: rgb(205, 224, 255);"></path></g></g><g><g><path d="M414.63,77.994H218.243h-0.001v0c-6.332,0-11.78,3.864-14.108,9.359c-1.871,4.415-1.205-14.808-1.205,313.843 c0,8.443,6.869,15.314,15.315,15.314H414.63c8.444,0,15.314-6.869,15.314-15.314c0-10.745,0-297.121,0-307.888 C429.944,84.863,423.074,77.994,414.63,77.994z M414.942,109.46h-24.748c-4.143,0-7.5,3.357-7.5,7.5s3.357,7.5,7.5,7.5h24.748 v276.736c0,0.172-0.141,0.313-0.313,0.313c-205.031-0.147-196.7,0.307-196.7-0.313V124.461h137.262c4.142,0,7.5-3.357,7.5-7.5 s-3.358-7.5-7.5-7.5H217.93c0.14-16.383-0.295-16.465,0.314-16.465H414.63C415.237,92.995,414.802,93.023,414.942,109.46z" fill="#000000" style="fill: rgb(205, 224, 255);"></path></g></g><g><g><path d="M128.203,399.008c4.143,0,7.5-3.357,7.5-7.5V19.501C135.703,8.749,126.954,0,116.202,0h-12.438 C79.736,0,60.189,19.548,60.189,43.576v424.848c0,24.027,19.548,43.576,43.576,43.576h12.438c10.753,0,19.501-8.748,19.501-19.501 V426.51c0-4.143-3.357-7.5-7.5-7.5c-4.143,0-7.5,3.357-7.5,7.5v65.988c0,2.44-2.061,4.5-4.5,4.5h-12.438 c-15.756,0-28.575-12.819-28.575-28.575V43.576c0-15.756,12.819-28.575,28.575-28.575h12.438c2.439,0,4.5,2.06,4.5,4.5v372.007 C120.703,395.651,124.06,399.008,128.203,399.008z" fill="#000000" style="fill: rgb(205, 224, 255);"></path></g></g><g><g><path d="M255.59,353.706h-20.07c-5.979,0-10.846,4.865-10.846,10.846v20.07c0,5.979,4.865,10.846,10.846,10.846h20.07 c5.98,0,10.846-4.865,10.846-10.846v-20.07C266.436,358.572,261.57,353.706,255.59,353.706z M251.435,380.466h-11.76v-11.76h11.76 V380.466z" fill="#000000" style="fill: rgb(205, 224, 255);"></path></g></g><g><g><path d="M302.84,353.706h-20.07c-5.98,0-10.846,4.865-10.846,10.846v20.07c0,5.979,4.865,10.846,10.846,10.846h20.07 c5.98,0,10.846-4.865,10.846-10.846v-20.07C313.685,358.572,308.82,353.706,302.84,353.706z M298.685,380.466h-11.76v-11.76h11.76 V380.466z" fill="#000000" style="fill: rgb(205, 224, 255);"></path></g></g><g><g><path d="M350.09,353.706h-20.07c-5.979,0-10.846,4.865-10.846,10.846v20.07c0,5.979,4.865,10.846,10.846,10.846h20.07 c5.98,0,10.846-4.865,10.846-10.846v-20.07C360.935,358.572,356.07,353.706,350.09,353.706z M345.934,380.466h-11.76v-11.76h11.76 V380.466z" fill="#000000" style="fill: rgb(205, 224, 255);"></path></g></g><g><g><path d="M397.34,353.705h-20.07c-5.979,0-10.846,4.865-10.846,10.846v20.07c0,5.98,4.866,10.846,10.846,10.846h20.07 c5.979,0,10.846-4.865,10.846-10.846v-20.07C408.185,358.572,403.32,353.705,397.34,353.705z M393.184,380.467h-11.76v-11.76 h11.76V380.467z" fill="#000000" style="fill: rgb(205, 224, 255);"></path></g></g><g><g><path d="M255.59,130.807h-20.07c-5.979,0-10.846,4.865-10.846,10.846v20.07c0,5.979,4.865,10.846,10.846,10.846h20.07 c5.98,0,10.846-4.865,10.846-10.846v-20.07C266.436,135.672,261.57,130.807,255.59,130.807z M251.435,157.568h-11.76v-11.76h11.76 V157.568z" fill="#000000" style="fill: rgb(205, 224, 255);"></path></g></g><g><g><path d="M302.84,130.807h-20.07c-5.98,0-10.846,4.865-10.846,10.846v20.07c0,5.979,4.865,10.846,10.846,10.846h20.07 c5.98,0,10.846-4.865,10.846-10.846v-20.07C313.685,135.672,308.82,130.807,302.84,130.807z M298.685,157.568h-11.76v-11.76h11.76 V157.568z" fill="#000000" style="fill: rgb(205, 224, 255);"></path></g></g><g><g><path d="M350.09,130.807h-20.07c-5.979,0-10.846,4.865-10.846,10.846v20.07c0,5.979,4.865,10.846,10.846,10.846h20.07 c5.98,0,10.846-4.865,10.846-10.846v-20.07C360.935,135.672,356.07,130.807,350.09,130.807z M345.934,157.568h-11.76v-11.76h11.76 V157.568z" fill="#000000" style="fill: rgb(205, 224, 255);"></path></g></g><g><g><path d="M397.34,130.807h-20.07c-5.979,0-10.846,4.865-10.846,10.846v20.07c0,5.979,4.866,10.846,10.846,10.846h20.07 c5.979,0,10.846-4.865,10.846-10.846v-20.07C408.185,135.673,403.32,130.807,397.34,130.807z M393.184,157.568h-11.76v-11.76 h11.76V157.568z" fill="#000000" style="fill: rgb(205, 224, 255);"></path></g></g><g><g><path d="M255.59,178.523h-20.07c-5.979,0-10.846,4.865-10.846,10.846v20.07c0,5.979,4.865,10.846,10.846,10.846h20.07 c5.98,0,10.846-4.865,10.846-10.846v-20.07C266.436,183.388,261.57,178.523,255.59,178.523z M251.435,205.282h-11.76v-11.76h11.76 V205.282z" fill="#000000" style="fill: rgb(205, 224, 255);"></path></g></g><g><g><path d="M302.84,178.523h-20.07c-5.98,0-10.846,4.865-10.846,10.846v20.07c0,5.979,4.865,10.846,10.846,10.846h20.07 c5.98,0,10.846-4.865,10.846-10.846v-20.07C313.685,183.388,308.82,178.523,302.84,178.523z M298.685,205.282h-11.76v-11.76h11.76 V205.282z" fill="#000000" style="fill: rgb(205, 224, 255);"></path></g></g><g><g><path d="M350.09,178.523h-20.07c-5.979,0-10.846,4.865-10.846,10.846v20.07c0,5.979,4.865,10.846,10.846,10.846h20.07 c5.98,0,10.846-4.865,10.846-10.846v-20.07C360.935,183.388,356.07,178.523,350.09,178.523z M345.934,205.282h-11.76v-11.76h11.76 V205.282z" fill="#000000" style="fill: rgb(205, 224, 255);"></path></g></g><g><g><path d="M397.34,178.522h-20.07c-5.979,0-10.846,4.865-10.846,10.846v20.07c0,5.98,4.866,10.846,10.846,10.846h20.07 c5.979,0,10.846-4.865,10.846-10.846v-20.07C408.185,183.388,403.32,178.522,397.34,178.522z M393.184,205.283h-11.76v-11.76 h11.76V205.283z" fill="#000000" style="fill: rgb(205, 224, 255);"></path></g></g><g><g><path d="M255.59,226.859h-20.07c-5.979,0-10.846,4.865-10.846,10.846v20.07c0,5.98,4.865,10.846,10.846,10.846h20.07 c5.98,0,10.846-4.865,10.846-10.846v-20.07C266.436,231.724,261.57,226.859,255.59,226.859z M251.435,253.619h-11.76v-11.76h11.76 V253.619z" fill="#000000" style="fill: rgb(205, 224, 255);"></path></g></g><g><g><path d="M302.84,226.859h-20.07c-5.98,0-10.846,4.865-10.846,10.846v20.07c0,5.98,4.865,10.846,10.846,10.846h20.07 c5.98,0,10.846-4.865,10.846-10.846v-20.07C313.685,231.724,308.82,226.859,302.84,226.859z M298.685,253.619h-11.76v-11.76h11.76 V253.619z" fill="#000000" style="fill: rgb(205, 224, 255);"></path></g></g><g><g><path d="M350.09,226.859h-20.07c-5.979,0-10.846,4.865-10.846,10.846v20.07c0,5.98,4.865,10.846,10.846,10.846h20.07 c5.98,0,10.846-4.865,10.846-10.846v-20.07C360.935,231.724,356.07,226.859,350.09,226.859z M345.934,253.619h-11.76v-11.76h11.76 V253.619z" fill="#000000" style="fill: rgb(205, 224, 255);"></path></g></g><g><g><path d="M397.34,226.858h-20.07c-5.979,0-10.846,4.865-10.846,10.846v20.07c0,5.98,4.866,10.846,10.846,10.846h20.07 c5.979,0,10.846-4.865,10.846-10.846v-20.07C408.185,231.723,403.32,226.858,397.34,226.858z M393.184,253.619h-11.76v-11.76 h11.76V253.619z" fill="#000000" style="fill: rgb(205, 224, 255);"></path></g></g><g><g><path d="M255.59,275.196h-20.07c-5.979,0-10.846,4.865-10.846,10.846v20.07c0,5.979,4.865,10.846,10.846,10.846h20.07 c5.98,0,10.846-4.865,10.846-10.846v-20.07C266.436,280.061,261.57,275.196,255.59,275.196z M251.435,301.956h-11.76v-11.76h11.76 V301.956z" fill="#000000" style="fill: rgb(205, 224, 255);"></path></g></g><g><g><path d="M302.84,275.196h-20.07c-5.98,0-10.846,4.865-10.846,10.846v20.07c0,5.979,4.865,10.846,10.846,10.846h20.07 c5.98,0,10.846-4.865,10.846-10.846v-20.07C313.685,280.061,308.82,275.196,302.84,275.196z M298.685,301.956h-11.76v-11.76h11.76 V301.956z" fill="#000000" style="fill: rgb(205, 224, 255);"></path></g></g></svg>