<!-- icon666.com - MILLIONS vector ICONS FREE --><svg id="Layer_1_1_" enable-background="new 0 0 64 64" viewBox="0 0 64 64" xmlns="http://www.w3.org/2000/svg"><path d="m21 38h5v5c0 .553.448 1 1 1h10c.552 0 1-.447 1-1v-5h5c.552 0 1-.447 1-1v-10c0-.553-.448-1-1-1h-5v-5c0-.553-.448-1-1-1h-10c-.552 0-1 .447-1 1v5h-5c-.552 0-1 .447-1 1v10c0 .553.448 1 1 1zm1-10h5c.552 0 1-.447 1-1v-5h8v5c0 .553.448 1 1 1h5v8h-5c-.552 0-1 .447-1 1v5h-8v-5c0-.553-.448-1-1-1h-5z" fill="#000000" style="fill: rgb(205, 224, 255);"></path><path d="m13 32c0 10.477 8.523 19 19 19s19-8.523 19-19-8.523-19-19-19-19 8.523-19 19zm19-17c9.374 0 17 7.626 17 17s-7.626 17-17 17-17-7.626-17-17 7.626-17 17-17z" fill="#000000" style="fill: rgb(205, 224, 255);"></path><path d="m35.114 5.178-.229 1.986c5.747.661 11.129 3.334 15.154 7.528l1.443-1.385c-4.346-4.529-10.159-7.416-16.368-8.129z" fill="#000000" style="fill: rgb(205, 224, 255);"></path><path d="m32.962 7.018.076-1.998c-.688-.027-1.388-.027-2.076 0l.076 1.998c.638-.024 1.286-.024 1.924 0z" fill="#000000" style="fill: rgb(205, 224, 255);"></path><path d="m7 32c0-12.71 9.507-23.388 22.114-24.836l-.229-1.986c-13.616 1.564-23.885 13.095-23.885 26.822s10.269 25.258 23.886 26.822l.229-1.986c-12.608-1.448-22.115-12.126-22.115-24.836z" fill="#000000" style="fill: rgb(205, 224, 255);"></path><path d="m31.038 56.982-.076 1.998c.344.014.69.02 1.038.02s.694-.006 1.038-.02l-.076-1.998c-.638.024-1.286.024-1.924 0z" fill="#000000" style="fill: rgb(205, 224, 255);"></path><path d="m58.857 26.485c-.361-.602-1.354-.602-1.715 0l-3 5c-.186.309-.19.693-.013 1.008.178.314.511.507.871.507h1.953c-.486 12.263-9.794 22.426-22.068 23.836l.229 1.986c13.285-1.526 23.378-12.54 23.863-25.822h2.023c.36 0 .693-.193.87-.507.178-.314.173-.699-.013-1.008zm-2.091 4.515 1.234-2.057 1.234 2.057z" fill="#000000" style="fill: rgb(205, 224, 255);"></path><path d="m11.266 56.036c-2.322-.642-2.661-.98-3.302-3.303-.12-.432-.514-.733-.964-.733s-.844.301-.964.733c-.641 2.322-.98 2.661-3.302 3.303-.434.12-.734.514-.734.964s.3.844.734.964c2.322.642 2.661.98 3.302 3.303.12.432.514.733.964.733s.844-.301.964-.733c.641-2.322.98-2.661 3.302-3.303.434-.12.734-.514.734-.964s-.3-.844-.734-.964zm-4.266 2.262c-.34-.545-.753-.957-1.298-1.298.545-.341.958-.753 1.298-1.298.34.545.753.957 1.298 1.298-.545.341-.958.753-1.298 1.298z" fill="#000000" style="fill: rgb(205, 224, 255);"></path><path d="m61.266 6.036c-2.322-.642-2.661-.98-3.302-3.303-.12-.432-.514-.733-.964-.733s-.844.301-.964.733c-.641 2.322-.98 2.661-3.302 3.303-.434.12-.734.514-.734.964s.3.844.734.964c2.322.642 2.661.98 3.302 3.303.12.432.514.733.964.733s.844-.301.964-.733c.641-2.322.98-2.661 3.302-3.303.434-.12.734-.514.734-.964s-.3-.844-.734-.964zm-4.266 2.262c-.34-.545-.753-.957-1.298-1.298.545-.341.958-.753 1.298-1.298.34.545.753.957 1.298 1.298-.545.341-.958.753-1.298 1.298z" fill="#000000" style="fill: rgb(205, 224, 255);"></path></svg>