<!-- icon666.com - MILLIONS vector ICONS FREE --><svg clip-rule="evenodd" fill-rule="evenodd" stroke-linejoin="round" stroke-miterlimit="2" viewBox="0 0 32 32" xmlns="http://www.w3.org/2000/svg"><g id="Icon"><path d="m6 4v24c0 1.656 1.344 3 3 3h14c1.656 0 3-1.344 3-3v-24c0-1.656-1.344-3-3-3h-14c-1.656 0-3 1.344-3 3zm2 0c0-.552.448-1 1-1h14c.552 0 1 .448 1 1v24c0 .552-.448 1-1 1h-14c-.552 0-1-.448-1-1z" fill="#000000" style="fill: rgb(205, 224, 255);"></path><path d="m14 6h4c.552 0 1-.448 1-1s-.448-1-1-1h-4c-.552 0-1 .448-1 1s.448 1 1 1z" fill="#000000" style="fill: rgb(205, 224, 255);"></path><path d="m25.6 17.2-4-3c-.173-.13-.384-.2-.6-.2h-2.5s-2.7-3.6-2.7-3.6c-.331-.442-.958-.531-1.4-.2s-.531.958-.2 1.4l3 4c.189.252.485.4.8.4h2.667s3.733 2.8 3.733 2.8c.442.331 1.069.242 1.4-.2s.242-1.069-.2-1.4z" fill="#000000" style="fill: rgb(205, 224, 255);"></path><path d="m16.445 12.835-2 1.333c-.459.306-.583.927-.277 1.387.306.459.927.583 1.387.277l2-1.333c.459-.306.583-.928.277-1.387s-.927-.584-1.387-.277z" fill="#000000" style="fill: rgb(205, 224, 255);"></path><path d="m21.293 15.293-4 4c-.39.39-.39 1.024 0 1.414s1.024.39 1.414 0l4-4c.39-.39.39-1.024 0-1.414s-1.024-.39-1.414 0z" fill="#000000" style="fill: rgb(205, 224, 255);"></path><path d="m18 19h-3c-.552 0-1 .448-1 1s.448 1 1 1h3c.552 0 1-.448 1-1s-.448-1-1-1z" fill="#000000" style="fill: rgb(205, 224, 255);"></path><path d="m17 20v3c0 .552.448 1 1 1s1-.448 1-1v-3c0-.552-.448-1-1-1s-1 .448-1 1z" fill="#000000" style="fill: rgb(205, 224, 255);"></path></g></svg>